<svg width="91" height="81" viewBox="0 0 91 81" fill="none" xmlns="http://www.w3.org/2000/svg"><path d="M89.593 39.776c0 6.973-5.643 12.616-12.616 12.616V27.124c6.973 0 12.616 5.661 12.616 12.652Z" fill="#fff"/><path d="M73.79 1.17a3.187 3.187 0 0 0-3.186 3.187V75.16a3.187 3.187 0 0 0 6.373 0V4.357a3.187 3.187 0 0 0-3.186-3.187Z" fill="#fff"/><path d="M70.607 6.654v66.209c-7.09-12.856-24.277-20.387-38.213-21.078V27.733C46.33 27.04 63.518 19.51 70.607 6.654Z" fill="#38BFF2"/><path d="M32.39 27.729V51.79a2.582 2.582 0 0 1-2.583 2.582H9.797a2.582 2.582 0 0 1-2.582-2.582V27.729a2.582 2.582 0 0 1 2.582-2.582h20.01a2.582 2.582 0 0 1 2.582 2.582Z" fill="#fff"/><path d="M3.78 30.847h3.435v17.826H3.78a2.37 2.37 0 0 1-2.374-2.374V33.22a2.37 2.37 0 0 1 2.374-2.373Z" fill="#38BFF2"/><path d="M25.508 22.645v2.498H14.101v-2.498a2.478 2.478 0 0 1 2.478-2.479h6.451a2.478 2.478 0 0 1 2.478 2.479Z" fill="#fff"/><path d="m18.39 78.61 7.45-24.237H13.763v23.729c0 .955.774 1.729 1.73 1.729h1.245c.759 0 1.43-.495 1.652-1.221Z" fill="#38BFF2"/><path d="M90.531 39.776c0-7.175-5.58-13.055-12.615-13.542V4.356A4.13 4.13 0 0 0 73.79.23a4.13 4.13 0 0 0-4.124 4.125v2.05c-6.903 12.263-23.37 19.43-36.497 20.336-.43-1.458-1.766-2.533-3.362-2.533h-3.36v-1.565a3.42 3.42 0 0 0-3.416-3.416h-6.452a3.42 3.42 0 0 0-3.417 3.416v1.565H9.797c-1.94 0-3.52 1.58-3.52 3.52v2.18H3.78A3.316 3.316 0 0 0 .47 33.22V46.3a3.315 3.315 0 0 0 3.312 3.31h2.496v2.18c0 1.941 1.58 3.52 3.52 3.52h3.028v22.792a2.67 2.67 0 0 0 2.667 2.667h1.245c1.18 0 2.204-.757 2.55-1.884l7.247-23.574h3.273c1.597 0 2.934-1.076 3.363-2.536 13.126.907 29.594 8.074 36.495 20.336v2.05a4.13 4.13 0 0 0 4.125 4.124 4.13 4.13 0 0 0 4.125-4.125V53.283c7.036-.486 12.616-6.35 12.616-13.507ZM15.04 22.644c0-.849.69-1.54 1.54-1.54h6.451c.85 0 1.54.691 1.54 1.54v1.56H15.04v-1.56ZM3.78 47.734A1.437 1.437 0 0 1 2.346 46.3V33.22c0-.791.644-1.435 1.435-1.435h2.496v15.95H3.78Zm13.712 30.6a.786.786 0 0 1-.756.559h-1.245a.791.791 0 0 1-.79-.791V55.311h9.869l-7.078 23.023ZM31.451 51.79c0 .906-.737 1.644-1.643 1.644H9.797a1.646 1.646 0 0 1-1.644-1.644V27.729c0-.906.738-1.643 1.644-1.643h20.01c.907 0 1.644.737 1.644 1.643v24.062Zm1.88-.89V28.616c12.688-.89 28.395-7.45 36.335-18.698v59.68c-7.939-11.247-23.647-17.807-36.334-18.697Zm42.708 24.26a2.251 2.251 0 0 1-2.249 2.247 2.25 2.25 0 0 1-2.248-2.248c.005-87.08 0-64.458 0-70.804a2.25 2.25 0 0 1 2.248-2.248c1.24 0 2.25 1.008 2.25 2.248V75.16Zm1.877-23.745V28.1c6.001.48 10.739 5.534 10.739 11.676 0 6.124-4.738 11.161-10.74 11.64Z" fill="#1A2E35"/><path d="M28.033 28.886H11.571a.938.938 0 1 0 0 1.876h16.462a.937.937 0 1 0 0-1.876ZM28.033 33.855H11.571a.938.938 0 1 0 0 1.876h16.462a.938.938 0 1 0 0-1.877ZM28.033 38.822H11.571a.938.938 0 1 0 0 1.876h16.462a.937.937 0 1 0 0-1.876ZM28.033 43.79H11.571a.938.938 0 1 0 0 1.875h16.462a.937.937 0 1 0 0-1.876ZM28.033 48.757H11.571a.938.938 0 1 0 0 1.876h16.462a.937.937 0 1 0 0-1.876Z" fill="#1A2E35"/></svg>