<svg width="49" height="56" viewBox="0 0 49 56" fill="none" xmlns="http://www.w3.org/2000/svg"><path d="M32.993 3.483v48.77c0 1.603-1.315 2.902-2.938 2.902H3.525c-1.622 0-2.938-1.3-2.938-2.903V3.483C.587 1.88 1.903.581 3.526.581h26.53c1.622 0 2.937 1.3 2.937 2.902Z" fill="#fff"/><path d="M24.964.581V2.9c0 1.282-1.052 2.322-2.35 2.322H10.966c-1.299 0-2.35-1.04-2.35-2.322V.58h16.347ZM47.793 19.2v18.497c0 1.283-1.052 2.322-2.35 2.322H16.79V16.879h28.653c1.298 0 2.35 1.04 2.35 2.322Z" fill="#38BFF2"/><path d="M16.79 21.624h31.003v5.754H16.79v-5.754Z" fill="#D7E9FF"/><path d="M9.043 51.09a.584.584 0 0 0-.587.582c0 .32.263.58.587.58h15.494c.325 0 .588-.26.588-.58a.584.584 0 0 0-.588-.581H9.043ZM21.052 3.482h1.05c.324 0 .587-.26.587-.58a.584.584 0 0 0-.587-.582h-1.05a.584.584 0 0 0-.587.581c0 .321.263.58.587.58ZM11.479 3.482h6.82c.324 0 .587-.26.587-.58a.584.584 0 0 0-.587-.582h-6.82a.584.584 0 0 0-.588.581c0 .321.263.58.588.58Z" fill="#1A2E35"/><path d="M45.443 16.297H33.58V3.483C33.58 1.563 31.999 0 30.055 0H3.525C1.583 0 0 1.563 0 3.483v48.769c0 1.92 1.582 3.483 3.526 3.483h26.529c1.944 0 3.526-1.562 3.526-3.483V40.6h11.861c1.62 0 2.939-1.303 2.939-2.903V19.2c0-1.6-1.319-2.903-2.938-2.903Zm1.762 2.903v1.843H17.377v-3.585h28.066c.972 0 1.762.782 1.762 1.742Zm0 7.597H17.377v-4.593h29.828v4.593ZM24.377 1.161v1.737c0 .96-.791 1.742-1.763 1.742H10.967a1.754 1.754 0 0 1-1.763-1.742V1.161h15.172Zm8.029 51.091c0 1.28-1.055 2.322-2.35 2.322H3.525c-1.296 0-2.35-1.041-2.35-2.322V3.483c0-1.28 1.054-2.322 2.35-2.322h4.503v1.737c0 1.601 1.318 2.903 2.938 2.903h11.646c1.62 0 2.939-1.302 2.939-2.903V1.161h4.503c1.296 0 2.35 1.042 2.35 2.322v12.814H17.378v-2.619a.584.584 0 0 0-.587-.58.584.584 0 0 0-.588.58v29.534c0 .321.263.58.588.58.324 0 .587-.259.587-.58V40.6h15.029v11.653Zm13.037-12.814H17.377v-7.096h19.428c.325 0 .588-.26.588-.58a.584.584 0 0 0-.588-.58H17.377v-3.223h29.828v9.738c0 .96-.79 1.741-1.762 1.741Z" fill="#1A2E35"/><path d="M36.805 35.055h-1.683a.584.584 0 0 0-.588.58c0 .322.263.581.588.581h1.683c.325 0 .588-.26.588-.58a.584.584 0 0 0-.588-.581ZM31.993 35.055H30.31a.584.584 0 0 0-.588.58c0 .322.263.581.588.581h1.683c.325 0 .588-.26.588-.58a.584.584 0 0 0-.588-.581ZM27.181 35.055h-1.683a.584.584 0 0 0-.588.58c0 .322.263.581.588.581h1.683c.325 0 .588-.26.588-.58a.584.584 0 0 0-.588-.581ZM22.369 35.055h-1.684a.584.584 0 0 0-.587.58c0 .322.263.581.587.581h1.684c.324 0 .587-.26.587-.58a.584.584 0 0 0-.587-.581Z" fill="#1A2E35"/></svg>