<svg width="59" height="59" viewBox="0 0 59 59" fill="none" xmlns="http://www.w3.org/2000/svg"><g clip-path="url(#clip0_25_108)"><path d="M49.916 49.922c11.278-11.279 11.278-29.565 0-40.844-11.28-11.279-29.566-11.279-40.845 0-11.278 11.279-11.278 29.565 0 40.844 11.28 11.279 29.566 11.279 40.845 0Z" fill="#38BFF2"/><path d="M29.5 52.24c12.559 0 22.74-10.181 22.74-22.74S42.058 6.76 29.5 6.76 6.76 16.941 6.76 29.5 16.941 52.24 29.5 52.24Z" fill="#fff"/><path d="M29.5 0C13.234 0 0 13.234 0 29.5S13.234 59 29.5 59 59 45.766 59 29.5 45.766 0 29.5 0Zm0 57.77c-15.588 0-28.27-12.682-28.27-28.27S13.911 1.23 29.5 1.23 57.77 13.911 57.77 29.5 45.089 57.77 29.5 57.77Z" fill="#1A2E35"/><path d="M29.5 6.146C16.623 6.146 6.146 16.622 6.146 29.5c0 12.877 10.477 23.354 23.354 23.354 12.878 0 23.354-10.477 23.354-23.354 0-12.878-10.476-23.354-23.354-23.354Zm0 45.479C17.3 51.625 7.375 41.7 7.375 29.5S17.3 7.375 29.5 7.375 51.625 17.3 51.625 29.5 41.7 51.625 29.5 51.625Z" fill="#1A2E35"/><path d="M31.96 16.215h-8.173c-.01 0-.02-.006-.03-.006a.615.615 0 0 0-.614.614V28.581h-2.287a.615.615 0 0 0 0 1.23h2.287v2.601h-2.287a.615.615 0 1 0 0 1.229h2.287v8.535a.615.615 0 0 0 1.229 0v-8.535h11.09a.615.615 0 0 0 0-1.229h-11.09V29.81H31.53c3.77 0 6.935-2.745 7.207-6.25v-.001c.317-4.075-2.9-7.344-6.776-7.344Zm5.552 7.25v-.001c-.223 2.87-2.85 5.117-5.982 5.117H24.372V17.444h7.589a5.562 5.562 0 0 1 5.551 6.02Z" fill="#1A2E35"/></g><defs><clipPath id="clip0_25_108"><path fill="#fff" d="M0 0h59v59H0z"/></clipPath></defs></svg>