<svg width="58" height="58" viewBox="0 0 58 58" fill="none" xmlns="http://www.w3.org/2000/svg"><g clip-path="url(#clip0_23_2)"><path d="M57.103 11.702v42.77a2.628 2.628 0 0 1-2.637 2.631H3.534a2.628 2.628 0 0 1-2.637-2.63V11.701h56.206Z" fill="#fff"/><path d="M57.103 3.534v8.168H.897V3.534A2.633 2.633 0 0 1 3.534.897h50.932a2.633 2.633 0 0 1 2.637 2.637Z" fill="#38BFF2"/><path d="M8.117 6.297a1.38 1.38 0 0 1-2.758 0c0-.762.618-1.374 1.38-1.374.76 0 1.378.612 1.378 1.374ZM13.948 6.297a1.38 1.38 0 0 1-2.758 0c0-.762.618-1.374 1.379-1.374s1.379.612 1.379 1.374ZM19.779 6.297a1.38 1.38 0 0 1-2.758 0c0-.762.618-1.374 1.379-1.374s1.379.612 1.379 1.374ZM52.64 6.296c0 .761-.623 1.376-1.384 1.376H36.66a1.375 1.375 0 0 1-1.376-1.376c0-.762.615-1.37 1.376-1.37h14.595c.761 0 1.384.608 1.384 1.37Z" fill="#D7E9FF"/><path d="M54.466.299H3.534A3.238 3.238 0 0 0 .299 3.534v50.938a3.236 3.236 0 0 0 3.235 3.23h50.932a3.236 3.236 0 0 0 3.235-3.23V3.534A3.238 3.238 0 0 0 54.466.299ZM1.495 3.534c0-1.124.915-2.04 2.039-2.04h50.932c1.124 0 2.039.916 2.039 2.04v7.57H1.495v-7.57Zm55.01 50.938c0 1.121-.915 2.033-2.039 2.033H3.534a2.039 2.039 0 0 1-2.04-2.033V12.3h55.011v42.172Z" fill="#1A2E35"/><path d="M8.095 35.012c1.16 0 2.104.934 2.104 2.08v5.217c0 1.82 1.47 3.3 3.276 3.3a.598.598 0 1 0 0-1.196c-1.147 0-2.08-.944-2.08-2.104v-5.216a3.269 3.269 0 0 0-1.423-2.694 3.3 3.3 0 0 0 1.4-2.686v-5.217c0-1.16.933-2.104 2.08-2.104a.598.598 0 1 0 0-1.196c-1.806 0-3.276 1.48-3.276 3.3v5.217c0 1.141-.938 2.085-2.09 2.103-.786.013-.775 1.196.01 1.196ZM46.605 37.093v5.216c0 1.16-.933 2.104-2.08 2.104a.598.598 0 1 0 0 1.196c1.806 0 3.276-1.48 3.276-3.3v-5.216c0-1.148.943-2.08 2.103-2.08.785 0 .794-1.184.01-1.197-1.152-.018-2.09-.962-2.09-2.104v-5.216c0-1.82-1.47-3.3-3.277-3.3a.598.598 0 1 0 0 1.196c1.148 0 2.08.944 2.08 2.104v5.216a3.3 3.3 0 0 0 1.401 2.687 3.27 3.27 0 0 0-1.423 2.694ZM24.986 44.798a.597.597 0 0 0 .773-.343l7.598-19.674a.598.598 0 1 0-1.116-.431l-7.598 19.674a.598.598 0 0 0 .343.774ZM40.998 34.412l-6.893 4.658a.598.598 0 1 0 .67.991l7.624-5.153a.598.598 0 0 0 .001-.99l-7.624-5.173a.598.598 0 0 0-.672.99l6.894 4.677ZM15.598 34.906l7.553 5.154a.598.598 0 0 0 .674-.989l-6.83-4.66 6.831-4.678a.599.599 0 0 0-.676-.987l-7.553 5.173a.599.599 0 0 0 .001.987ZM6.738 4.325c-1.09 0-1.976.884-1.976 1.971 0 1.09.887 1.977 1.976 1.977a1.98 1.98 0 0 0 1.977-1.977 1.977 1.977 0 0 0-1.977-1.97Zm0 2.752c-.43 0-.78-.35-.78-.78 0-.428.35-.776.78-.776a.78.78 0 0 1 .782.776c0 .43-.35.78-.782.78ZM12.57 4.325c-1.09 0-1.978.884-1.978 1.971a1.98 1.98 0 0 0 1.977 1.977c1.09 0 1.977-.886 1.977-1.977a1.976 1.976 0 0 0-1.976-1.97Zm0 2.752a.78.78 0 1 1 0-1.556.779.779 0 1 1 0 1.556ZM18.4 4.325c-1.09 0-1.977.884-1.977 1.971A1.98 1.98 0 0 0 18.4 8.273c1.09 0 1.977-.886 1.977-1.977a1.976 1.976 0 0 0-1.977-1.97Zm0 2.752a.779.779 0 1 1 0-1.556.779.779 0 1 1 0 1.556ZM51.256 4.328H36.66a1.973 1.973 0 0 0-1.974 1.968c0 1.089.885 1.974 1.974 1.974h14.595a1.98 1.98 0 0 0 1.982-1.974c0-1.085-.89-1.968-1.982-1.968Zm0 2.747H36.66a.78.78 0 0 1-.779-.78c0-.432.343-.77.78-.77h14.594a.78.78 0 0 1 .786.77c0 .43-.353.78-.786.78Z" fill="#1A2E35"/></g><defs><clipPath id="clip0_23_2"><path fill="#fff" d="M0 0h58v58H0z"/></clipPath></defs></svg>