<svg width="258" height="258" viewBox="0 0 379 357" fill="none" xmlns="http://www.w3.org/2000/svg"><path d="M18.686 212.611H6.564M370.957 212.611H24.123" stroke="#1A2E35" stroke-width="1.333" stroke-miterlimit="10" stroke-linecap="round" stroke-linejoin="round"/><path d="M64.749 130.83c8.369 0 15.154-6.806 15.154-15.201 0-8.394-6.785-15.201-15.154-15.201s-15.154 6.807-15.154 15.201c0 8.395 6.785 15.201 15.154 15.201Zm-27.44-12.004v-6.27l5.985-.859a21.777 21.777 0 0 1 3.439-8.401l-3.64-4.871 4.419-4.433 4.838 3.638a21.662 21.662 0 0 1 8.353-3.5l.86-6.027h6.25l.855 6.005a21.64 21.64 0 0 1 8.375 3.449l4.856-3.653 4.42 4.434-3.627 4.853a21.803 21.803 0 0 1 3.49 8.38l6.007.862v6.27l-5.986.858a21.766 21.766 0 0 1-3.438 8.401l3.64 4.871-4.419 4.434-4.838-3.639a21.655 21.655 0 0 1-8.353 3.5l-.86 6.028h-6.25l-.856-6.005a21.642 21.642 0 0 1-8.375-3.449l-4.855 3.652-4.42-4.434 3.627-4.853a21.797 21.797 0 0 1-3.49-8.379l-6.008-.862Z" stroke="#1A2E35" stroke-width="1.333" stroke-miterlimit="10"/><path d="M39.607 164.821c5.984 0 10.837-4.867 10.837-10.87 0-6.003-4.853-10.871-10.837-10.871-5.985 0-10.837 4.868-10.837 10.871s4.852 10.87 10.837 10.87Zm-19.624-8.584v-4.484l4.281-.614a15.583 15.583 0 0 1 2.459-6.008l-2.603-3.483 3.16-3.171 3.46 2.603a15.464 15.464 0 0 1 5.973-2.503l.615-4.311h4.47l.612 4.295c2.19.399 4.22 1.252 5.99 2.466l3.471-2.611 3.16 3.17-2.593 3.47a15.576 15.576 0 0 1 2.495 5.992l4.297.617v4.484l-4.28.614a15.594 15.594 0 0 1-2.459 6.008l2.603 3.483-3.16 3.171-3.46-2.603a15.473 15.473 0 0 1-5.974 2.503l-.614 4.311h-4.47l-.613-4.294a15.474 15.474 0 0 1-5.989-2.467l-3.471 2.612-3.16-3.171 2.593-3.47a15.576 15.576 0 0 1-2.496-5.992l-4.297-.617ZM310.849 142.198c-7.636 0-13.827 6.21-13.827 13.871 0 7.661 6.191 13.87 13.827 13.87s13.828-6.209 13.828-13.87-6.192-13.871-13.828-13.871Zm25.04 10.954v5.722l-5.463.783a19.892 19.892 0 0 1-3.137 7.667l3.322 4.443-4.033 4.046-4.415-3.32a19.743 19.743 0 0 1-7.622 3.194l-.784 5.5h-5.703l-.782-5.48a19.749 19.749 0 0 1-7.642-3.146l-4.431 3.332-4.032-4.046 3.31-4.428a19.888 19.888 0 0 1-3.185-7.647l-5.483-.786v-5.722l5.463-.783a19.881 19.881 0 0 1 3.137-7.666l-3.322-4.444 4.033-4.046 4.415 3.32a19.742 19.742 0 0 1 7.622-3.193l.784-5.501h5.703l.782 5.48a19.735 19.735 0 0 1 7.642 3.147l4.431-3.332 4.033 4.045-3.311 4.429a19.884 19.884 0 0 1 3.185 7.646l5.483.786Z" stroke="#1A2E35" stroke-width="1.333" stroke-miterlimit="10"/><path d="M334.724 115.327c-4.658 0-8.434 3.787-8.434 8.461 0 4.673 3.776 8.46 8.434 8.46 4.659 0 8.434-3.787 8.434-8.46 0-4.674-3.775-8.461-8.434-8.461Zm15.274 6.681v3.491l-3.332.477a12.143 12.143 0 0 1-1.913 4.677l2.026 2.711-2.46 2.468-2.693-2.026a12.043 12.043 0 0 1-4.65 1.948l-.478 3.355h-3.479l-.477-3.342a12.059 12.059 0 0 1-4.661-1.92l-2.703 2.033-2.46-2.468 2.019-2.701a12.135 12.135 0 0 1-1.942-4.664l-3.344-.48v-3.49l3.332-.478a12.13 12.13 0 0 1 1.913-4.676l-2.026-2.711 2.46-2.468 2.692 2.026a12.026 12.026 0 0 1 4.651-1.948l.478-3.356h3.479l.476 3.343c1.704.31 3.285.975 4.662 1.919l2.703-2.032 2.46 2.467-2.02 2.701a12.117 12.117 0 0 1 1.942 4.664l3.345.48ZM195.002 49.149c-6.397 0-11.583 5.202-11.583 11.62 0 6.416 5.186 11.618 11.583 11.618s11.582-5.202 11.582-11.619-5.185-11.62-11.582-11.62Zm20.976 9.175v4.793l-4.576.656a16.672 16.672 0 0 1-2.628 6.422l2.782 3.723-3.379 3.389-3.697-2.78a16.552 16.552 0 0 1-6.386 2.674l-.657 4.607h-4.777l-.655-4.59a16.54 16.54 0 0 1-6.402-2.636l-3.71 2.792-3.378-3.39 2.772-3.71a16.641 16.641 0 0 1-2.667-6.404l-4.594-.659v-4.792l4.576-.657a16.657 16.657 0 0 1 2.628-6.422l-2.782-3.723 3.379-3.389 3.697 2.782a16.554 16.554 0 0 1 6.385-2.675l.657-4.608h4.778l.654 4.59a16.545 16.545 0 0 1 6.402 2.636l3.711-2.791 3.378 3.389-2.772 3.71a16.652 16.652 0 0 1 2.667 6.404l4.594.66Z" stroke="#1A2E35" stroke-width="1.333" stroke-miterlimit="10"/><path d="M71.233 217.807h232.384V64.467c0-3.526-2.849-6.384-6.364-6.384H77.598c-3.516 0-6.365 2.858-6.365 6.384v153.34Z" fill="#1A2E35"/><path d="M71.233 217.807h232.384V64.467c0-3.526-2.849-6.384-6.364-6.384H77.598c-3.516 0-6.365 2.858-6.365 6.384v153.34Z" stroke="#1A2E35" stroke-width="1.333" stroke-miterlimit="10" stroke-linecap="round" stroke-linejoin="round"/><path d="M36.376 288.415h302.099l-34.858-70.608H71.233l-34.858 70.608Z" fill="#fff"/><path d="M36.376 288.415h302.099l-34.858-70.608H71.233l-34.858 70.608Z" stroke="#1A2E35" stroke-width="1.333" stroke-miterlimit="10" stroke-linecap="round" stroke-linejoin="round"/><path d="M85.309 205.159H289.54V70.729H85.309v134.43Z" fill="#38BFF2" stroke="#1A2E35" stroke-width="1.333" stroke-miterlimit="10" stroke-linecap="round" stroke-linejoin="round"/><path d="m197.119 240.157-.403-8.604h12.279l.813 8.604h-12.689Z" fill="#1A2E35"/><path d="m197.119 240.157-.403-8.604h12.279l.813 8.604h-12.689Z" stroke="#fff" stroke-width="1.333" stroke-miterlimit="10" stroke-linecap="round" stroke-linejoin="round"/><path d="m171.74 240.157.418-8.604h12.279l-.008 8.604H171.74Z" fill="#1A2E35"/><path d="m171.74 240.157.418-8.604h12.279l-.008 8.604H171.74Z" stroke="#fff" stroke-width="1.333" stroke-miterlimit="10" stroke-linecap="round" stroke-linejoin="round"/><path d="M105.651 249.356H92.523l3.081-9.199h12.69l-2.643 9.199Z" fill="#1A2E35"/><path d="M105.651 249.356H92.523l3.081-9.199h12.69l-2.643 9.199Z" stroke="#fff" stroke-width="1.333" stroke-miterlimit="10" stroke-linecap="round" stroke-linejoin="round"/><path d="m209.808 240.157-.814-8.604h12.279l1.225 8.604h-12.69Z" fill="#1A2E35"/><path d="m209.808 240.157-.814-8.604h12.279l1.225 8.604h-12.69Z" stroke="#fff" stroke-width="1.333" stroke-miterlimit="10" stroke-linecap="round" stroke-linejoin="round"/><path d="m235.186 240.157-1.634-8.604h12.279l2.045 8.604h-12.69Z" fill="#1A2E35"/><path d="m235.186 240.157-1.634-8.604h12.279l2.045 8.604h-12.69Z" stroke="#fff" stroke-width="1.333" stroke-miterlimit="10" stroke-linecap="round" stroke-linejoin="round"/><path d="m120.982 240.157 2.062-8.604h12.279l-1.651 8.604h-12.69Z" fill="#1A2E35"/><path d="m120.982 240.157 2.062-8.604h12.279l-1.651 8.604h-12.69Z" stroke="#fff" stroke-width="1.333" stroke-miterlimit="10" stroke-linecap="round" stroke-linejoin="round"/><path d="m108.294 240.157 2.472-8.604h12.278l-2.061 8.604h-12.689Z" fill="#1A2E35"/><path d="m108.294 240.157 2.472-8.604h12.278l-2.061 8.604h-12.689Z" stroke="#fff" stroke-width="1.333" stroke-miterlimit="10" stroke-linecap="round" stroke-linejoin="round"/><path d="m247.876 240.157-2.045-8.604h12.279l2.455 8.604h-12.689Z" fill="#1A2E35"/><path d="m247.876 240.157-2.045-8.604h12.279l2.455 8.604h-12.689Z" stroke="#fff" stroke-width="1.333" stroke-miterlimit="10" stroke-linecap="round" stroke-linejoin="round"/><path d="m159.051 240.157.829-8.604h12.279l-.419 8.604h-12.689Z" fill="#1A2E35"/><path d="m159.051 240.157.829-8.604h12.279l-.419 8.604h-12.689Z" stroke="#fff" stroke-width="1.333" stroke-miterlimit="10" stroke-linecap="round" stroke-linejoin="round"/><path d="m95.604 240.157 2.883-8.604h12.278l-2.471 8.604h-12.69Z" fill="#1A2E35"/><path d="m95.604 240.157 2.883-8.604h12.278l-2.471 8.604h-12.69Z" stroke="#fff" stroke-width="1.333" stroke-miterlimit="10" stroke-linecap="round" stroke-linejoin="round"/><path d="m133.672 240.157 1.65-8.604h12.279l-1.239 8.604h-12.69Z" fill="#1A2E35"/><path d="m133.672 240.157 1.65-8.604h12.279l-1.239 8.604h-12.69Z" stroke="#fff" stroke-width="1.333" stroke-miterlimit="10" stroke-linecap="round" stroke-linejoin="round"/><path d="m146.362 240.157 1.239-8.604h12.279l-.829 8.604h-12.689Z" fill="#1A2E35"/><path d="m146.362 240.157 1.239-8.604h12.279l-.829 8.604h-12.689Z" stroke="#fff" stroke-width="1.333" stroke-miterlimit="10" stroke-linecap="round" stroke-linejoin="round"/><path d="m184.429 240.157.008-8.604h12.279l.403 8.604h-12.69Z" fill="#1A2E35"/><path d="m184.429 240.157.008-8.604h12.279l.403 8.604h-12.69Z" stroke="#fff" stroke-width="1.333" stroke-miterlimit="10" stroke-linecap="round" stroke-linejoin="round"/><path d="M273.255 240.157h12.689l3.503 9.199h-13.128l-3.064-9.199Z" fill="#1A2E35"/><path d="M273.255 240.157h12.689l3.503 9.199h-13.128l-3.064-9.199Z" stroke="#fff" stroke-width="1.333" stroke-miterlimit="10" stroke-linecap="round" stroke-linejoin="round"/><path d="M270.388 231.553h12.278l3.277 8.604h-12.689l-2.866-8.604Z" fill="#1A2E35"/><path d="M270.388 231.553h12.278l3.277 8.604h-12.689l-2.866-8.604Z" stroke="#fff" stroke-width="1.333" stroke-miterlimit="10" stroke-linecap="round" stroke-linejoin="round"/><path d="m260.565 240.157-2.455-8.604h12.278l2.867 8.604h-12.69Z" fill="#1A2E35"/><path d="m260.565 240.157-2.455-8.604h12.278l2.867 8.604h-12.69Z" stroke="#fff" stroke-width="1.333" stroke-miterlimit="10" stroke-linecap="round" stroke-linejoin="round"/><path d="m293.202 259.215 4.034 10.592h-14.104l-3.529-10.592h13.599Z" fill="#1A2E35"/><path d="m293.202 259.215 4.034 10.592h-14.104l-3.529-10.592h13.599Z" stroke="#fff" stroke-width="1.333" stroke-miterlimit="10" stroke-linecap="round" stroke-linejoin="round"/><path d="M276.319 249.357h13.128l3.756 9.858h-13.6l-3.284-9.858Z" fill="#1A2E35"/><path d="M276.319 249.357h13.128l3.756 9.858h-13.6l-3.284-9.858Z" stroke="#fff" stroke-width="1.333" stroke-miterlimit="10" stroke-linecap="round" stroke-linejoin="round"/><path d="m279.603 259.215 3.529 10.592h-14.105l-3.022-10.592h13.598Z" fill="#1A2E35"/><path d="m279.603 259.215 3.529 10.592h-14.105l-3.022-10.592h13.598Z" stroke="#fff" stroke-width="1.333" stroke-miterlimit="10" stroke-linecap="round" stroke-linejoin="round"/><path d="m222.497 240.157-1.224-8.604h12.279l1.635 8.604h-12.69Z" fill="#1A2E35"/><path d="m222.497 240.157-1.224-8.604h12.279l1.635 8.604h-12.69Z" stroke="#fff" stroke-width="1.333" stroke-miterlimit="10" stroke-linecap="round" stroke-linejoin="round"/><path d="m223.806 249.356-1.309-9.199h12.689l1.748 9.199h-13.128Z" fill="#1A2E35"/><path d="m223.806 249.356-1.309-9.199h12.689l1.748 9.199h-13.128Z" stroke="#fff" stroke-width="1.333" stroke-miterlimit="10" stroke-linecap="round" stroke-linejoin="round"/><path d="m236.934 249.356-1.748-9.199h12.69l2.186 9.199h-13.128Z" fill="#1A2E35"/><path d="m236.934 249.356-1.748-9.199h12.69l2.186 9.199h-13.128Z" stroke="#fff" stroke-width="1.333" stroke-miterlimit="10" stroke-linecap="round" stroke-linejoin="round"/><path d="m210.677 249.356-.869-9.199h12.69l1.308 9.199h-13.129Z" fill="#1A2E35"/><path d="m210.677 249.356-.869-9.199h12.69l1.308 9.199h-13.129Z" stroke="#fff" stroke-width="1.333" stroke-miterlimit="10" stroke-linecap="round" stroke-linejoin="round"/><path d="M260.565 240.157h12.69l3.064 9.199h-13.128l-2.626-9.199Z" fill="#1A2E35"/><path d="M260.565 240.157h12.69l3.064 9.199h-13.128l-2.626-9.199Z" stroke="#fff" stroke-width="1.333" stroke-miterlimit="10" stroke-linecap="round" stroke-linejoin="round"/><path d="M102.819 259.215H89.221l3.301-9.859h13.129l-2.832 9.859Z" fill="#1A2E35"/><path d="M102.819 259.215H89.221l3.301-9.859h13.129l-2.832 9.859Z" stroke="#fff" stroke-width="1.333" stroke-miterlimit="10" stroke-linecap="round" stroke-linejoin="round"/><path d="m250.063 249.356-2.187-9.199h12.689l2.626 9.199h-13.128Z" fill="#1A2E35"/><path d="m250.063 249.356-2.187-9.199h12.689l2.626 9.199h-13.128Z" stroke="#fff" stroke-width="1.333" stroke-miterlimit="10" stroke-linecap="round" stroke-linejoin="round"/><path d="m276.319 249.357 3.285 9.858h-13.599l-2.814-9.858h13.128Z" fill="#1A2E35"/><path d="m276.319 249.357 3.285 9.858h-13.599l-2.814-9.858h13.128Z" stroke="#fff" stroke-width="1.333" stroke-miterlimit="10" stroke-linecap="round" stroke-linejoin="round"/><path d="m131.907 249.356 1.765-9.199h12.69l-1.326 9.199h-13.129Z" fill="#1A2E35"/><path d="m131.907 249.356 1.765-9.199h12.69l-1.326 9.199h-13.129Z" stroke="#fff" stroke-width="1.333" stroke-miterlimit="10" stroke-linecap="round" stroke-linejoin="round"/><path d="m145.036 249.356 1.325-9.199h12.689l-.886 9.199h-13.128Z" fill="#1A2E35"/><path d="m145.036 249.356 1.325-9.199h12.689l-.886 9.199h-13.128Z" stroke="#fff" stroke-width="1.333" stroke-miterlimit="10" stroke-linecap="round" stroke-linejoin="round"/><path d="m105.651 249.356 2.643-9.199h12.688l-2.203 9.199h-13.128Z" fill="#1A2E35"/><path d="m105.651 249.356 2.643-9.199h12.688l-2.203 9.199h-13.128Z" stroke="#fff" stroke-width="1.333" stroke-miterlimit="10" stroke-linecap="round" stroke-linejoin="round"/><path d="m184.421 249.356.008-9.199h12.69l.43 9.199h-13.128Z" fill="#1A2E35"/><path d="m184.421 249.356.008-9.199h12.69l.43 9.199h-13.128Z" stroke="#fff" stroke-width="1.333" stroke-miterlimit="10" stroke-linecap="round" stroke-linejoin="round"/><path d="m158.164 249.356.887-9.199h12.689l-.447 9.199h-13.129Z" fill="#1A2E35"/><path d="m158.164 249.356.887-9.199h12.689l-.447 9.199h-13.129Z" stroke="#fff" stroke-width="1.333" stroke-miterlimit="10" stroke-linecap="round" stroke-linejoin="round"/><path d="m171.292 249.356.448-9.199h12.689l-.009 9.199h-13.128Z" fill="#1A2E35"/><path d="m171.292 249.356.448-9.199h12.689l-.009 9.199h-13.128Z" stroke="#fff" stroke-width="1.333" stroke-miterlimit="10" stroke-linecap="round" stroke-linejoin="round"/><path d="m197.549 249.356-.43-9.199h12.689l.869 9.199h-13.128Z" fill="#1A2E35"/><path d="m197.549 249.356-.43-9.199h12.689l.869 9.199h-13.128Z" stroke="#fff" stroke-width="1.333" stroke-miterlimit="10" stroke-linecap="round" stroke-linejoin="round"/><path d="m158.164 249.357-.949 9.858h-13.6l1.421-9.858h13.128Z" fill="#1A2E35"/><path d="m158.164 249.357-.949 9.858h-13.6l1.421-9.858h13.128Z" stroke="#fff" stroke-width="1.333" stroke-miterlimit="10" stroke-linecap="round" stroke-linejoin="round"/><path d="m145.036 249.357-1.42 9.858h-13.6l1.892-9.858h13.128Z" fill="#1A2E35"/><path d="m145.036 249.357-1.42 9.858h-13.6l1.892-9.858h13.128Z" stroke="#fff" stroke-width="1.333" stroke-miterlimit="10" stroke-linecap="round" stroke-linejoin="round"/><path d="m263.191 249.357 2.813 9.858h-13.598l-2.344-9.858h13.129Z" fill="#1A2E35"/><path d="m263.191 249.357 2.813 9.858h-13.598l-2.344-9.858h13.129Z" stroke="#fff" stroke-width="1.333" stroke-miterlimit="10" stroke-linecap="round" stroke-linejoin="round"/><path d="m131.907 249.357-1.891 9.858h-13.598l2.362-9.858h13.127Z" fill="#1A2E35"/><path d="m131.907 249.357-1.891 9.858h-13.598l2.362-9.858h13.127Z" stroke="#fff" stroke-width="1.333" stroke-miterlimit="10" stroke-linecap="round" stroke-linejoin="round"/><path d="m184.421 249.357-.01 9.858h-13.598l.48-9.858h13.128Z" fill="#1A2E35"/><path d="m184.421 249.357-.01 9.858h-13.598l.48-9.858h13.128Z" stroke="#fff" stroke-width="1.333" stroke-miterlimit="10" stroke-linecap="round" stroke-linejoin="round"/><path d="m118.78 249.357-2.362 9.858h-13.599l2.833-9.858h13.128Z" fill="#1A2E35"/><path d="m118.78 249.357-2.362 9.858h-13.599l2.833-9.858h13.128Z" stroke="#fff" stroke-width="1.333" stroke-miterlimit="10" stroke-linecap="round" stroke-linejoin="round"/><path d="m171.292 249.357-.479 9.858h-13.598l.949-9.858h13.128Z" fill="#1A2E35"/><path d="m171.292 249.357-.479 9.858h-13.598l.949-9.858h13.128Z" stroke="#fff" stroke-width="1.333" stroke-miterlimit="10" stroke-linecap="round" stroke-linejoin="round"/><path d="m236.934 249.357 1.873 9.858h-13.599l-1.402-9.858h13.128Z" fill="#1A2E35"/><path d="m236.934 249.357 1.873 9.858h-13.599l-1.402-9.858h13.128Z" stroke="#fff" stroke-width="1.333" stroke-miterlimit="10" stroke-linecap="round" stroke-linejoin="round"/><path d="m250.062 249.357 2.344 9.858h-13.6l-1.872-9.858h13.128Z" fill="#1A2E35"/><path d="m250.062 249.357 2.344 9.858h-13.6l-1.872-9.858h13.128Z" stroke="#fff" stroke-width="1.333" stroke-miterlimit="10" stroke-linecap="round" stroke-linejoin="round"/><path d="m197.549 249.357.462 9.858h-13.6l.01-9.858h13.128Z" fill="#1A2E35"/><path d="m197.549 249.357.462 9.858h-13.6l.01-9.858h13.128Z" stroke="#fff" stroke-width="1.333" stroke-miterlimit="10" stroke-linecap="round" stroke-linejoin="round"/><path d="m210.677 249.357.932 9.858H198.01l-.461-9.858h13.128Z" fill="#1A2E35"/><path d="m210.677 249.357.932 9.858H198.01l-.461-9.858h13.128Z" stroke="#fff" stroke-width="1.333" stroke-miterlimit="10" stroke-linecap="round" stroke-linejoin="round"/><path d="m223.806 249.357 1.402 9.858h-13.599l-.931-9.858h13.128Z" fill="#1A2E35"/><path d="m223.806 249.357 1.402 9.858h-13.599l-.931-9.858h13.128Z" stroke="#fff" stroke-width="1.333" stroke-miterlimit="10" stroke-linecap="round" stroke-linejoin="round"/><path d="m118.78 249.356 2.203-9.199h12.689l-1.765 9.199H118.78Z" fill="#1A2E35"/><path d="m118.78 249.356 2.203-9.199h12.689l-1.765 9.199H118.78Z" stroke="#fff" stroke-width="1.333" stroke-miterlimit="10" stroke-linecap="round" stroke-linejoin="round"/><path d="m270.388 231.553-2.934-8.806h11.858l3.355 8.806h-12.279Z" fill="#1A2E35"/><path d="m270.388 231.553-2.934-8.806h11.858l3.355 8.806h-12.279Z" stroke="#fff" stroke-width="1.333" stroke-miterlimit="10" stroke-linecap="round" stroke-linejoin="round"/><path d="M282.666 231.553h11.335l3.656 8.604h-11.714l-3.277-8.604Z" fill="#1A2E35"/><path d="M282.666 231.553h11.335l3.656 8.604h-11.714l-3.277-8.604Z" stroke="#fff" stroke-width="1.333" stroke-miterlimit="10" stroke-linecap="round" stroke-linejoin="round"/><path d="M279.313 222.747h10.946l3.742 8.806h-11.334l-3.354-8.806Z" fill="#1A2E35"/><path d="M279.313 222.747h10.946l3.742 8.806h-11.334l-3.354-8.806Z" stroke="#fff" stroke-width="1.333" stroke-miterlimit="10" stroke-linecap="round" stroke-linejoin="round"/><path d="M285.943 240.157h11.714l3.909 9.199h-12.119l-3.504-9.199Z" fill="#1A2E35"/><path d="M285.943 240.157h11.714l3.909 9.199h-12.119l-3.504-9.199Z" stroke="#fff" stroke-width="1.333" stroke-miterlimit="10" stroke-linecap="round" stroke-linejoin="round"/><path d="M289.447 249.357h12.119l4.189 9.858h-12.553l-3.755-9.858Z" fill="#1A2E35"/><path d="M289.447 249.357h12.119l4.189 9.858h-12.553l-3.755-9.858Z" stroke="#fff" stroke-width="1.333" stroke-miterlimit="10" stroke-linecap="round" stroke-linejoin="round"/><path d="M293.202 259.215h12.553l4.501 10.592h-13.02l-4.034-10.592Z" fill="#1A2E35"/><path d="M293.202 259.215h12.553l4.501 10.592h-13.02l-4.034-10.592Z" stroke="#fff" stroke-width="1.333" stroke-miterlimit="10" stroke-linecap="round" stroke-linejoin="round"/><path d="m82.915 240.157-3.52 9.199H67.78l3.909-9.199h11.225Z" fill="#1A2E35"/><path d="m82.915 240.157-3.52 9.199H67.78l3.909-9.199h11.225Z" stroke="#fff" stroke-width="1.333" stroke-miterlimit="10" stroke-linecap="round" stroke-linejoin="round"/><path d="M75.622 259.215h-12.03l4.189-9.859h11.613l-3.772 9.859Z" fill="#1A2E35"/><path d="M75.622 259.215h-12.03l4.189-9.859h11.613l-3.772 9.859Z" stroke="#fff" stroke-width="1.333" stroke-miterlimit="10" stroke-linecap="round" stroke-linejoin="round"/><path d="M71.568 269.807H59.09l4.501-10.592h12.03l-4.054 10.592Z" fill="#1A2E35"/><path d="M71.568 269.807H59.09l4.501-10.592h12.03l-4.054 10.592Z" stroke="#fff" stroke-width="1.333" stroke-miterlimit="10" stroke-linecap="round" stroke-linejoin="round"/><path d="m172.159 231.553.428-8.806h11.858l-.008 8.806h-12.278Z" fill="#1A2E35"/><path d="m172.159 231.553.428-8.806h11.858l-.008 8.806h-12.278Z" stroke="#fff" stroke-width="1.333" stroke-miterlimit="10" stroke-linecap="round" stroke-linejoin="round"/><path d="M82.915 240.157H71.69l3.656-8.604h10.861l-3.291 8.604Z" fill="#1A2E35"/><path d="M82.915 240.157H71.69l3.656-8.604h10.861l-3.291 8.604Z" stroke="#fff" stroke-width="1.333" stroke-miterlimit="10" stroke-linecap="round" stroke-linejoin="round"/><path d="M89.22 259.215H75.621l3.772-9.859h13.13l-3.303 9.859Z" fill="#1A2E35"/><path d="M89.22 259.215H75.621l3.772-9.859h13.13l-3.303 9.859Z" stroke="#fff" stroke-width="1.333" stroke-miterlimit="10" stroke-linecap="round" stroke-linejoin="round"/><path d="m258.109 231.553-2.513-8.806h11.858l2.933 8.806h-12.278Z" fill="#1A2E35"/><path d="m258.109 231.553-2.513-8.806h11.858l2.933 8.806h-12.278Z" stroke="#fff" stroke-width="1.333" stroke-miterlimit="10" stroke-linecap="round" stroke-linejoin="round"/><path d="m98.487 231.553-2.883 8.604H82.915l3.292-8.604h12.28Z" fill="#1A2E35"/><path d="m98.487 231.553-2.883 8.604H82.915l3.292-8.604h12.28Z" stroke="#fff" stroke-width="1.333" stroke-miterlimit="10" stroke-linecap="round" stroke-linejoin="round"/><path d="m75.346 231.553 3.742-8.806h10.49l-3.37 8.806H75.346Z" fill="#1A2E35"/><path d="m75.346 231.553 3.742-8.806h10.49l-3.37 8.806H75.346Z" stroke="#fff" stroke-width="1.333" stroke-miterlimit="10" stroke-linecap="round" stroke-linejoin="round"/><path d="m86.208 231.553 3.37-8.806h11.859l-2.95 8.806h-12.28Z" fill="#1A2E35"/><path d="m86.208 231.553 3.37-8.806h11.859l-2.95 8.806h-12.28Z" stroke="#fff" stroke-width="1.333" stroke-miterlimit="10" stroke-linecap="round" stroke-linejoin="round"/><path d="m130.017 259.215-2.032 10.592h-14.104l2.537-10.592h13.599Z" fill="#1A2E35"/><path d="m130.017 259.215-2.032 10.592h-14.104l2.537-10.592h13.599Z" stroke="#fff" stroke-width="1.333" stroke-miterlimit="10" stroke-linecap="round" stroke-linejoin="round"/><path d="M85.673 269.807H71.568l4.054-10.592H89.22l-3.547 10.592Z" fill="#1A2E35"/><path d="M85.673 269.807H71.568l4.054-10.592H89.22l-3.547 10.592Z" stroke="#fff" stroke-width="1.333" stroke-miterlimit="10" stroke-linecap="round" stroke-linejoin="round"/><path d="m98.487 231.553 2.949-8.806h11.859l-2.53 8.806H98.487Z" fill="#1A2E35"/><path d="m98.487 231.553 2.949-8.806h11.859l-2.53 8.806H98.487Z" stroke="#fff" stroke-width="1.333" stroke-miterlimit="10" stroke-linecap="round" stroke-linejoin="round"/><path d="m102.819 259.215-3.043 10.592H85.672l3.549-10.592h13.598Z" fill="#1A2E35"/><path d="m102.819 259.215-3.043 10.592H85.672l3.549-10.592h13.598Z" stroke="#fff" stroke-width="1.333" stroke-miterlimit="10" stroke-linecap="round" stroke-linejoin="round"/><path d="m116.418 259.215-2.538 10.592H99.777l3.042-10.592h13.599Z" fill="#1A2E35"/><path d="m116.418 259.215-2.538 10.592H99.777l3.042-10.592h13.599Z" stroke="#fff" stroke-width="1.333" stroke-miterlimit="10" stroke-linecap="round" stroke-linejoin="round"/><path d="M92.523 249.356H79.394l3.522-9.199h12.688l-3.081 9.199Z" fill="#1A2E35"/><path d="M92.523 249.356H79.394l3.522-9.199h12.688l-3.081 9.199Z" stroke="#fff" stroke-width="1.333" stroke-miterlimit="10" stroke-linecap="round" stroke-linejoin="round"/><path d="m208.995 231.553-.832-8.806h11.858l1.252 8.806h-12.278Z" fill="#1A2E35"/><path d="m208.995 231.553-.832-8.806h11.858l1.252 8.806h-12.278Z" stroke="#fff" stroke-width="1.333" stroke-miterlimit="10" stroke-linecap="round" stroke-linejoin="round"/><path d="m110.766 231.553 2.529-8.806h11.859l-2.11 8.806h-12.278Z" fill="#1A2E35"/><path d="m110.766 231.553 2.529-8.806h11.859l-2.11 8.806h-12.278Z" stroke="#fff" stroke-width="1.333" stroke-miterlimit="10" stroke-linecap="round" stroke-linejoin="round"/><path d="m221.273 231.553-1.253-8.806h11.859l1.673 8.806h-12.279Z" fill="#1A2E35"/><path d="m221.273 231.553-1.253-8.806h11.859l1.673 8.806h-12.279Z" stroke="#fff" stroke-width="1.333" stroke-miterlimit="10" stroke-linecap="round" stroke-linejoin="round"/><path d="m184.437 231.553.008-8.806h11.858l.413 8.806h-12.279Z" fill="#1A2E35"/><path d="m184.437 231.553.008-8.806h11.858l.413 8.806h-12.279Z" stroke="#fff" stroke-width="1.333" stroke-miterlimit="10" stroke-linecap="round" stroke-linejoin="round"/><path d="m233.552 231.553-1.673-8.806h11.858l2.094 8.806h-12.279Z" fill="#1A2E35"/><path d="m233.552 231.553-1.673-8.806h11.858l2.094 8.806h-12.279Z" stroke="#fff" stroke-width="1.333" stroke-miterlimit="10" stroke-linecap="round" stroke-linejoin="round"/><path d="m245.831 231.553-2.094-8.806h11.859l2.513 8.806h-12.278Z" fill="#1A2E35"/><path d="m245.831 231.553-2.094-8.806h11.859l2.513 8.806h-12.278Z" stroke="#fff" stroke-width="1.333" stroke-miterlimit="10" stroke-linecap="round" stroke-linejoin="round"/><path d="m196.716 231.553-.413-8.806h11.859l.833 8.806h-12.279Z" fill="#1A2E35"/><path d="m196.716 231.553-.413-8.806h11.859l.833 8.806h-12.279Z" stroke="#fff" stroke-width="1.333" stroke-miterlimit="10" stroke-linecap="round" stroke-linejoin="round"/><path d="m123.044 231.553 2.11-8.806h11.858l-1.689 8.806h-12.279Z" fill="#1A2E35"/><path d="m123.044 231.553 2.11-8.806h11.858l-1.689 8.806h-12.279Z" stroke="#fff" stroke-width="1.333" stroke-miterlimit="10" stroke-linecap="round" stroke-linejoin="round"/><path d="m135.323 231.553 1.688-8.806h11.859l-1.269 8.806h-12.278Z" fill="#1A2E35"/><path d="m135.323 231.553 1.688-8.806h11.859l-1.269 8.806h-12.278Z" stroke="#fff" stroke-width="1.333" stroke-miterlimit="10" stroke-linecap="round" stroke-linejoin="round"/><path d="m159.88 231.553.849-8.806h11.858l-.428 8.806H159.88Z" fill="#1A2E35"/><path d="m159.88 231.553.849-8.806h11.858l-.428 8.806H159.88Z" stroke="#fff" stroke-width="1.333" stroke-miterlimit="10" stroke-linecap="round" stroke-linejoin="round"/><path d="M130.017 259.215h135.987l3.023 10.592H127.984l2.033-10.592Z" fill="#1A2E35"/><path d="M130.017 259.215H266.004l3.023 10.592H127.984l2.033-10.592Z" stroke="#fff" stroke-width="1.333" stroke-miterlimit="10" stroke-linecap="round" stroke-linejoin="round"/><path d="m147.601 231.553 1.269-8.806h11.859l-.849 8.806h-12.279Z" fill="#1A2E35"/><path d="m147.601 231.553 1.269-8.806h11.859l-.849 8.806h-12.279Z" stroke="#fff" stroke-width="1.333" stroke-miterlimit="10" stroke-linecap="round" stroke-linejoin="round"/><path d="M36.238 292.716h302.237v-4.302H36.238v4.302Z" fill="#1A2E35" stroke="#1A2E35" stroke-width="1.333" stroke-miterlimit="10" stroke-linecap="round" stroke-linejoin="round"/><path d="M276.374 81.331h-13.167" stroke="#1A2E35" stroke-width="4" stroke-miterlimit="10" stroke-linecap="round" stroke-linejoin="round"/><path d="M276.374 88.113h-49.465M199.863 88.113h-49.464" stroke="#fff" stroke-width="4" stroke-miterlimit="10" stroke-linecap="round" stroke-linejoin="round"/><path d="M223.706 88.113h-19.573M276.374 94.896h-28.469M244.346 94.896h-28.469M212.319 94.896H183.85M180.291 94.896h-12.099M259.648 81.331h-13.167M181.358 81.331h-13.166" stroke="#1A2E35" stroke-width="4" stroke-miterlimit="10" stroke-linecap="round" stroke-linejoin="round"/><path d="M198.796 81.331h-13.167" stroke="#fff" stroke-width="4" stroke-miterlimit="10" stroke-linecap="round" stroke-linejoin="round"/><path d="M242.923 81.331H204.49M276.374 122.74h-13.167" stroke="#1A2E35" stroke-width="4" stroke-miterlimit="10" stroke-linecap="round" stroke-linejoin="round"/><path d="M276.374 129.522h-49.465" stroke="#fff" stroke-width="4" stroke-miterlimit="10" stroke-linecap="round" stroke-linejoin="round"/><path d="M199.863 129.522h-49.464M223.706 129.522h-19.573M276.374 136.305h-28.469M244.346 136.305h-28.469" stroke="#1A2E35" stroke-width="4" stroke-miterlimit="10" stroke-linecap="round" stroke-linejoin="round"/><path d="M212.319 136.305H183.85" stroke="#fff" stroke-width="4" stroke-miterlimit="10" stroke-linecap="round" stroke-linejoin="round"/><path d="M180.291 136.305h-12.099M259.648 122.74h-13.167M181.358 122.74h-13.166" stroke="#1A2E35" stroke-width="4" stroke-miterlimit="10" stroke-linecap="round" stroke-linejoin="round"/><path d="M198.796 122.74h-13.167" stroke="#fff" stroke-width="4" stroke-miterlimit="10" stroke-linecap="round" stroke-linejoin="round"/><path d="M242.923 122.74H204.49M276.374 183.782h-13.167" stroke="#1A2E35" stroke-width="4" stroke-miterlimit="10" stroke-linecap="round" stroke-linejoin="round"/><path d="M276.374 190.565h-49.465" stroke="#fff" stroke-width="4" stroke-miterlimit="10" stroke-linecap="round" stroke-linejoin="round"/><path d="M199.863 190.565h-49.464M223.706 190.565h-19.573M276.374 197.348h-28.469M244.346 197.348h-28.469" stroke="#1A2E35" stroke-width="4" stroke-miterlimit="10" stroke-linecap="round" stroke-linejoin="round"/><path d="M212.319 197.348H183.85" stroke="#fff" stroke-width="4" stroke-miterlimit="10" stroke-linecap="round" stroke-linejoin="round"/><path d="M180.291 197.348h-12.099M259.648 183.782h-13.167M181.358 183.782h-13.166" stroke="#1A2E35" stroke-width="4" stroke-miterlimit="10" stroke-linecap="round" stroke-linejoin="round"/><path d="M198.796 183.782h-13.167" stroke="#fff" stroke-width="4" stroke-miterlimit="10" stroke-linecap="round" stroke-linejoin="round"/><path d="M242.923 183.782H204.49M202.354 102.035h-13.166M219.792 102.035h-13.167M263.918 102.035h-38.433M202.354 114.172h-13.166M219.792 114.172h-13.167" stroke="#1A2E35" stroke-width="4" stroke-miterlimit="10" stroke-linecap="round" stroke-linejoin="round"/><path d="M263.918 114.172h-38.433" stroke="#fff" stroke-width="4" stroke-miterlimit="10" stroke-linecap="round" stroke-linejoin="round"/><path d="M250.751 108.104h13.167M233.314 108.104h13.167" stroke="#1A2E35" stroke-width="4" stroke-miterlimit="10" stroke-linecap="round" stroke-linejoin="round"/><path d="M189.188 108.104h38.433" stroke="#fff" stroke-width="4" stroke-miterlimit="10" stroke-linecap="round" stroke-linejoin="round"/><path d="M202.354 144.515h-13.166M219.792 144.515h-13.167M263.918 144.515h-38.433M202.354 156.652h-13.166M219.792 156.652h-13.167" stroke="#1A2E35" stroke-width="4" stroke-miterlimit="10" stroke-linecap="round" stroke-linejoin="round"/><path d="M263.918 156.652h-38.433" stroke="#fff" stroke-width="4" stroke-miterlimit="10" stroke-linecap="round" stroke-linejoin="round"/><path d="M250.751 150.584h13.167M233.314 150.584h13.167" stroke="#1A2E35" stroke-width="4" stroke-miterlimit="10" stroke-linecap="round" stroke-linejoin="round"/><path d="M189.188 150.584h38.433" stroke="#fff" stroke-width="4" stroke-miterlimit="10" stroke-linecap="round" stroke-linejoin="round"/><path d="M250.751 163.792h13.167M233.314 163.792h13.167" stroke="#1A2E35" stroke-width="4" stroke-miterlimit="10" stroke-linecap="round" stroke-linejoin="round"/><path d="M189.188 163.792h38.433" stroke="#fff" stroke-width="4" stroke-miterlimit="10" stroke-linecap="round" stroke-linejoin="round"/><path d="M250.751 175.929h13.167M233.314 175.929h13.167" stroke="#1A2E35" stroke-width="4" stroke-miterlimit="10" stroke-linecap="round" stroke-linejoin="round"/><path d="M189.188 175.929h38.433" stroke="#fff" stroke-width="4" stroke-miterlimit="10" stroke-linecap="round" stroke-linejoin="round"/><path d="M202.354 169.86h-13.166M219.792 169.86h-13.167" stroke="#1A2E35" stroke-width="4" stroke-miterlimit="10" stroke-linecap="round" stroke-linejoin="round"/><path d="M263.918 169.86h-38.433" stroke="#fff" stroke-width="4" stroke-miterlimit="10" stroke-linecap="round" stroke-linejoin="round"/><path d="M281.258 83.14h4.203v-4.165h-4.203v4.165ZM281.258 89.984h4.203v-4.165h-4.203v4.165ZM281.258 96.826h4.203v-4.164h-4.203v4.164ZM281.258 103.669h4.203v-4.165h-4.203v4.165ZM281.258 110.511h4.203v-4.164h-4.203v4.164ZM281.258 117.354h4.203v-4.165h-4.203v4.165ZM281.258 124.197h4.203v-4.165h-4.203v4.165ZM281.258 131.039h4.203v-4.165h-4.203v4.165ZM281.258 137.882h4.203v-4.165h-4.203v4.165ZM281.258 144.725h4.203v-4.165h-4.203v4.165ZM281.258 151.568h4.203v-4.165h-4.203v4.165ZM281.258 158.41h4.203v-4.165h-4.203v4.165ZM281.258 165.253h4.203v-4.165h-4.203v4.165ZM281.258 172.096h4.203v-4.165h-4.203v4.165ZM281.258 178.938h4.203v-4.164h-4.203v4.164ZM281.258 185.781h4.203v-4.165h-4.203v4.165ZM281.258 192.624h4.203v-4.165h-4.203v4.165ZM281.258 199.467h4.203v-4.165h-4.203v4.165ZM85.555 4.15c25.221 0 45.666 20.51 45.666 45.809 0 13.016-5.42 24.755-14.11 33.095l6.499 12.17-15.938-5.187a45.33 45.33 0 0 1-22.117 5.73c-25.22 0-45.666-20.508-45.666-45.808 0-25.299 20.445-45.808 45.666-45.808Z" fill="#1A2E35"/><path d="M85.555 4.15c25.221 0 45.666 20.51 45.666 45.809 0 13.016-5.42 24.755-14.11 33.095l6.499 12.17-15.938-5.187a45.33 45.33 0 0 1-22.117 5.73c-25.22 0-45.666-20.508-45.666-45.808 0-25.299 20.445-45.808 45.666-45.808Z" stroke="#1A2E35" stroke-width="1.333" stroke-miterlimit="10" stroke-linecap="round" stroke-linejoin="round"/><path d="M87.73.879c25.22 0 45.666 20.509 45.666 45.809 0 13.015-5.421 24.754-14.11 33.093l6.499 12.17-15.938-5.185a45.343 45.343 0 0 1-22.117 5.73c-25.22 0-45.666-20.509-45.666-45.808 0-25.3 20.445-45.81 45.666-45.81Z" fill="#fff"/><path d="M87.73.879c25.22 0 45.666 20.509 45.666 45.809 0 13.015-5.421 24.754-14.11 33.093l6.499 12.17-15.938-5.185a45.343 45.343 0 0 1-22.117 5.73c-25.22 0-45.666-20.509-45.666-45.808 0-25.3 20.445-45.81 45.666-45.81Z" stroke="#1A2E35" stroke-width="1.333" stroke-miterlimit="10" stroke-linecap="round" stroke-linejoin="round"/><path d="m103.022 65.566 17.547-12.433v-6.586l-17.547-12.556v6.648l12.578 9.17-12.578 9.171v6.586ZM97.684 67.782 84.308 17.928h-5.705l13.436 49.854h5.645ZM73.265 65.566V58.98l-12.64-9.232 12.64-9.11v-6.647l-17.61 12.495v6.585l17.61 12.495Z" fill="#38BFF2"/><path d="m100.847 62.84 17.548-12.433V43.82l-17.548-12.556v6.647l12.578 9.17-12.578 9.172v6.585ZM95.51 65.055 82.134 15.201h-5.706l13.437 49.854h5.645ZM71.09 62.84v-6.586L58.45 47.02l12.64-9.11v-6.646L53.48 43.76v6.584L71.09 62.84ZM122.447 293.189l-27.65 22.898s-1.63 4.363-5.436 9.271c-3.806 4.907-48.385 23.449-48.385 23.449l-7.61 2.181 83.177-62.714 5.904 4.915Z" fill="#1A2E35"/><path d="m122.447 293.189-27.65 22.898s-1.63 4.363-5.436 9.271c-3.806 4.907-48.385 23.449-48.385 23.449l-7.61 2.181 83.177-62.714 5.904 4.915Z" stroke="#1A2E35" stroke-width="1.333" stroke-miterlimit="10" stroke-linecap="round" stroke-linejoin="round"/><path d="M68.598 275s7.418-9.094 10.715-14.883c3.297-5.788 7.968-19.292 11.539-27.284 3.572-7.992 8.792-10.473 15.111-12.953 6.319-2.481 8.792-1.93 8.792-.276 0 1.653-2.473 4.685-2.473 4.685l10.715 1.929s4.396-2.48 7.143-1.654c2.748.827 7.968 6.064 7.968 6.064s5.495-1.929 8.792-1.102c3.297.827 12.363 5.236 16.209 7.166 3.847 1.928 7.968 2.205 7.693 3.858-.274 1.654-4.121 4.409-7.693 3.859-3.571-.552-9.616-2.757-13.462-2.757-3.847 0-5.769.826-7.693 2.205-1.923 1.378-9.89 12.677-10.99 14.056-1.099 1.378-2.198 6.89-2.198 6.89s4.845-2.077 7.867-4.833c3.022-2.756 7.346-9.219 12.292-9.771 4.945-.551 10.338 3.856 7.591 6.061-2.748 2.203-5.495 3.582-7.419 6.062-1.923 2.481-4.945 9.922-10.165 17.914-5.22 7.993-16.485 12.953-16.485 12.953l-23.353 9.647s-6.044-14.332-17.308-18.19c-11.265-3.858-14.562-5.512-14.562-5.512L68.598 275Z" fill="#fff"/><path d="M68.598 275s7.418-9.094 10.715-14.883c3.297-5.788 7.968-19.292 11.539-27.284 3.572-7.992 8.792-10.473 15.111-12.953 6.319-2.481 8.792-1.93 8.792-.276 0 1.653-2.473 4.685-2.473 4.685l10.715 1.929s4.396-2.48 7.143-1.654c2.748.827 7.968 6.064 7.968 6.064s5.495-1.929 8.792-1.102c3.297.827 12.363 5.236 16.209 7.166 3.847 1.928 7.968 2.205 7.693 3.858-.274 1.654-4.121 4.409-7.693 3.859-3.571-.552-9.616-2.757-13.462-2.757-3.847 0-5.769.826-7.693 2.205-1.923 1.378-9.89 12.677-10.99 14.056-1.099 1.378-2.198 6.89-2.198 6.89s4.845-2.077 7.867-4.833c3.022-2.756 7.346-9.219 12.292-9.771 4.945-.551 10.338 3.856 7.591 6.061-2.748 2.203-5.495 3.582-7.419 6.062-1.923 2.481-4.945 9.922-10.165 17.914-5.22 7.993-16.485 12.953-16.485 12.953l-23.353 9.647s-6.044-14.332-17.308-18.19c-11.265-3.858-14.562-5.512-14.562-5.512L68.598 275Z" stroke="#1A2E35" stroke-width="1.333" stroke-miterlimit="10" stroke-linecap="round" stroke-linejoin="round"/><path d="M170.802 240.55s-2.679-.684-3.451-.943c-.771-.258-1.671-1.031-1.671-1.031M138.108 230.628s-12.656 7.1-16.226 9.029c-1.469.794-4.948 2.426-6.021 6.039-1.268 4.272-3.832 6.589-3.832 6.589M122.997 226.218s-12.363 9.647-13.188 9.922c-.824.275-3.846.551-5.22 3.032-1.373 2.48-2.747 5.236-2.747 5.236M112.282 224.289s-4.396-.826-6.044 2.481c-1.649 3.307-8.792 11.299-8.792 11.299M151.57 259.842s-3.296-1.653-1.648-4.134c1.648-2.481 4.945-2.481 4.945-2.481" stroke="#1A2E35" stroke-width="1.333" stroke-miterlimit="10" stroke-linecap="round" stroke-linejoin="round"/><path d="M69.148 271.417s14.835 3.858 24.177 14.332c9.341 10.472 9.341 19.291 8.517 20.669-.824 1.379-18.683 11.024-18.683 11.024s-10.99-21.221-18.682-26.457c-7.692-5.236-13.187-6.615-13.187-6.615s13.736-8.819 14.286-9.921c.55-1.103 1.649-3.858 3.572-3.032Z" fill="#38BFF2"/><path d="M69.148 271.417s14.835 3.858 24.177 14.332c9.341 10.472 9.341 19.291 8.517 20.669-.824 1.379-18.683 11.024-18.683 11.024s-10.99-21.221-18.682-26.457c-7.692-5.236-13.187-6.615-13.187-6.615s13.736-8.819 14.286-9.921c.55-1.103 1.649-3.858 3.572-3.032Z" stroke="#1A2E35" stroke-width="1.333" stroke-miterlimit="10" stroke-linecap="round" stroke-linejoin="round"/><path d="M27.386 354.373s15.112-7.717 18.683-9.646c3.572-1.929 28.024-15.159 28.024-15.159s3.022-.826 4.671-1.653c1.648-.826 4.12-.551 5.22-6.339 1.099-5.787-1.65-17.363-14.012-28.937-12.363-11.576-20.056-11.025-20.056-11.025s-5.22-.551-6.594.551c-1.374 1.103-1.648 4.41-3.022 4.962-1.374.55-39.39 11.981-39.39 11.981" fill="#38BFF2"/><path d="M27.386 354.373s15.112-7.717 18.683-9.646c3.572-1.929 28.024-15.159 28.024-15.159s3.022-.826 4.671-1.653c1.648-.826 4.12-.551 5.22-6.339 1.099-5.787-1.65-17.363-14.012-28.937-12.363-11.576-20.056-11.025-20.056-11.025s-5.22-.551-6.594.551c-1.374 1.103-1.648 4.41-3.022 4.962-1.374.55-39.39 11.981-39.39 11.981" stroke="#1A2E35" stroke-width="1.333" stroke-miterlimit="10" stroke-linecap="round" stroke-linejoin="round"/><path d="M70.521 311.93s1.648 8.269-2.198 15.158M66.674 322.679s1.648.55-2.746 7.717" stroke="#1A2E35" stroke-width="1.333" stroke-miterlimit="10" stroke-linecap="round" stroke-linejoin="round"/><path d="M235.978 268.867s18.107 21.588 23.544 25.951c5.436 4.364 10.329 7.09 10.329 7.09l19.571 19.632s-.544 2.727 4.893 5.999c5.436 3.272 16.309 7.09 19.028 8.18 2.718 1.091 32.617 14.724 32.617 14.724l-109.982-81.576Z" fill="#1A2E35"/><path d="M235.978 268.867s18.107 21.588 23.544 25.951c5.436 4.364 10.329 7.09 10.329 7.09l19.571 19.632s-.544 2.727 4.893 5.999c5.436 3.272 16.309 7.09 19.028 8.18 2.718 1.091 32.617 14.724 32.617 14.724l-109.982-81.576Z" stroke="#1A2E35" stroke-width="1.333" stroke-miterlimit="10" stroke-linecap="round" stroke-linejoin="round"/><path d="m239.024 254.161-3.618-11.077c-1.523 1.146-8.187 3.629-8.187 3.629 4.38 1.146 11.805 7.448 11.805 7.448Zm-29.32-18.334c1.904.572 8.758.191 8.758.191s4.189-3.247 6.283-5.157c2.094-1.91 7.425-13.177 10.09-13.751 2.665-.573 13.898 5.922 13.898 5.922s9.139-4.012 11.424-3.63c2.284.383 9.709 7.067 9.709 7.067s10.282-1.528 12.185 1.528c1.904 3.055 4.951 12.796 7.997 18.906 3.046 6.112 14.088 22.346 14.088 22.346l1.523 2.101s-2.284.763-9.329 4.392c-7.044 3.629-18.277 20.818-18.277 20.818s-15.612-7.258-24.369-11.269c-8.758-4.011-15.803-12.795-17.706-16.424-1.905-3.629-5.141-7.067-9.139-10.314-3.998-3.245-11.423-4.583-13.137-6.875-1.713-2.292 1.142-5.73 1.142-5.73s-2.093-1.146-3.046-1.909c-.952-.764-4.76-2.865-5.141-5.157-.38-2.291 1.143-3.628 3.047-3.055Z" fill="#fff"/><path d="m239.024 254.161-3.618-11.077c-1.523 1.146-8.187 3.629-8.187 3.629 4.38 1.146 11.805 7.448 11.805 7.448Zm-29.32-18.334c1.904.572 8.758.191 8.758.191s4.189-3.247 6.283-5.157c2.094-1.91 7.425-13.177 10.09-13.751 2.665-.573 13.898 5.922 13.898 5.922s9.139-4.012 11.424-3.63c2.284.383 9.709 7.067 9.709 7.067s10.282-1.528 12.185 1.528c1.904 3.055 4.951 12.796 7.997 18.906 3.046 6.112 14.088 22.346 14.088 22.346l1.523 2.101s-2.284.763-9.329 4.392c-7.044 3.629-18.277 20.818-18.277 20.818s-15.612-7.258-24.369-11.269c-8.758-4.011-15.803-12.795-17.706-16.424-1.905-3.629-5.141-7.067-9.139-10.314-3.998-3.245-11.423-4.583-13.137-6.875-1.713-2.292 1.142-5.73 1.142-5.73s-2.093-1.146-3.046-1.909c-.952-.764-4.76-2.865-5.141-5.157-.38-2.291 1.143-3.628 3.047-3.055v0Z" stroke="#1A2E35" stroke-width="1.333" stroke-miterlimit="10" stroke-linecap="round" stroke-linejoin="round"/><path d="M277.101 239.073s.571-3.246.19-4.392c-.38-1.146-7.424-8.212-7.424-8.212M271.009 242.893l-1.524-4.965-20.752-14.897M260.728 246.522s-.762-4.775-1.714-5.539c-.952-.763-8.187-2.483-8.187-2.483s-11.042-9.549-12.946-9.549-15.802 7.448-19.419 7.067M212.37 236.781s2.479.009 1.147 1.537c-1.333 1.527-4.189.764-5.522.382M227.22 246.713s-6.854-4.011-12.376-.764M216.558 247.095l3.808 1.337s-1.524 3.055-1.714 4.201l-.19 1.146M239.024 254.161l3.427 7.639" stroke="#1A2E35" stroke-width="1.333" stroke-miterlimit="10" stroke-linecap="round" stroke-linejoin="round"/><path d="M329.458 283.763s-11.994-7.829-16.373-11.076c-4.379-3.247-6.664-2.675-8.949-3.438-2.285-.764-13.707 2.674-21.323 12.223-7.616 9.549-6.854 16.615-5.902 18.526.952 1.908 24.94 16.423 24.94 16.423s3.427-13.751 13.518-21.962c10.091-8.212 14.089-10.696 14.089-10.696Z" fill="#38BFF2"/><path d="M329.458 283.763s-11.994-7.829-16.373-11.076c-4.379-3.247-6.664-2.675-8.949-3.438-2.285-.764-13.707 2.674-21.323 12.223-7.616 9.549-6.854 16.615-5.902 18.526.952 1.908 24.94 16.423 24.94 16.423s3.427-13.751 13.518-21.962c10.091-8.212 14.089-10.696 14.089-10.696Z" stroke="#1A2E35" stroke-width="1.333" stroke-miterlimit="10" stroke-linecap="round" stroke-linejoin="round"/><path d="M377.436 306.612s-22.22-13.62-25.923-15.856c-3.703-2.236-7.991-5.286-7.991-5.286s-1.17-5.895-6.822-6.098c-5.652-.204-11.11 2.033-18.516 6.098-7.406 4.067-16.568 18.906-17.542 24.801-.974 5.896-2.923 7.725-1.364 11.587 1.559 3.863 7.406 4.066 8.576 4.066 1.169 0 3.898 2.44 3.898 2.44l41.71 27.241" fill="#38BFF2"/><path d="M377.436 306.612s-22.22-13.62-25.923-15.856c-3.703-2.236-7.991-5.286-7.991-5.286s-1.17-5.895-6.822-6.098c-5.652-.204-11.11 2.033-18.516 6.098-7.406 4.067-16.568 18.906-17.542 24.801-.974 5.896-2.923 7.725-1.364 11.587 1.559 3.863 7.406 4.066 8.576 4.066 1.169 0 3.898 2.44 3.898 2.44l41.71 27.241" stroke="#1A2E35" stroke-width="1.333" stroke-miterlimit="10" stroke-linecap="round" stroke-linejoin="round"/><path d="M308.491 315.574s-1.744 1.299 1.744 6.755M310.982 318.172s.249 5.716 5.48 10.911" stroke="#1A2E35" stroke-width="1.333" stroke-miterlimit="10" stroke-linecap="round" stroke-linejoin="round"/></svg>