<svg width="271" height="231" viewBox="0 0 382 326" fill="none" xmlns="http://www.w3.org/2000/svg"><path d="M322.878 100.903a20.72 20.72 0 0 0 10.412-6.022l6.657 2.251 3.321-5.752-5.275-4.635c.581-1.904.889-3.921.889-6.017 0-2.09-.308-4.111-.889-6.011l5.275-4.64-3.321-5.753-6.657 2.251a20.692 20.692 0 0 0-10.412-6.017l-1.382-6.885h-3.32" stroke="#1A2E35" stroke-width="1.333" stroke-miterlimit="10"/><path d="m314.855 53.672-1.378 6.886a20.697 20.697 0 0 0-10.416 6.017l-6.656-2.251-3.322 5.753 5.274 4.639a20.708 20.708 0 0 0-.888 6.012c0 2.096.312 4.112.888 6.016l-5.274 4.636 3.322 5.752 6.656-2.25a20.747 20.747 0 0 0 10.416 6.021l1.378 6.886h6.641l1.383-6.886" stroke="#1A2E35" stroke-width="1.333" stroke-miterlimit="10"/><path d="M317.756 91.806c-11.842-.828-14.066-18.069-2.23-21.097M325.244 73.08c5.892 5.4 4.027 15.936-3.827 18.316M319.525 70.463c1.028.128 2.035.404 2.982.825M358.156 106.145l1.397-1.676a13.66 13.66 0 0 0 7.92-.201l3.14 3.393M352.997 79.962l.607 1.652a13.612 13.612 0 0 0-3.781 6.96l-4.513 1.024.112 4.372 4.559.793a13.556 13.556 0 0 0 1.567 3.68 13.642 13.642 0 0 0 2.568 3.074l-1.37 4.415 3.844 2.089M370.614 107.662l3.729-2.283-1.591-4.342a13.657 13.657 0 0 0 3.777-6.96l4.511-1.025-.113-4.372-4.554-.79a13.557 13.557 0 0 0-1.57-3.683 13.49 13.49 0 0 0-2.565-3.071l1.366-4.418-3.842-2.09-2.964 3.553a13.625 13.625 0 0 0-7.916.201l-3.143-3.392-3.73 2.284" stroke="#1A2E35" stroke-width="1.333" stroke-miterlimit="10"/><path d="M370.06 89.717c1.289 5.427-3.863 10.649-9.311 8.445-5.195-2.101-5.951-9.72-1.131-12.648M365.603 84.85a6.955 6.955 0 0 1 2.863 1.84M66.32 197.093l7.092 7.093a7.651 7.651 0 0 0 2.037 7.158 7.653 7.653 0 0 0 7.157 2.036l-4.454-4.456 1.207-4.505 4.506-1.208 4.454 4.455a7.65 7.65 0 0 0-2.035-7.158 7.648 7.648 0 0 0-7.158-2.035l-6.531-6.532M62.217 181.563l-6.51-6.51a7.65 7.65 0 0 0-2.035-7.157 7.649 7.649 0 0 0-7.158-2.035l4.454 4.455-1.206 4.505-4.506 1.208-4.456-4.455a7.644 7.644 0 0 0 9.195 9.193l6.509 6.51M69.525 188.411l9.077-9.076a6.096 6.096 0 0 1 1.518-1.111l1.827-.944 6.573-7.512-4.108-4.108-7.512 6.573-.944 1.828a6.116 6.116 0 0 1-1.11 1.517l-7.199 7.199M45.371 212.216c1.328.702 2.693.708 3.946-.545l15.728-15.728c.873-.872 1.129-1.8.97-2.73l2.727-2.728.166.166a1.014 1.014 0 0 0 1.428.001 1.014 1.014 0 0 0 0-1.429l-5.38-5.38a1.012 1.012 0 0 0-1.427 0 1.014 1.014 0 0 0 0 1.429l.166.166-2.726 2.727c-.932-.158-1.86.098-2.732.971L42.51 204.864c-.826.826-1.105 1.703-.997 2.584M42.14 209.116c.336.551.786 1.094 1.309 1.617.62.618 1.267 1.136 1.922 1.483M46.98 207.447l2.744-2.745M53.439 200.988l11.61-11.859" stroke="#1A2E35" stroke-width="1.333" stroke-miterlimit="10"/><path d="M306.868.428H55.117v163.555h251.751V.428Z" fill="#fff"/><path d="M306.868.428H55.118v163.554h251.75V.428Z" fill="silver"/><path d="M55.118 21.825h251.751V.428H55.118v21.396Z" fill="#fff"/><path d="M55.118 21.825h251.751V.428H55.118v21.396Z" fill="#767676"/><path d="M299.153 18.416h-9.639a2.47 2.47 0 0 1-2.471-2.47v-9.64a2.47 2.47 0 0 1 2.471-2.47h9.639a2.47 2.47 0 0 1 2.47 2.47v9.64a2.47 2.47 0 0 1-2.47 2.47ZM281.262 18.416h-9.592a2.495 2.495 0 0 1-2.494-2.495v-9.59a2.494 2.494 0 0 1 2.494-2.495h9.592a2.494 2.494 0 0 1 2.495 2.494v9.591a2.495 2.495 0 0 1-2.495 2.495ZM263.417 18.416h-9.637a2.47 2.47 0 0 1-2.471-2.471V6.308a2.47 2.47 0 0 1 2.471-2.472h9.637a2.47 2.47 0 0 1 2.471 2.472v9.637a2.47 2.47 0 0 1-2.471 2.471Z" fill="#fff"/><path d="M64.56 36.193v113.421a4.925 4.925 0 0 0 4.925 4.926h223.016a4.926 4.926 0 0 0 4.925-4.926V36.194a4.926 4.926 0 0 0-4.925-4.926H69.485a4.925 4.925 0 0 0-4.924 4.925Z" fill="#1A2E35"/><path d="M64.56 36.193v113.421a4.925 4.925 0 0 0 4.925 4.926h223.016a4.926 4.926 0 0 0 4.925-4.926V36.194a4.926 4.926 0 0 0-4.925-4.926H69.485a4.925 4.925 0 0 0-4.924 4.925ZM291.205 14.253l6.255-6.255M291.205 7.998l6.255 6.255M280.636 15.296h-8.34V9.789h8.34v5.507ZM262.768 15.297h-8.34" stroke="#1A2E35" stroke-width="1.333" stroke-miterlimit="10" stroke-linecap="round" stroke-linejoin="round"/><path d="M282.78 115.066h-16.549a1.89 1.89 0 0 1 0-3.778h16.549a1.89 1.89 0 0 1 0 3.778ZM282.78 128.128h-46.204a1.89 1.89 0 0 1 0-3.777h46.204a1.889 1.889 0 0 1 0 3.777ZM282.779 141.191H180.993a1.89 1.89 0 0 1 0-3.778h101.786a1.89 1.89 0 0 1 0 3.778Z" fill="#767676"/><path d="M82.028 102.003h-7.71a1.889 1.889 0 0 1 0-3.778h7.71a1.89 1.89 0 0 1 0 3.778ZM82.028 115.066h-7.71a1.89 1.89 0 0 1 0-3.778h7.71a1.89 1.89 0 0 1 0 3.778ZM82.028 128.128h-7.71a1.889 1.889 0 0 1 0-3.777h7.71a1.889 1.889 0 0 1 0 3.777ZM82.028 141.191h-7.71a1.889 1.889 0 0 1 0-3.777h7.71a1.889 1.889 0 0 1 0 3.777Z" fill="silver"/><path opacity=".7" d="M82.029 102.002h-7.71a1.889 1.889 0 0 1 0-3.777h7.71a1.89 1.89 0 0 1 0 3.777ZM82.028 115.066h-7.71a1.889 1.889 0 0 1 0-3.777h7.71a1.889 1.889 0 0 1 0 3.777ZM82.028 128.128h-7.71a1.889 1.889 0 0 1 0-3.777h7.71a1.889 1.889 0 0 1 0 3.777ZM82.028 141.191h-7.71a1.889 1.889 0 0 1 0-3.777h7.71a1.889 1.889 0 0 1 0 3.777Z" fill="silver"/><path d="M236.576 88.94H74.318a1.89 1.89 0 0 1 0-3.777h162.258a1.89 1.89 0 0 1 0 3.777ZM282.78 62.815h-16.549a1.888 1.888 0 0 1 0-3.777h16.549a1.89 1.89 0 0 1 0 3.777ZM259.305 62.815h-15.804a1.889 1.889 0 1 1 0-3.777h15.804a1.89 1.89 0 0 1 0 3.777ZM236.576 62.815H74.318a1.89 1.89 0 0 1 0-3.777h162.258a1.89 1.89 0 0 1 1.889 1.888 1.89 1.89 0 0 1-1.889 1.889Z" fill="silver"/><path d="M282.78 102.003h-16.55a1.888 1.888 0 0 1 0-3.778h16.55a1.89 1.89 0 0 1 0 3.778ZM259.306 102.003H90.526a1.89 1.89 0 0 1 0-3.778h168.78a1.89 1.89 0 0 1 0 3.778ZM139 115.066H90.526a1.89 1.89 0 0 1 0-3.778H139a1.89 1.89 0 0 1 0 3.778ZM138.999 128.128H90.526a1.889 1.889 0 0 1 0-3.777H139a1.89 1.89 0 0 1 0 3.777ZM138.999 141.191H90.526a1.889 1.889 0 0 1 0-3.777H139a1.89 1.89 0 0 1 0 3.777Z" fill="#BBB"/><path d="M107.167 308.719s-4.954 8.524-3.003 8.833c1.95.306 6.031-7.063 6.031-7.063l11.189-2.966-8.428-.87-5.789 2.066Z" fill="#fff"/><path d="M107.167 308.719s-4.954 8.524-3.003 8.833c1.95.306 6.031-7.063 6.031-7.063l11.189-2.966-8.428-.87-5.789 2.066Z" stroke="#1A2E35" stroke-width="1.333" stroke-miterlimit="10" stroke-linecap="round" stroke-linejoin="round"/><g opacity=".3"><path opacity=".3" d="M107.166 308.72s-4.954 8.524-3.003 8.833c1.95.306 6.031-7.063 6.031-7.063l11.189-2.966-8.427-.87-5.79 2.066Z" fill="#000"/><path opacity=".3" d="M107.166 308.72s-4.954 8.524-3.003 8.833c1.95.306 6.031-7.063 6.031-7.063l11.189-2.966-8.427-.87-5.79 2.066Z" stroke="#1A2E35" stroke-width="1.333" stroke-miterlimit="10" stroke-linecap="round" stroke-linejoin="round"/></g><path d="M110.933 302.907s-6.927-1.649-8.839 1.604c-1.913 3.255-7.521 12.884-5.418 13.987 2.102 1.103 3.933-2.458 3.933-2.458l10.324-13.133Z" fill="#fff"/><path d="M110.933 302.907s-6.927-1.649-8.839 1.604c-1.913 3.255-7.521 12.884-5.418 13.987 2.102 1.103 3.933-2.458 3.933-2.458l10.324-13.133Z" stroke="#1A2E35" stroke-width="1.333" stroke-miterlimit="10" stroke-linecap="round" stroke-linejoin="round"/><path d="M139.282 312.782s-6.953 2.627-14.204 1.492l-7.887 2.621s-6.93 3.413-10.154 1.692c-3.224-1.721 8.216-5.516 8.216-5.516s7.695-3.329 5.397-4.128c-2.298-.801-10.978-.65-12.686.659-1.707 1.309-6.178 9.785-9.405 9.301-3.226-.482 1.364-5.098 2.523-6.875 1.159-1.778 3.76-8.863 9.031-9.158 5.272-.296 23.009.613 23.009.613l20.859-2.229 4.921 11.865-19.62-.337Z" fill="#fff"/><path d="M139.282 312.782s-6.953 2.627-14.204 1.492l-7.887 2.621s-6.93 3.413-10.154 1.692c-3.224-1.721 8.216-5.516 8.216-5.516s7.695-3.329 5.397-4.128c-2.298-.801-10.978-.65-12.686.659-1.707 1.309-6.178 9.785-9.405 9.301-3.226-.482 1.364-5.098 2.523-6.875 1.159-1.778 3.76-8.863 9.031-9.158 5.272-.296 23.009.613 23.009.613l20.859-2.229 4.921 11.865-19.62-.337Z" stroke="#1A2E35" stroke-width="1.333" stroke-miterlimit="10" stroke-linecap="round" stroke-linejoin="round"/><path d="M150.168 315.72c1.009.637 2.435 1.041 3.978-.06 0 0 2.258.983 3.782-.695 1.526-1.677 1.66-16.339-2.558-17.992-1.216-.476-4.254-.427-4.753 1.275 0 0-2.621-.901-3.065 1.909-.417 2.644 2.209 5.106 1.33 12.712-.13 1.125.379 2.28 1.286 2.851Z" fill="#38BFF2"/><path d="M150.168 315.72c1.009.637 2.435 1.041 3.978-.06 0 0 2.258.983 3.782-.695 1.526-1.677 1.66-16.339-2.558-17.992-1.216-.476-4.254-.427-4.753 1.275 0 0-2.621-.901-3.065 1.909-.417 2.644 2.209 5.106 1.33 12.712-.13 1.125.379 2.28 1.286 2.851Z" stroke="#1A2E35" stroke-width="1.333" stroke-miterlimit="10" stroke-linecap="round" stroke-linejoin="round"/><g opacity=".3"><path opacity=".3" d="M150.169 315.72c1.008.636 2.434 1.04 3.977-.061 0 0 2.259.983 3.783-.695 1.525-1.677 1.659-16.339-2.558-17.991-1.217-.476-4.254-.427-4.754 1.275 0 0-2.621-.901-3.065 1.909-.416 2.644 2.21 5.106 1.33 12.712-.13 1.125.379 2.279 1.287 2.851Z" fill="#000"/><path opacity=".3" d="M150.169 315.72c1.008.636 2.434 1.04 3.977-.061 0 0 2.259.983 3.783-.695 1.525-1.677 1.659-16.339-2.558-17.991-1.217-.476-4.254-.427-4.754 1.275 0 0-2.621-.901-3.065 1.909-.416 2.644 2.21 5.106 1.33 12.712-.13 1.125.379 2.279 1.287 2.851Z" stroke="#1A2E35" stroke-width="1.333" stroke-miterlimit="10" stroke-linecap="round" stroke-linejoin="round"/></g><path d="M154.981 312.301s.123-6.356-2.492-11.583" stroke="#1A2E35" stroke-width="1.333" stroke-miterlimit="10" stroke-linecap="round" stroke-linejoin="round"/><path d="M254.257 306.974a1314.641 1314.641 0 0 1-2.399 17.507h-81.056l.386-10.444c-4.844 1.172-14.259.453-14.259.453v-15.439c5.723-3.238 6.573-2.331 6.573-2.331s.292-37.678 3.721-47.083c1.454-3.984 4.003-6.826 6.703-8.82v-.008a22.992 22.992 0 0 1 2.56-1.653c.047-.029.084-.048.123-.075.944-.502 2.086-1.03 3.389-1.577.113-.049.236-.096.359-.143 12.691-5.184 40.388-11.199 66.195-.169 1.803.773 16.535 7.808 17.791 17.979.717 5.797-3.23 34.636-10.086 51.803Z" fill="#38BFF2"/><path opacity=".2" d="m241.416 260.524-8.083 37.516c-1.256-.991-4.873-1.058-9.472-.623a14.743 14.743 0 0 0 2.446-3.664c12.219-26.44 14.891-32.7 15.109-33.229ZM256.184 301.743c-2.341 8.348-3.37 15.95-4.325 22.738h-81.057l.746-12.029c5.051-.719 13.918-1.454 23.125-3.089 1.172 4.864.217 8.792.217 8.792s37.281 4.626 49.793 1.615c3.57-.859 6.799-5.846 9.565-12.71a96.383 96.383 0 0 0 1.936-5.317Z" fill="#000"/><path opacity=".3" d="M164.471 297.432s-1.815-1.619-7.546 1.624v15.439s9.446-.338 13.152-2.344c3.188 1.972 2.621-34.162 3.188-53.626-4.627 1.271-4.998 10.077-5.712 18.359-.986 11.416-3.082 20.548-3.082 20.548Z" fill="#000"/><path d="M254.257 306.974c-.698 5.373-1.492 11.19-2.399 17.507h-81.057l.387-10.444c-4.845 1.172-14.259.453-14.259.453v-15.439c5.722-3.238 6.573-2.331 6.573-2.331s.292-37.678 3.721-47.083c1.454-3.984 4.002-6.827 6.703-8.82v-.009a23.03 23.03 0 0 1 2.56-1.652c.046-.029.084-.048.123-.076.944-.501 2.086-1.029 3.389-1.577.113-.048.236-.095.359-.142 12.691-5.184 40.388-11.199 66.195-.169 1.803.773 16.535 7.808 17.791 17.979.716 5.797-3.23 34.636-10.086 51.803Z" stroke="#1A2E35" stroke-width="1.333" stroke-miterlimit="10" stroke-linecap="round" stroke-linejoin="round"/><path d="M264.342 255.171c.028.226.057.491.066.784.416 7.252-3.531 34.616-10.16 51.105-2.767 6.865-5.996 11.85-9.566 12.71-12.511 3.012-49.792-1.615-49.792-1.615s1.851-7.649-2.786-14.825c0 0 36.601-8.952 41.228-5.289l8.101-37.554" stroke="#1A2E35" stroke-width="1.333" stroke-miterlimit="10" stroke-linecap="round" stroke-linejoin="round"/><path d="M235.88 300.086s3.474 1.39 6.485 5.559" stroke="#1A2E35" stroke-width="1.333" stroke-miterlimit="10" stroke-linecap="round" stroke-linejoin="round"/><path d="M142.637 301.435s-3.41-.718-4.8.835c-1.45 1.62-7.335 10.493-5.325 12.197 2.008 1.703 6.098-7.643 6.098-7.643l4.027-5.389Z" fill="#fff"/><path d="M142.637 301.435s-3.41-.718-4.8.835c-1.45 1.62-7.335 10.493-5.325 12.197 2.008 1.703 6.098-7.643 6.098-7.643l4.027-5.389Z" stroke="#1A2E35" stroke-width="1.333" stroke-miterlimit="10" stroke-linecap="round" stroke-linejoin="round"/><path d="M149.496 301.273s-7.583-1.628-9.282.688c-1.697 2.315-11.253 14.282-5.308 14.669l9.494-10.655 5.096-4.702Z" fill="#fff"/><path d="M149.496 301.273s-7.583-1.628-9.282.688c-1.697 2.315-11.253 14.282-5.308 14.669l9.494-10.655 5.096-4.702Z" stroke="#1A2E35" stroke-width="1.333" stroke-miterlimit="10" stroke-linecap="round" stroke-linejoin="round"/><path d="M166.627 314.003s-7.79 1.699-10.955 2.317c-3.166.616-9.033 4.708-12.507 3.088-3.473-1.622 11.349-7.643 11.349-7.643l5.094-2.052 7.019 4.29Z" fill="silver"/><path d="M166.627 314.003s-7.79 1.699-10.955 2.317c-3.166.616-9.033 4.708-12.507 3.088-3.473-1.622 11.349-7.643 11.349-7.643l5.094-2.052 7.019 4.29ZM172.934 267.386l.331-8.862M170.802 324.481c1.444-17.875 1.982-53.073 1.982-53.073" stroke="#1A2E35" stroke-width="1.333" stroke-miterlimit="10" stroke-linecap="round" stroke-linejoin="round"/><path d="M194.888 304.354h-26.865s-20.844-6.253-24.318-1.39c-3.474 4.864-10.884 12.275-8.8 13.665 2.085 1.389 10.884-8.685 10.884-8.685l7.643.072s-6.485 2.822-7.874 4.212c-1.389 1.39-4.4 5.326-2.779 6.022 1.621.694 6.716-4.4 6.716-4.4s7.643-1.853 9.495-.928c1.853.928 9.264 4.632 19.222 1.853l20.5 2.548-3.824-12.969Z" fill="#fff"/><path d="M194.888 304.354h-26.865s-20.844-6.253-24.318-1.39c-3.474 4.864-10.884 12.275-8.8 13.665 2.085 1.389 10.884-8.685 10.884-8.685l7.643.072s-6.485 2.822-7.874 4.212c-1.389 1.39-4.4 5.326-2.779 6.022 1.621.694 6.716-4.4 6.716-4.4s7.643-1.853 9.495-.928c1.853.928 9.264 4.632 19.222 1.853l20.5 2.548-3.824-12.969ZM238.629 273.49a39.846 39.846 0 0 1-.085-13.003M244.723 250.97s13.033-17.17 19.619 4.201" stroke="#1A2E35" stroke-width="1.333" stroke-miterlimit="10" stroke-linecap="round" stroke-linejoin="round"/><path d="M189.377 302.237c.82-.865 2.1-1.61 3.868-.928 0 0 1.943-1.512 3.838-.267 1.893 1.247 5.663 15.415 1.989 18.062-1.059.765-4.014 1.471-4.92-.052 0 0-2.316 1.523-3.444-1.089-1.061-2.457.872-5.494-1.869-12.644-.405-1.057-.199-2.302.538-3.082Z" fill="#38BFF2"/><path opacity=".3" d="M189.377 302.238c.82-.866 2.101-1.611 3.868-.928 0 0 1.944-1.513 3.838-.267 1.893 1.247 5.664 15.415 1.989 18.062-1.059.765-4.014 1.471-4.92-.052 0 0-2.316 1.523-3.444-1.09-1.06-2.457.872-5.494-1.869-12.644-.405-1.056-.199-2.301.538-3.081Z" fill="#000"/><path d="M189.377 302.237c.82-.866 2.101-1.611 3.868-.928 0 0 1.944-1.513 3.838-.267 1.893 1.247 5.664 15.415 1.989 18.062-1.059.765-4.014 1.471-4.92-.052 0 0-2.316 1.523-3.444-1.09-1.06-2.457.872-5.493-1.869-12.644-.405-1.056-.199-2.301.538-3.081Z" stroke="#1A2E35" stroke-width="1.333" stroke-miterlimit="10" stroke-linecap="round" stroke-linejoin="round"/><path d="M195.342 309.592c.313 2.198.391 4.442.077 6.645" stroke="#1A2E35" stroke-width="1.333" stroke-miterlimit="10" stroke-linecap="round" stroke-linejoin="round"/><path d="M207.154 267.187a1.839 1.839 0 1 1-3.671-.211 1.839 1.839 0 0 1 3.671.211Z" fill="#fff"/><path d="M207.154 267.187a1.839 1.839 0 1 1-3.671-.211 1.839 1.839 0 0 1 3.671.211Z" stroke="#1A2E35" stroke-width="1.333" stroke-miterlimit="10" stroke-linecap="round" stroke-linejoin="round"/><path d="M205.829 295.698a1.836 1.836 0 0 1-1.942 1.729 1.839 1.839 0 1 1 1.942-1.729Z" fill="#fff"/><path d="M205.829 295.698a1.836 1.836 0 0 1-1.942 1.729 1.839 1.839 0 1 1 1.942-1.729Z" stroke="#1A2E35" stroke-width="1.333" stroke-miterlimit="10" stroke-linecap="round" stroke-linejoin="round"/><path d="m222.69 232.259-1.351-19.023-19.684 4.558-1.049 15.278c-1.242.155-2.424.329-3.577.507l4.813 11.542 9.413 1.236 15.052-13.872a138.15 138.15 0 0 0-3.617-.226Z" fill="#fff"/><path d="M201.363 224.532c.129 13.533 15.948 9.382 20.323-4.137l-.346-7.16-19.684 4.557-.293 6.74Z" fill="#1A2E35"/><path d="m222.69 232.258-1.35-19.023-19.685 4.558-1.049 15.278c-1.241.155-2.424.329-3.577.507l4.813 11.542 9.413 1.236 15.053-13.872a138.224 138.224 0 0 0-3.618-.226Z" stroke="#1A2E35" stroke-width="1.333" stroke-miterlimit="10" stroke-linecap="round" stroke-linejoin="round"/><path d="M189.299 197.176s-7.189-12.448-8.255-19.013c-3.29-20.273 11.348-13.432 11.348-13.432s10.349-9.264 23.239-7.643c12.889 1.622 16.285 7.106 24.959 10.477 0 0-6.512 33.062-14.849 40.474-8.337 7.411-36.442-10.863-36.442-10.863Z" fill="#1A2E35"/><path d="M189.299 197.176s-7.189-12.448-8.255-19.013c-3.29-20.273 11.348-13.432 11.348-13.432s10.349-9.264 23.239-7.643c12.889 1.622 16.285 7.106 24.959 10.477 0 0-6.512 33.062-14.849 40.474-8.337 7.411-36.442-10.863-36.442-10.863Z" stroke="#1A2E35" stroke-width="1.333" stroke-miterlimit="10" stroke-linecap="round" stroke-linejoin="round"/><path d="M193.087 167.742s-3.243-7.874 4.979-13.896" stroke="#1A2E35" stroke-width="1.333" stroke-miterlimit="10" stroke-linecap="round" stroke-linejoin="round"/><path d="M207.234 163.011c9.624-4.254 13.912 2.86 24.653 4.731M199.803 167.742c.846-1.114 1.948-2.036 3.121-2.791M209.679 170.827s4.162-4 12.423 1.197c4.526 2.846 8.249 3.252 8.249 3.252" stroke="silver" stroke-width="1.333" stroke-miterlimit="10"/><path d="M222.409 179.475c-11.979.309-24.343-5.095-24.343-5.095-11.159 6.73-9.502 17.677-9.502 17.677 2.55 26.155 5.998 33.119 18.219 33.119 12.143 0 22.154-13.181 22.949-32.053-4.624.219-7.323-13.648-7.323-13.648Z" fill="#fff"/><path d="M222.409 179.475c-11.979.309-24.343-5.095-24.343-5.095-11.159 6.73-9.502 17.677-9.502 17.677 2.55 26.155 5.998 33.119 18.219 33.119 12.143 0 22.154-13.181 22.949-32.053-4.624.219-7.323-13.648-7.323-13.648Z" stroke="#1A2E35" stroke-width="1.333" stroke-miterlimit="10" stroke-linecap="round" stroke-linejoin="round"/><path d="M228.705 192.058c.673-.869 1.526-1.389 2.454-1.389 2.174 0 3.782 2.857 3.011 6.369-.756 3.436-1.762 6.37-3.937 6.37-1.022 0-1.747-.629-2.231-1.661" fill="#fff"/><path d="M228.705 192.058c.673-.869 1.526-1.389 2.454-1.389 2.174 0 3.782 2.857 3.011 6.369-.756 3.436-1.762 6.37-3.937 6.37-1.022 0-1.747-.629-2.231-1.661" stroke="#1A2E35" stroke-width="1.333" stroke-miterlimit="10" stroke-linecap="round" stroke-linejoin="round"/><path d="M204.902 204.895s1.462 2.004-1.34 3.508c-2.801 1.503-5.04 1.472-5.756-.246-.716-1.718 2.403-16.032 2.403-16.032" stroke="#1A2E35" stroke-width="1.333" stroke-linecap="round" stroke-linejoin="round"/><path d="M199.735 194.395c-1.511-.764-7.564-3.408-13.296.199l.369 5.552s2.115 1.162 6.969 1.162c2.19 0 3.72-.236 4.73-.491M204.75 194.597l1.756 5.788s.718.944 5.581.944 6.459-1.161 6.459-1.161l-.142-5.552s-7.054-4.184-13.654-.019ZM200.123 194.597h4.627M201.107 213.65s3.773 1.244 7.696-.234c3.171-1.194 4.789-3.609 4.789-3.609M208.798 189.119c6.074-2.505 8.753.501 8.753.501M192.776 188.873a6.134 6.134 0 0 1 6.493.747" stroke="#1A2E35" stroke-width="1.333" stroke-linecap="round" stroke-linejoin="round"/><path d="M211.218 193.341c.562 0 .961.899.961 2.045 0 1.145-.47 2.045-1.022 2.045s-.952-.94-.952-2.045c.021-1.114.45-2.045 1.013-2.045ZM196.14 193.085c.552 0 .951.9.951 2.046 0 1.145-.47 2.045-1.023 2.045-.552 0-.951-.941-.951-2.045.032-1.104.471-2.046 1.023-2.046Z" fill="#1A2E35"/><path d="M186.069 182.66c.217 1.106.491 2.215.942 3.25M193.318 170.187c-5.968-1.606-8.331 1.981-7.889 7.642" stroke="silver" stroke-width="1.333" stroke-miterlimit="10"/><path d="m199.631 232.19 7.274 13.086 17.461-13.78 5.365.753-11.296 19.976a1.54 1.54 0 0 1-2.154.533l-9.658-6.093-7.532 4.603a1.539 1.539 0 0 1-2.332-1.144l-1.87-17.046 4.742-.888Z" fill="#38BFF2"/><path opacity=".3" d="m198.992 232.101 7.913 13.175 17.765-14.021 5.35.846-11.585 20.124a1.54 1.54 0 0 1-2.154.534l-9.658-6.094-7.532 4.604a1.54 1.54 0 0 1-2.332-1.145l-1.87-17.045 4.103-.978Z" fill="#000"/><path d="m199.631 232.19 7.274 13.086 17.461-13.78 5.365.754-11.297 19.975a1.538 1.538 0 0 1-2.153.534l-9.659-6.094-7.531 4.604a1.54 1.54 0 0 1-2.333-1.145l-1.869-17.045 4.742-.889Z" stroke="#1A2E35" stroke-width="1.333" stroke-miterlimit="10" stroke-linecap="round" stroke-linejoin="round"/><path d="M138.843 324.481H91.367a1.86 1.86 0 0 1-1.86-1.86v-2.61a1.86 1.86 0 0 1 1.86-1.861h47.476v6.331Z" fill="#1A2E35"/><path d="M138.843 324.481H91.367a1.86 1.86 0 0 1-1.86-1.86v-2.61a1.86 1.86 0 0 1 1.86-1.861h47.476v6.331Z" stroke="#1A2E35" stroke-width="1.333" stroke-miterlimit="10" stroke-linecap="round" stroke-linejoin="round"/><path d="M179.699 324.481h-40.856v-6.331l40.941 2.7c.68.044 1.209.609 1.209 1.29v1.047c0 .715-.58 1.294-1.294 1.294Z" fill="#38BFF2"/><path d="M179.699 324.481h-40.856v-6.331l40.941 2.7c.68.044 1.209.609 1.209 1.29v1.047c0 .715-.58 1.294-1.294 1.294Z" stroke="#1A2E35" stroke-width="1.333" stroke-miterlimit="10" stroke-linecap="round" stroke-linejoin="round"/><path d="m218.427 195.526 10.279-3.468-1.219 1.538" stroke="#1A2E35" stroke-width="1.333" stroke-linecap="round" stroke-linejoin="round"/><path d="M284.236 207.347s-11.829-36.122 17.921-38.657c29.751-2.534 33.262 25.195 35.99 39.097 2.132 10.866 22.454 30.747 6.727 45.582-16.42 15.49-56.399 10.323-58.697-11.702-2.298-22.026-.206-26.535-1.941-34.32Z" fill="#1A2E35"/><path d="M284.236 207.347s-11.829-36.122 17.921-38.657c29.751-2.534 33.262 25.195 35.99 39.097 2.132 10.866 22.454 30.747 6.727 45.582-16.42 15.49-56.399 10.323-58.697-11.702-2.298-22.026-.206-26.535-1.941-34.32Z" stroke="#1A2E35" stroke-width="1.333" stroke-miterlimit="10" stroke-linecap="round" stroke-linejoin="round"/><path d="M318.954 213.098s-1.302 16.021 6.965 29.802c0 0-11.137 3.628-22.751.177.486-4.254.25-8.559-.698-12.734l-.397-1.745 8.443-7.303 8.438-8.197Z" fill="#fff"/><path d="M298.517 225.177c1.536 8.623 2.95 10.5 10.251 8.963 5.416-1.141 10.032-9.263 10.293-15.162-.414-3.588-.384-8.064-.384-8.064l-8.16 10.381-12 3.882Z" fill="#1A2E35"/><path d="M318.955 213.098s-1.302 16.021 6.965 29.802c0 0-11.137 3.628-22.751.178a38.052 38.052 0 0 0-.699-12.735l-.396-1.745 8.443-7.303 8.438-8.197Z" stroke="#1A2E35" stroke-width="1.333" stroke-miterlimit="10" stroke-linecap="round" stroke-linejoin="round"/><path d="M236.105 304.782s-16.477-7.574-17.395-1.299c-.919 6.276 3.102 15.896 18.191 11.151l31.656 4.173s5.421-10.794-.373-16.678c0 0-27.893 4.338-32.079 2.653Z" fill="#fff"/><path d="M236.105 304.782s-16.477-7.574-17.395-1.299c-.919 6.276 3.102 15.896 18.191 11.151l31.656 4.173s5.421-10.794-.373-16.678c0 0-27.893 4.338-32.079 2.653Z" stroke="#1A2E35" stroke-width="1.333" stroke-miterlimit="10" stroke-linecap="round" stroke-linejoin="round"/><path d="M210.718 311.547s-2.611.836-2.993 2.563c-.38 1.726-1.231 4.176-.226 4.184 1.003.006 2.216-3.438 2.216-3.438l2.539-.659-1.536-2.65Z" fill="#fff"/><path d="M210.718 311.547s-2.611.836-2.993 2.563c-.38 1.726-1.231 4.176-.226 4.184 1.003.006 2.216-3.438 2.216-3.438l2.539-.659-1.536-2.65Z" stroke="#1A2E35" stroke-width="1.333" stroke-miterlimit="10" stroke-linecap="round" stroke-linejoin="round"/><path d="m230.527 319.541-17.127 1.794-2.556-24.398 17.128-1.795 2.555 24.399Z" fill="#fff"/><path d="m230.527 319.541-17.127 1.794-2.556-24.398 17.128-1.795 2.555 24.399Z" stroke="#1A2E35" stroke-width="1.333" stroke-miterlimit="10" stroke-linecap="round" stroke-linejoin="round"/><path d="m208.286 297.204 2.556 24.399 2.558-.267-2.556-24.4-2.558.268Z" fill="#38BFF2"/><path d="m208.286 297.204 2.556 24.399 2.558-.267-2.556-24.4-2.558.268Z" stroke="#1A2E35" stroke-width="1.333" stroke-miterlimit="10" stroke-linecap="round" stroke-linejoin="round"/><path d="M223.369 291.611a3.734 3.734 0 0 0-3.322 4.097c.01.09.036.172.052.258l.865-.09.917-.096c-.021-.085-.044-.169-.054-.258a1.942 1.942 0 0 1 1.728-2.132 1.943 1.943 0 0 1 2.131 1.728 1.931 1.931 0 0 1-.795 1.764c.117.397.466.909 1.442 1.11a3.714 3.714 0 0 0 1.133-3.06 3.733 3.733 0 0 0-4.097-3.321Z" fill="#fff"/><path d="M223.369 291.611a3.734 3.734 0 0 0-3.322 4.097c.01.09.036.172.052.258l.865-.09.917-.096c-.021-.085-.044-.169-.054-.258a1.942 1.942 0 0 1 1.728-2.132 1.943 1.943 0 0 1 2.131 1.728 1.931 1.931 0 0 1-.795 1.764c.117.397.466.909 1.442 1.11a3.714 3.714 0 0 0 1.133-3.06 3.733 3.733 0 0 0-4.097-3.321ZM214.072 301.994l5.895-.616M214.355 304.683l11.455-1.2M214.636 307.373l5.727-.601M214.918 310.061l9.565-1.003M215.199 312.75l5.728-.6M215.48 315.439l12.569-1.317M215.763 318.127l5.894-.616" stroke="#1A2E35" stroke-width="1.333" stroke-miterlimit="10" stroke-linecap="round" stroke-linejoin="round"/><path d="M220.198 291.943a3.734 3.734 0 0 0-3.32 4.097c.009.091.036.174.052.262l.866-.09-.001-.004.917-.096c-.022-.085-.045-.169-.055-.258a1.943 1.943 0 0 1 1.727-2.132 1.944 1.944 0 0 1 2.132 1.728 1.929 1.929 0 0 1-.795 1.764c.117.398.467.909 1.442 1.111.796-.771 1.257-1.877 1.133-3.061a3.734 3.734 0 0 0-4.098-3.321Z" fill="#fff"/><path d="M220.198 291.943a3.734 3.734 0 0 0-3.32 4.097c.009.091.036.174.052.262l.866-.09-.001-.004.917-.096c-.022-.085-.045-.169-.055-.258a1.943 1.943 0 0 1 1.727-2.132 1.944 1.944 0 0 1 2.132 1.728 1.929 1.929 0 0 1-.795 1.764c.117.398.467.909 1.442 1.111.796-.771 1.257-1.877 1.133-3.061a3.734 3.734 0 0 0-4.098-3.321Z" stroke="#1A2E35" stroke-width="1.333" stroke-miterlimit="10" stroke-linecap="round" stroke-linejoin="round"/><path d="M217.029 292.275a3.733 3.733 0 0 0-3.32 4.098c.009.088.036.171.052.257l.865-.09.916-.096c-.021-.085-.045-.169-.054-.258a1.942 1.942 0 0 1 1.727-2.132 1.942 1.942 0 0 1 2.132 1.728 1.929 1.929 0 0 1-.795 1.764c.117.397.466.909 1.441 1.11.797-.771 1.258-1.876 1.133-3.06a3.732 3.732 0 0 0-4.097-3.321Z" fill="#fff"/><path d="M217.029 292.275a3.733 3.733 0 0 0-3.32 4.098c.009.088.036.171.052.257l.865-.09.916-.096c-.021-.085-.045-.169-.054-.258a1.942 1.942 0 0 1 1.727-2.132 1.942 1.942 0 0 1 2.132 1.728 1.929 1.929 0 0 1-.795 1.764c.117.397.466.909 1.441 1.11.797-.771 1.258-1.876 1.133-3.06a3.732 3.732 0 0 0-4.097-3.321Z" stroke="#1A2E35" stroke-width="1.333" stroke-miterlimit="10" stroke-linecap="round" stroke-linejoin="round"/><path d="M213.859 292.607a3.735 3.735 0 0 0-3.321 4.098c.009.089.036.171.052.257l.866-.09.916-.096c-.021-.085-.045-.169-.054-.258a1.94 1.94 0 0 1 3.858-.404 1.93 1.93 0 0 1-.794 1.764c.116.397.466.909 1.441 1.11.797-.77 1.258-1.876 1.133-3.06a3.734 3.734 0 0 0-4.097-3.321Z" fill="#fff"/><path d="M213.859 292.607a3.735 3.735 0 0 0-3.321 4.098c.009.089.036.171.052.257l.866-.09.916-.096c-.021-.085-.045-.169-.054-.258a1.94 1.94 0 0 1 3.858-.404 1.93 1.93 0 0 1-.794 1.764c.116.397.466.909 1.441 1.11.797-.77 1.258-1.876 1.133-3.06a3.734 3.734 0 0 0-4.097-3.321Z" stroke="#1A2E35" stroke-width="1.333" stroke-miterlimit="10" stroke-linecap="round" stroke-linejoin="round"/><path d="M209.149 296.85a1.94 1.94 0 0 1 3.858-.404 1.934 1.934 0 0 1-.795 1.765c.117.396.466.909 1.442 1.109a3.709 3.709 0 0 0 1.133-3.06 3.734 3.734 0 0 0-4.097-3.321 3.734 3.734 0 0 0-3.321 4.098c.096.91.525 1.699 1.139 2.288l-.222-2.121.917-.096c-.022-.084-.045-.168-.054-.258Z" fill="#fff"/><path d="M209.149 296.85a1.94 1.94 0 0 1 3.858-.404 1.934 1.934 0 0 1-.795 1.765c.117.396.466.909 1.442 1.109a3.709 3.709 0 0 0 1.133-3.06 3.734 3.734 0 0 0-4.097-3.321 3.734 3.734 0 0 0-3.321 4.098c.096.91.525 1.699 1.139 2.288l-.222-2.121.917-.096c-.022-.084-.045-.168-.054-.258Z" stroke="#1A2E35" stroke-width="1.333" stroke-miterlimit="10" stroke-linecap="round" stroke-linejoin="round"/><path d="M206.304 303.76c.148.326.333.67.561 1.031 0 0-.67 1.989.675 3.847 0 0 .08 2.69 1.033 3.114.954.425 2.472.941 2.445.194-.027-.746-.475-3.018-2.187-3.519 0 0 1.974.393 1.751-.708-.223-1.101-.591-2.677-1.799-3.129l-.652-.288s1.561.288 1.437-.899c-.125-1.186-.267-2.563-1.161-2.898a5.672 5.672 0 0 0-.692-.203c-1.326-.313-2.176 1.77-1.411 3.458Z" fill="#fff"/><path d="M206.304 303.76c.148.326.333.67.561 1.031 0 0-.67 1.989.675 3.847 0 0 .08 2.69 1.033 3.114.954.425 2.472.941 2.445.194-.027-.746-.475-3.018-2.187-3.519 0 0 1.974.393 1.751-.708-.223-1.101-.591-2.677-1.799-3.129l-.652-.288s1.561.288 1.437-.899c-.125-1.186-.267-2.563-1.161-2.898a5.672 5.672 0 0 0-.692-.203c-1.326-.313-2.176 1.77-1.411 3.458Z" stroke="#1A2E35" stroke-width="1.333" stroke-miterlimit="10" stroke-linecap="round" stroke-linejoin="round"/><path d="M234.257 304.571s-1.837-4.075-4.857-6.2c-3.019-2.124-4.137-6.262-5.367-5.256-1.23 1.007-.111 5.385 1.789 6.886 1.901 1.501-.224 4.856 4.474 8.994" fill="#fff"/><path d="M234.257 304.571s-1.837-4.075-4.857-6.2c-3.019-2.124-4.137-6.262-5.367-5.256-1.23 1.007-.111 5.385 1.789 6.886 1.901 1.501-.224 4.856 4.474 8.994" stroke="#1A2E35" stroke-width="1.333" stroke-miterlimit="10" stroke-linecap="round" stroke-linejoin="round"/><path d="M345.182 316.483a891.492 891.492 0 0 1-1.33 7.998h-64.76c-.105-.869.51-2.616 1.095-5.656-7.215 2.446-19.802-1.351-19.802-1.351 1.568-4.126.482-14.608.482-14.608l7.346-1.558s3.051-31.936 5.374-41.086c2.464-9.707 15.95-20.306 61.303-17.176 0 0 20.927-.396 24.175 13.475 3.031 12.936-13.014 59.367-13.883 59.962Z" fill="#38BFF2"/><path opacity=".2" d="M280.188 318.827c-5.014 1.699-12.615.386-16.789-.576 1.085-.831 1.766-2.531 2.02-4.684 3.4-.53 6.8-5.931 9.038-30.483.528-5.759 1.661-9.375 3.115-11.812-1.218 4.938-1.746 10.471-.169 16.884.811 3.296 3.361 11.227 3.589 14.514.518 7.487-.134 12.672-.804 16.157Z" fill="#000"/><path opacity=".2" d="M345.174 316.492a631.32 631.32 0 0 1-1.321 7.989h-64.76c1.161-3.55 4.014-20.453-.01-30.727-.161-.416 13.909-6.326 23.333-3.909 39.945 10.245 26.185-22.767 37.592-28.772l-9.839 38.593-5.373 1.708c11.634.718 8.272 18.16 8.272 18.16 5.458.887 9.953-1.55 12.106-3.042Z" fill="#000"/><path d="M345.183 316.483a891.492 891.492 0 0 1-1.33 7.998h-64.759c-.105-.869.509-2.616 1.094-5.656-7.214 2.446-19.802-1.351-19.802-1.351 1.568-4.126.482-14.608.482-14.608l7.346-1.558s3.051-31.936 5.374-41.086c2.464-9.707 15.95-20.306 61.303-17.176 0 0 20.927-.396 24.175 13.475 3.031 12.936-13.014 59.367-13.883 59.962Z" stroke="#1A2E35" stroke-width="1.333" stroke-miterlimit="10" stroke-linecap="round" stroke-linejoin="round"/><path d="M262.049 301.066s2.452 1.311 3.253 7.082c.801 5.771-.431 10.738-3.635 10.658-3.206-.08-3.761-1.335-3.114-2.52.646-1.186 2.059-2.788.991-7.722-1.341-6.187-4.096-5.623-4.096-5.623s3.678-3.519 6.601-1.875Z" fill="#38BFF2"/><path d="M262.049 301.066s2.452 1.311 3.253 7.082c.801 5.771-.431 10.738-3.635 10.658-3.206-.08-3.761-1.335-3.114-2.52.646-1.186 2.059-2.788.991-7.722-1.341-6.187-4.096-5.623-4.096-5.623s3.678-3.519 6.601-1.875v0Z" stroke="#1A2E35" stroke-width="1.333" stroke-miterlimit="10" stroke-linecap="round" stroke-linejoin="round"/><path opacity=".2" d="M265.42 313.566c-.255 2.153-.935 3.853-2.021 4.683a2.636 2.636 0 0 1-1.728.558c-3.21-.076-3.767-1.332-3.116-2.522.642-1.18 2.059-2.785.992-7.724-1.341-6.186-4.099-5.619-4.099-5.619s3.683-3.522 6.601-1.879c0 0 2.455 1.312 3.258 7.083.264 1.954.302 3.815.113 5.42Z" fill="#000"/><path d="M323.741 231.496s-16.283 4.937-23.689 2.304l-1.535 9.885s7.2 6.275 30.284-1.438l-5.06-10.751Z" fill="#38BFF2"/><path d="M323.741 231.496s-16.283 4.937-23.689 2.304l-1.535 9.885s7.2 6.275 30.284-1.438l-5.06-10.751Z" stroke="#1A2E35" stroke-width="1.333" stroke-miterlimit="10" stroke-linecap="round" stroke-linejoin="round"/><path d="M265.891 298.181c1.935 6.303 3.666 11.363 1.955 11.888-1.71.526-3.116-4.634-5.052-10.937-1.936-6.303-3.667-11.362-1.957-11.888 1.711-.525 3.118 4.633 5.054 10.937Z" fill="#38BFF2"/><path d="M265.891 298.181c1.935 6.303 3.666 11.363 1.955 11.888-1.71.526-3.116-4.634-5.052-10.937-1.936-6.303-3.667-11.362-1.957-11.888 1.711-.525 3.118 4.633 5.054 10.937Z" stroke="#1A2E35" stroke-width="1.333" stroke-miterlimit="10" stroke-linecap="round" stroke-linejoin="round"/><path d="m262.547 298.332 3.099-.951c-.454-1.488-.88-2.895-1.289-4.166l-3.081.945c.375 1.282.812 2.686 1.271 4.172Z" fill="#1A2E35"/><path d="M262.265 290.231s1.448-2.901 2.779-.852c1.331 2.047 1.606 8.273 2.544 8.281M281.472 259.382c-1.18 3.617-2.813 7.517-3.9 11.889-1.218 4.938-1.746 10.472-.17 16.884.813 3.295 3.362 11.226 3.589 14.513.519 7.489-.132 12.673-.803 16.157-.584 3.041-1.199 4.788-1.095 5.655" stroke="#1A2E35" stroke-width="1.333" stroke-miterlimit="10" stroke-linecap="round" stroke-linejoin="round"/><path d="M321.554 302.448s-26.342 3.599-35.224 3.802c-1.366.031-5.442-.474-5.442-.474l-6.315-4.223s-4.867-.721-7.254-.174l-2.718 3.554s-3.395 1.093-1.456 3.665c0 0-.746 1.975.894 3.467 0 0 .149 2.237 1.64 3.131 0 0 .299 2.087 1.939 2.684 1.64.596 11.928-1.045 15.058-1.939 3.133-.894 33.548 3.877 45.476 3.579 0 0 10.214-11.928-6.598-17.072Z" fill="#fff"/><path d="M321.554 302.448s-26.342 3.599-35.224 3.802c-1.366.031-5.442-.474-5.442-.474l-6.315-4.223s-4.867-.721-7.254-.174l-2.718 3.554s-3.395 1.093-1.456 3.665c0 0-.746 1.975.894 3.467 0 0 .149 2.237 1.64 3.131 0 0 .299 2.087 1.939 2.684 1.64.596 11.928-1.045 15.058-1.939 3.133-.894 33.548 3.877 45.476 3.579 0 0 10.214-11.928-6.598-17.072v0Z" stroke="#1A2E35" stroke-width="1.333" stroke-miterlimit="10" stroke-linecap="round" stroke-linejoin="round"/><path d="M321.967 202.696s-6.954 2.714-11.07-4.782c-1.783-3.25-5.394-10.027-5.394-10.027-1.027 2.656.234 6.701.234 6.701-2.354-1.033-6.91-1.276-6.91-1.276-1.616-2.707-2.087-8.838-2.087-8.838-2.238 3.737-1.59 9.1-1.59 9.1-4.781.663-7.735 2.291-9.912 4.197.592 2.409.808 6.164.609 13.968-.257 10.197 4.642 12.988 9.413 16.799 4.772 3.81 17.859 5.786 22.372-14.141 0 0 9.464-3.52 4.833-10.914a83.842 83.842 0 0 0-.498-.787Z" fill="#fff"/><path d="M321.967 202.696s-6.954 2.714-11.07-4.782c-1.783-3.25-5.394-10.027-5.394-10.027-1.027 2.656.234 6.701.234 6.701-2.354-1.033-6.91-1.276-6.91-1.276-1.616-2.707-2.087-8.838-2.087-8.838-2.238 3.737-1.59 9.1-1.59 9.1-4.781.663-7.735 2.291-9.912 4.197.592 2.409.808 6.164.609 13.968-.257 10.197 4.642 12.988 9.413 16.799 4.772 3.81 17.859 5.786 22.372-14.141 0 0 9.464-3.52 4.833-10.914a83.842 83.842 0 0 0-.498-.787Z" stroke="#1A2E35" stroke-width="1.333" stroke-miterlimit="10" stroke-linecap="round" stroke-linejoin="round"/><path d="M314.224 190.466c2.976 6.098 8.156 10.794 14.794 12.521M311.74 182.915c.2 1.239.525 2.459.911 3.65M316.457 183.369s5.36 10.236 13.747 10.48M332.901 209.404s13.641 22.092 13.641 34.95M329.289 215.293s3.376 12.325 8.799 18.507M286.41 183.255a37.188 37.188 0 0 0-.805 5.526M297.579 171.678s-6.35 1.193-10.498 8.678M289.54 228.896s-.209 9.911 4.848 15.478" stroke="silver" stroke-width="1.333" stroke-miterlimit="10"/><path d="M298.518 198.549c6.879-1.349 9.899 2.156 9.899 2.156M287.049 201.453a7.825 7.825 0 0 1 5.828-2.322M303.006 221.633c2.12-1.214 3.304-4.362 3.304-4.362l-.442.238a25.636 25.636 0 0 1-8.905 2.847c1.99 2.094 4.634 2.084 6.043 1.277ZM294.576 215.066c-.896-.111-3.458-1.325-3.671-3.057-.063-.519.312-.994.871-1.406 2.216-1.627 3.551-4.19 3.355-6.931l-.023-.308" stroke="#1A2E35" stroke-width="1.333" stroke-linecap="round" stroke-linejoin="round"/><path d="M303.38 201.314c.651-.081 1.321 1.003 1.495 2.409.172 1.406-.216 2.612-.867 2.693-.653.08-1.321-.996-1.494-2.403-.175-1.412.214-2.619.866-2.699ZM292.029 205.383c.17 1.382-.211 2.565-.849 2.643-.639.08-1.296-.976-1.466-2.358-.17-1.381.21-2.564.849-2.643.64-.078 1.296.978 1.466 2.358Z" fill="#1A2E35"/><path d="M313.165 202.502s-.884-2.497.122-3.815" stroke="#1A2E35" stroke-width="1.333" stroke-linecap="round" stroke-linejoin="round"/><path d="M345.177 316.497c-2.15 1.489-6.651 3.927-12.104 3.036 0 0 3.354-17.44-8.275-18.157l5.368-1.711 9.84-38.592" stroke="#1A2E35" stroke-width="1.333" stroke-miterlimit="10" stroke-linecap="round" stroke-linejoin="round"/><path d="M333.072 299.666s6.229 1.639 7.979 7.004M307.643 237.556c5.918-.004 11.789-1.335 17.182-3.756M299.613 236.635c1.327.358 2.694.572 4.06.716M326.155 247.701a89.048 89.048 0 0 0 5.292-2.084M297 247.844s6.331 6.013 23.093 1.72M302.473 277.735s.995 14.519 11.75 19.925" stroke="#1A2E35" stroke-width="1.333" stroke-miterlimit="10" stroke-linecap="round" stroke-linejoin="round"/><path d="M321.289 302.681s2.123-4.666 8.442-2.363c0 0 5.981 2.057 7.772 8.208 1.788 6.15-.448 11.629-4.81 11.853-4.36.224-5.156-.111-4.423-1.454.734-1.342 2.248-4.987.341-9.549-2.714-6.491-7.322-6.695-7.322-6.695Z" fill="#38BFF2"/><path opacity=".2" d="M321.29 302.681s2.122-4.667 8.441-2.364c0 0 5.982 2.058 7.772 8.208 1.788 6.15-.448 11.63-4.809 11.854-4.361.224-5.157-.112-4.423-1.454.733-1.342 2.247-4.987.341-9.549-2.714-6.491-7.322-6.695-7.322-6.695Z" fill="#000"/><path d="M321.289 302.681s2.123-4.667 8.442-2.364c0 0 5.981 2.058 7.771 8.208 1.789 6.15-.447 11.63-4.809 11.854-4.361.224-5.157-.112-4.423-1.454.734-1.342 2.248-4.987.341-9.549-2.714-6.491-7.322-6.695-7.322-6.695Z" stroke="#1A2E35" stroke-width="1.333" stroke-miterlimit="10" stroke-linecap="round" stroke-linejoin="round"/><path d="M31.967 283.48S28.72 255.706 0 266.896c0 0 24.435-.181 28.568 20.745l3.8-.405-.4-3.756Z" fill="#38BFF2"/><path opacity=".1" d="M31.967 283.48S28.72 255.705 0 266.896c0 0 24.434-.181 28.567 20.745l3.801-.405-.401-3.756Z" fill="#000"/><path d="M32.357 283.013s-2.483-29.616-7.892-52.632c0 0 16.525 17.48 12.748 50.394l-4.856 2.238Z" fill="#38BFF2"/><path opacity=".1" d="M32.357 283.013s-2.483-29.616-7.892-52.632c0 0 16.525 17.48 12.748 50.394l-4.856 2.238Z" fill="#000"/><path d="M30.755 302.617s-4.763-40.793-20.617-54.801c0 0 28.354 7.052 24.152 50.376l-3.535 4.425Z" fill="#38BFF2"/><path d="M35.739 300.908s6.945-40.479 23.529-53.615c0 0-28.692 5.519-26.823 49.008l3.294 4.607Z" fill="#38BFF2"/><path d="M50.29 287.666H16.768v5.824h1.116v20.554c0 5.764 4.672 10.436 10.436 10.436h10.417c5.764 0 10.437-4.672 10.437-10.436V293.49h1.116v-5.824Z" fill="#fff"/><path d="M50.29 287.666H16.768v5.824h1.116v20.554c0 5.764 4.672 10.436 10.436 10.436h10.417c5.764 0 10.437-4.672 10.437-10.436V293.49h1.116v-5.824Z" stroke="#1A2E35" stroke-width="1.333" stroke-miterlimit="10"/><path d="M39.9 293.215h4.466H39.9Z" fill="#fff"/><path d="M39.9 293.215h4.466" stroke="#1A2E35" stroke-width="1.333" stroke-miterlimit="10"/><path d="M22.427 293.215h12.934-12.934Z" fill="#fff"/><path d="M22.427 293.215h12.934" stroke="#1A2E35" stroke-width="1.333" stroke-miterlimit="10"/><path d="m163.764 298.835-8.592-69.975c-.273-2.222-2.296-4.024-4.519-4.024h-9.861l11.384 78.024h8.058c2.222 0 3.803-1.802 3.53-4.025Z" fill="#38BFF2"/><path d="m163.764 298.835-8.592-69.975c-.273-2.222-2.296-4.024-4.519-4.024h-9.861l11.384 78.024h8.058c2.222 0 3.803-1.802 3.53-4.025Z" stroke="#1A2E35" stroke-width="1.333" stroke-miterlimit="10" stroke-linecap="round" stroke-linejoin="round"/><path d="M158.103 302.859H59.085c-2.222 0-4.244-1.802-4.518-4.025l-8.591-69.974c-.273-2.223 1.307-4.025 3.53-4.025h99.017c2.222 0 4.246 1.802 4.518 4.025l8.592 69.974c.273 2.223-1.307 4.025-3.53 4.025Z" fill="#1A2E35"/><path opacity=".1" d="M158.104 302.859H59.085c-2.221 0-4.244-1.802-4.518-4.025l-8.591-69.974c-.273-2.223 1.307-4.025 3.53-4.025h99.017c2.223 0 4.246 1.802 4.518 4.025l8.592 69.974c.273 2.223-1.307 4.025-3.529 4.025Z" fill="#fff"/><path d="M158.103 302.859H59.085c-2.222 0-4.244-1.802-4.518-4.025l-8.591-69.974c-.273-2.223 1.307-4.025 3.53-4.025h99.017c2.222 0 4.246 1.802 4.518 4.025l8.592 69.974c.273 2.223-1.307 4.025-3.53 4.025Z" stroke="#1A2E35" stroke-width="1.333" stroke-miterlimit="10" stroke-linecap="round" stroke-linejoin="round"/><path d="m111.933 318.761 3.954-45.069a1.854 1.854 0 0 0-1.846-2.015H89.043c-.96 0-1.761.734-1.845 1.692l-4.307 49.097a1.853 1.853 0 0 0 1.845 2.015h49.517a1.854 1.854 0 1 0 0-3.705h-20.474a1.854 1.854 0 0 1-1.846-2.015Z" fill="#1A2E35"/><path d="m111.933 318.761 3.954-45.069a1.854 1.854 0 0 0-1.846-2.015H89.043c-.96 0-1.761.734-1.845 1.692l-4.307 49.097a1.853 1.853 0 0 0 1.845 2.015h49.517a1.854 1.854 0 1 0 0-3.705h-20.474a1.854 1.854 0 0 1-1.846-2.015Z" stroke="#1A2E35" stroke-width="1.333" stroke-miterlimit="10" stroke-linecap="round" stroke-linejoin="round"/><path d="M136.107 322.628c0-1.023-.83-1.853-1.853-1.853h-20.475a1.853 1.853 0 0 1-1.846-2.015l3.953-45.068a1.85 1.85 0 0 0-1.838-2.014 1.853 1.853 0 0 0-1.839 1.69l-4.306 49.098a1.852 1.852 0 0 0 1.845 2.015h24.506c1.023 0 1.853-.83 1.853-1.853Z" fill="#38BFF2"/><path d="M136.107 322.628c0-1.023-.83-1.853-1.853-1.853h-20.475a1.853 1.853 0 0 1-1.846-2.015l3.953-45.068a1.85 1.85 0 0 0-1.838-2.014 1.853 1.853 0 0 0-1.839 1.69l-4.306 49.098a1.852 1.852 0 0 0 1.845 2.015h24.506c1.023 0 1.853-.83 1.853-1.853ZM22.577 324.481h354.108" stroke="#1A2E35" stroke-width="1.333" stroke-miterlimit="10" stroke-linecap="round" stroke-linejoin="round"/><path d="M352.997 152.999H334.38a4.377 4.377 0 0 0-4.376 4.377v9.057a4.376 4.376 0 0 0 4.376 4.375h4.866l1.421 8.358 7.465-8.358h4.865a4.374 4.374 0 0 0 4.376-4.375v-9.057a4.375 4.375 0 0 0-4.376-4.377Z" fill="#fff"/><path d="M352.997 152.999H334.38a4.377 4.377 0 0 0-4.376 4.377v9.057a4.376 4.376 0 0 0 4.376 4.375h4.866l1.421 8.358 7.465-8.358h4.865a4.374 4.374 0 0 0 4.376-4.375v-9.057a4.375 4.375 0 0 0-4.376-4.377Z" stroke="#1A2E35" stroke-width="1.333" stroke-miterlimit="10" stroke-linecap="round" stroke-linejoin="round"/><path d="M324.46 126.206h-18.617a4.376 4.376 0 0 0-4.376 4.376v9.057a4.377 4.377 0 0 0 4.376 4.377h4.866l3.687 8.357 5.198-8.357h4.866a4.376 4.376 0 0 0 4.377-4.377v-9.057a4.376 4.376 0 0 0-4.377-4.376Z" fill="#fff"/><path d="M324.46 126.206h-18.617a4.376 4.376 0 0 0-4.376 4.376v9.057a4.377 4.377 0 0 0 4.376 4.377h4.866l3.687 8.357 5.198-8.357h4.866a4.376 4.376 0 0 0 4.377-4.377v-9.057a4.376 4.376 0 0 0-4.377-4.376Z" stroke="#1A2E35" stroke-width="1.333" stroke-miterlimit="10" stroke-linecap="round" stroke-linejoin="round"/><path d="M288.233 135.609h-17.581a4.132 4.132 0 0 0-4.133 4.132v8.554a4.133 4.133 0 0 0 4.133 4.134h4.595l4.795 7.891 3.596-7.891h4.595a4.134 4.134 0 0 0 4.134-4.134v-8.554a4.133 4.133 0 0 0-4.134-4.132Z" fill="#fff"/><path d="M288.233 135.609h-17.581a4.132 4.132 0 0 0-4.133 4.132v8.554a4.133 4.133 0 0 0 4.133 4.134h4.595l4.795 7.891 3.596-7.891h4.595a4.134 4.134 0 0 0 4.134-4.134v-8.554a4.133 4.133 0 0 0-4.134-4.132Z" stroke="#1A2E35" stroke-width="1.333" stroke-miterlimit="10" stroke-linecap="round" stroke-linejoin="round"/><path d="M274.591 141.169v2.684h.59c.397 0 .61-.182.61-.748v-1.188c0-.567-.213-.748-.61-.748h-.59Zm2.447.827v1.03c0 1.269-.613 1.959-1.857 1.959h-.59v2.979h-1.245v-7.928h1.835c1.244 0 1.857.691 1.857 1.96ZM278.919 147.964h-1.244v-7.929h1.244v3.398h1.417v-3.398h1.269v7.929h-1.269v-3.398h-1.417v3.398ZM283.759 141.168v2.685h.588c.397 0 .612-.182.612-.748v-1.189c0-.566-.215-.748-.612-.748h-.588Zm2.446.827v1.031c0 1.269-.611 1.959-1.858 1.959h-.588v2.978h-1.247v-7.927h1.835c1.247 0 1.858.69 1.858 1.959ZM312.483 136.334v1.053c0 1.268-.635 1.993-1.857 1.993-1.224 0-1.858-.725-1.858-1.993v-4.123c0-1.268.634-1.992 1.858-1.992 1.222 0 1.857.724 1.857 1.992v.77h-1.178v-.849c0-.567-.249-.781-.645-.781-.397 0-.645.214-.645.781v4.281c0 .567.248.771.645.771.396 0 .645-.204.645-.771v-1.132h1.178ZM315.476 134.885h1.516v.883h-1.516v1.551h-.884v-1.551h-1.518v-.883h1.518v-1.529h.884v1.529ZM319.963 134.884h1.516v.884h-1.516v1.55h-.884v-1.55h-1.518v-.884h1.518v-1.529h.884v1.529ZM334.96 162.771v-1.206l5.045-1.858v1.223l-3.466 1.238 3.466 1.238v1.223l-5.045-1.858ZM344.973 156.752h1.471l-4.272 10.833h-1.47l4.271-10.833ZM347.141 164.629v-1.223l3.466-1.237-3.466-1.239v-1.223l5.045 1.858v1.206l-5.045 1.858Z" fill="#1A2E35"/></svg>