<svg width="70" height="61" viewBox="0 0 70 61" fill="none" xmlns="http://www.w3.org/2000/svg"><path d="M68.917 4.032v35.581H1.083V4.033c0-1.618 1.291-2.928 2.886-2.928h62.062c1.595 0 2.886 1.31 2.886 2.927Z" fill="#fff"/><path d="M1.083 39.614v6.54c0 1.617 1.292 2.928 2.886 2.928h62.062c1.594 0 2.886-1.311 2.886-2.928v-6.54H1.083Z" fill="#38BFF2"/><path d="M27.43 49.082h15.14v6.89H27.43v-6.89Z" fill="#D7E9FF"/><path d="m48.639 56.824 1.804 1.82c.457.461.135 1.252-.509 1.252H20.065c-.643 0-.965-.79-.509-1.251l1.805-1.821a2.866 2.866 0 0 1 2.036-.852h23.206c.763 0 1.495.306 2.036.852Z" fill="#38BFF2"/><path d="M35 45.804c.793 0 1.436-.652 1.436-1.456 0-.805-.643-1.457-1.436-1.457-.793 0-1.436.652-1.436 1.457 0 .804.643 1.456 1.436 1.456Z" fill="#D7E9FF"/><path d="M69.64 4.032c0-2.018-1.62-3.66-3.61-3.66H3.97C1.98.372.36 2.014.36 4.032v42.122c0 2.018 1.62 3.66 3.61 3.66h22.738v5.425h-3.311c-.961 0-1.864.38-2.544 1.066l-1.805 1.82c-.911.92-.268 2.503 1.017 2.503h29.87c1.285 0 1.929-1.582 1.017-2.502l-1.804-1.82a3.555 3.555 0 0 0-2.545-1.066h-3.311v-5.426H66.03c1.99 0 3.608-1.642 3.608-3.66V4.032Zm-67.836 0c0-1.21.971-2.196 2.165-2.196h62.062c1.194 0 2.165.985 2.165 2.196v34.85H1.804V4.031Zm46.325 53.31.001.001 1.805 1.82h-29.87l1.806-1.82c.408-.412.95-.64 1.526-.64h23.206c.576 0 1.118.228 1.526.64Zm-6.28-2.103H28.15v-5.425H41.85v5.425Zm26.347-9.085c0 1.211-.971 2.196-2.165 2.196H3.969c-1.194 0-2.165-.985-2.165-2.196v-5.808h66.392v5.808Z" fill="#1A2E35"/><path d="M35 46.537c1.19 0 2.158-.983 2.158-2.189 0-1.207-.968-2.189-2.158-2.189s-2.158.982-2.158 2.189c0 1.206.968 2.189 2.158 2.189Zm0-2.914a.72.72 0 0 1 .714.725c0 .4-.32.725-.714.725a.72.72 0 0 1-.715-.725c0-.4.32-.725.715-.725ZM56.066 9H7.722A.726.726 0 0 0 7 9.732c0 .404.323.732.722.732h48.344a.726.726 0 0 0 .722-.732.726.726 0 0 0-.721-.732ZM56.066 14H7.722a.726.726 0 0 0-.722.732c0 .404.323.732.722.732h48.344a.726.726 0 0 0 .722-.732.726.726 0 0 0-.721-.732ZM46.066 19H7.722a.726.726 0 0 0-.722.732c0 .404.323.732.722.732h38.344a.726.726 0 0 0 .722-.732.726.726 0 0 0-.721-.732ZM36.066 24H7.722a.726.726 0 0 0-.722.732c0 .404.323.732.722.732h28.344a.726.726 0 0 0 .722-.732.726.726 0 0 0-.721-.732ZM26.067 29H7.722a.726.726 0 0 0-.722.732c0 .404.323.732.722.732h18.345a.726.726 0 0 0 .721-.732.726.726 0 0 0-.721-.732Z" fill="#1A2E35"/></svg>