<svg width="64" height="57" viewBox="0 0 64 57" fill="none" xmlns="http://www.w3.org/2000/svg"><path d="M.75 6C.75 3.1 3.1.75 6 .75h37.327c2.9 0 5.25 2.35 5.25 5.25v28.558c0 2.9-2.35 5.25-5.25 5.25H19.419c-1.716 0-3.406.41-4.93 1.197l-11.916 6.15A1.25 1.25 0 0 1 .75 46.044V6Z" fill="#fff" stroke="#263238" stroke-width="1.5"/><path d="M51.727 13.154h4.754a6 6 0 0 1 6 6v34.324c0 1.552-1.692 2.512-3.025 1.717l-8.65-5.162a10 10 0 0 0-5.125-1.413H27.246a5.322 5.322 0 0 1-5.323-5.322" stroke="#263238" stroke-width="1.5"/><rect x="10.211" y="12.404" width="30" height="3.692" rx="1.846" fill="#38BFF2" stroke="#263238" stroke-width="1.5"/><rect x="10.211" y="20.077" width="23.423" height="3.692" rx="1.846" fill="#38BFF2" stroke="#263238" stroke-width="1.5"/></svg>