<svg width="408" height="355" viewBox="0 0 408 355" fill="none" xmlns="http://www.w3.org/2000/svg"><path d="M319.509 231.593c-6.454 5.365-4.315 36.676-24.272 23.192-19.956-13.484 14.083-21.482 12.136-29.125-2.725-10.701-47.734 2.157-40.183-18.339 7.551-20.495 34.458 10.328 41.532 2.698 6.497-7.01-25.89-32.362-10.787-36.677 15.102-4.316 11.85 32.365 21.574 32.362 7.566-.003 6.157-35.059 20.068-22.654 13.912 12.406-16.498 24.628-12.516 32.326 3.024 5.851 26.967-8.594 25.889 4.89-1.079 13.484-26.654 5.684-33.441 11.327Z" fill="#38BFF2"/><path d="M315.194 215.558s14.564 17.653 12.945 65.657" stroke="#1A2E35" stroke-width="1.333" stroke-miterlimit="10" stroke-linecap="round" stroke-linejoin="round"/><path d="M286.823 240.535c2.581-5.193 23.971-8.737 11.731-20.009-12.24-11.271-12.201 12.886-17.65 12.793-7.628-.129-6.144-32.435-18.722-24.096-12.578 8.337 12.426 21.522 8.421 27.492-3.68 5.483-25.876-12.256-26.374-1.417-.499 10.84 23.644 2.818 25.189 9.356 1.202 5.087-22.59 9.717-12.036 17.096 10.553 7.378 13.932-15.011 19.741-13.559 4.414 1.103-1.487 19.498 7.406 16.627 8.893-2.87-.419-18.823 2.294-24.283Z" fill="#38BFF2"/><path opacity=".3" d="M286.823 240.535c2.58-5.193 23.971-8.737 11.73-20.009-12.24-11.271-12.2 12.885-17.65 12.793-7.628-.129-6.143-32.435-18.722-24.096-12.578 8.337 12.426 21.522 8.421 27.492-3.679 5.483-25.876-12.257-26.374-1.417-.499 10.84 23.645 2.818 25.19 9.356 1.202 5.087-22.59 9.717-12.037 17.095 10.554 7.379 13.933-15.01 19.741-13.558 4.415 1.103-1.487 19.498 7.406 16.627 8.894-2.87-.419-18.823 2.295-24.283Z" fill="#000"/><path d="M275.821 240.762s41.444-4.315 45.533 40.452" stroke="#1A2E35" stroke-width="1.333" stroke-miterlimit="10" stroke-linecap="round" stroke-linejoin="round"/><path d="M354.829 235.908c6.454 5.365 4.315 36.675 24.271 23.192 19.957-13.485-14.081-21.481-12.135-29.125 2.725-10.702 47.733 2.157 40.182-18.339-7.551-20.496-34.458 10.328-41.531 2.698-6.497-7.011 25.89-32.362 10.788-36.677-15.103-4.315-11.851 32.366-21.575 32.362-7.566-.004-6.157-35.06-20.068-22.654-13.912 12.405 16.497 24.627 12.517 32.325-3.025 5.852-26.968-8.593-25.89 4.891 1.079 13.483 26.653 5.684 33.441 11.327Z" fill="#38BFF2"/><path opacity=".3" d="M354.829 235.908c6.454 5.365 4.315 36.675 24.271 23.192 19.957-13.485-14.081-21.481-12.135-29.125 2.725-10.702 47.733 2.157 40.182-18.339-7.551-20.496-34.458 10.328-41.531 2.698-6.497-7.011 25.89-32.362 10.788-36.677-15.103-4.315-11.851 32.366-21.575 32.362-7.566-.004-6.157-35.06-20.068-22.654-13.912 12.405 16.497 24.627 12.517 32.325-3.025 5.852-26.968-8.593-25.89 4.891 1.079 13.483 26.653 5.684 33.441 11.327Z" fill="#fff"/><path d="M359.422 219.873s-18.878 25.204-23.193 67.275" stroke="#1A2E35" stroke-width="1.333" stroke-miterlimit="10" stroke-linecap="round" stroke-linejoin="round"/><path d="M345.907 352.958h-29.428a10.844 10.844 0 0 1-10.807-9.926l-4.627-54.368c-.538-6.329 4.455-11.765 10.808-11.765h38.68c6.352 0 11.346 5.436 10.807 11.765l-4.627 54.368a10.844 10.844 0 0 1-10.806 9.926Z" fill="#38BFF2"/><path d="M345.907 352.958h-29.428a10.844 10.844 0 0 1-10.807-9.926l-4.627-54.368c-.538-6.329 4.455-11.765 10.808-11.765h38.68c6.352 0 11.346 5.436 10.807 11.765l-4.627 54.368a10.844 10.844 0 0 1-10.806 9.926Z" stroke="#1A2E35" stroke-width="1.333" stroke-miterlimit="10" stroke-linecap="round" stroke-linejoin="round"/><path d="M125.557 274.874c9.834 0 38.246-6.419 38.246-6.419h-76.49s28.411 6.419 38.244 6.419Z" fill="#1A2E35"/><path d="M125.557 274.874c9.834 0 38.246-6.419 38.246-6.419h-76.49s28.411 6.419 38.244 6.419Z" stroke="#1A2E35" stroke-width="1.333" stroke-miterlimit="10" stroke-linecap="round" stroke-linejoin="round"/><path d="M116.793 283.678h17.527v-12.014h-17.527v12.014Z" fill="#868686" stroke="#1A2E35" stroke-width="1.333" stroke-miterlimit="10" stroke-linecap="round" stroke-linejoin="round"/><path d="M114.201 335.34h22.714v-51.662h-22.714v51.662Z" fill="#9A9A9A" stroke="#1A2E35" stroke-width="1.333" stroke-miterlimit="10" stroke-linecap="round" stroke-linejoin="round"/><path d="M82.896 253.132h14.76a356.675 356.675 0 0 1-3.596-30.808H79.3a356.678 356.678 0 0 0 3.597 30.808Z" fill="#868686"/><path d="M82.896 253.132h14.76a356.675 356.675 0 0 1-3.596-30.808H79.3a356.678 356.678 0 0 0 3.597 30.808Z" stroke="#1A2E35" stroke-width="1.333" stroke-miterlimit="10" stroke-linecap="round" stroke-linejoin="round"/><path d="M60.474 131.339h63.63c7.479 0 12.373 6.314 10.928 13.758-4.075 22.907-6.482 45.554-7.275 68.816-.121 6.741-5.25 11.947-11.995 11.947H62.197c-6.745 0-12.817-5.206-13.683-11.947-2.58-23.015-3.512-45.658-2.791-68.816.354-7.444 7.27-13.758 14.751-13.758Z" fill="#868686"/><path d="M60.474 131.339h63.63c7.479 0 12.373 6.314 10.928 13.758-4.075 22.907-6.482 45.554-7.275 68.816-.121 6.741-5.25 11.947-11.995 11.947H62.197c-6.745 0-12.817-5.206-13.683-11.947-2.58-23.015-3.512-45.658-2.791-68.816.354-7.444 7.27-13.758 14.751-13.758Z" stroke="#1A2E35" stroke-width="1.333" stroke-miterlimit="10" stroke-linecap="round" stroke-linejoin="round"/><path d="M57.008 145.096c-.722 23.159.211 45.803 2.792 68.817.865 6.741 6.938 11.948 13.682 11.948h42.279c6.746 0 11.876-5.207 11.995-11.948.794-23.262 3.202-45.909 7.276-68.817 1.446-7.442-3.448-13.757-10.928-13.757H71.759c-7.481 0-14.397 6.315-14.75 13.757Z" fill="#9A9A9A"/><path d="M57.008 145.096c-.722 23.159.211 45.803 2.792 68.817.865 6.741 6.938 11.948 13.682 11.948h42.279c6.746 0 11.876-5.207 11.995-11.948.794-23.262 3.202-45.909 7.276-68.817 1.446-7.442-3.448-13.757-10.928-13.757H71.759c-7.481 0-14.397 6.315-14.75 13.757Z" stroke="#1A2E35" stroke-width="1.333" stroke-miterlimit="10" stroke-linecap="round" stroke-linejoin="round"/><path d="M87.312 344.614a1.897 1.897 0 0 0 2.3 1.856c6.96-1.518 27.81-5.91 35.945-5.91 8.134 0 28.984 4.392 35.944 5.91a1.897 1.897 0 0 0 2.301-1.856 4.978 4.978 0 0 0-3.933-4.872c-8.148-1.75-26.739-5.556-34.312-5.556-7.572 0-26.164 3.806-34.312 5.556a4.978 4.978 0 0 0-3.933 4.872Z" fill="#1A2E35"/><path d="M87.312 344.614a1.897 1.897 0 0 0 2.3 1.856c6.96-1.518 27.81-5.91 35.945-5.91 8.134 0 28.984 4.392 35.944 5.91a1.897 1.897 0 0 0 2.301-1.856 4.978 4.978 0 0 0-3.933-4.872c-8.148-1.75-26.739-5.556-34.312-5.556-7.572 0-26.164 3.806-34.312 5.556a4.978 4.978 0 0 0-3.933 4.872Z" stroke="#1A2E35" stroke-width="1.333" stroke-miterlimit="10" stroke-linecap="round" stroke-linejoin="round"/><path d="M163.803 350.855a3.543 3.543 0 1 0 0-7.087 3.543 3.543 0 0 0 0 7.087Zm0-10.084a6.541 6.541 0 1 1 0 13.082 6.541 6.541 0 0 1 0-13.082Z" fill="#868686"/><path d="M163.803 350.855a3.543 3.543 0 1 0 0-7.087 3.543 3.543 0 0 0 0 7.087Zm0-10.084a6.541 6.541 0 1 1 0 13.082 6.541 6.541 0 0 1 0-13.082Z" stroke="#1A2E35" stroke-width="1.333" stroke-miterlimit="10" stroke-linecap="round" stroke-linejoin="round"/><path d="M125.557 350.855a3.542 3.542 0 1 0 0-7.087 3.542 3.542 0 0 0 0 7.087Zm0-10.084a6.542 6.542 0 1 1 0 13.084 6.542 6.542 0 0 1 0-13.084Z" fill="#868686"/><path d="M125.557 350.855a3.542 3.542 0 1 0 0-7.087 3.542 3.542 0 0 0 0 7.087Zm0-10.084a6.542 6.542 0 1 1 0 13.084 6.542 6.542 0 0 1 0-13.084Z" stroke="#1A2E35" stroke-width="1.333" stroke-miterlimit="10" stroke-linecap="round" stroke-linejoin="round"/><path d="M88.105 350.855a3.543 3.543 0 1 0 0-7.086 3.543 3.543 0 0 0 0 7.086Zm0-10.084a6.542 6.542 0 1 1 .001 13.084 6.542 6.542 0 0 1 0-13.084Z" fill="#868686"/><path d="M88.105 350.855a3.543 3.543 0 1 0 0-7.086 3.543 3.543 0 0 0 0 7.086Zm0-10.084a6.542 6.542 0 1 1 .001 13.084 6.542 6.542 0 0 1 0-13.084Z" stroke="#1A2E35" stroke-width="1.333" stroke-miterlimit="10" stroke-linecap="round" stroke-linejoin="round"/><path d="M106.168 251.064a505.663 505.663 0 0 0 76.44-3.38c5.206-.7 9.415 2.864 9.415 8.088v1.249c0 5.225-4.209 10.133-9.415 10.834a505.662 505.662 0 0 1-76.44 3.378v-20.169Z" fill="#9A9A9A"/><path d="M106.168 251.064a505.663 505.663 0 0 0 76.44-3.38c5.206-.7 9.415 2.864 9.415 8.088v1.249c0 5.225-4.209 10.133-9.415 10.834a505.662 505.662 0 0 1-76.44 3.378v-20.169Z" stroke="#1A2E35" stroke-width="1.333" stroke-miterlimit="10" stroke-linecap="round" stroke-linejoin="round"/><path d="M66.078 267.52a582.65 582.65 0 0 0 47.505 3.985c3.888.109 7.043-3.005 7.043-6.885v-6.123c0-3.879-3.155-7.053-7.043-7.162a582.647 582.647 0 0 1-47.505-3.984c-3.863-.542-6.988 2.105-6.988 5.983v6.124c0 3.88 3.125 7.521 6.988 8.062Z" fill="#868686"/><path d="M66.078 267.52a582.65 582.65 0 0 0 47.505 3.985c3.888.109 7.043-3.005 7.043-6.885v-6.123c0-3.879-3.155-7.053-7.043-7.162a582.647 582.647 0 0 1-47.505-3.984c-3.863-.542-6.988 2.105-6.988 5.983v6.124c0 3.88 3.125 7.521 6.988 8.062Z" stroke="#1A2E35" stroke-width="1.333" stroke-miterlimit="10" stroke-linecap="round" stroke-linejoin="round"/><path d="M172.164 350.455c.047-3.562.777-10.692 4.968-19.887l5.473-19.725 17.06 7.287-4.798 15.104s14.665 6.997 20.08 8.886c3.607 1.256 14.394 3.731 13.861 8.351a2.487 2.487 0 0 1-2.488 2.488h-51.668a2.48 2.48 0 0 1-2.488-2.504Z" fill="#fff"/><path d="M172.164 350.455c.047-3.562.777-10.692 4.968-19.887l5.473-19.725 17.06 7.287-4.798 15.104s14.665 6.997 20.08 8.886c3.607 1.256 14.394 3.731 13.861 8.351a2.487 2.487 0 0 1-2.488 2.488h-51.668a2.48 2.48 0 0 1-2.488-2.504Z" stroke="#1A2E35" stroke-width="1.333" stroke-miterlimit="10" stroke-linecap="round" stroke-linejoin="round"/><path d="M181.55 338.921c2.666 1.954 16.882 4.442 13.316 1.599-3.564-2.844 0-7.287 0-7.287s14.666 6.998 20.081 8.886c3.607 1.257 14.394 3.732 13.861 8.352a2.487 2.487 0 0 1-2.488 2.487h-51.668a2.48 2.48 0 0 1-2.489-2.503c.04-3.008.575-8.57 3.265-15.764 2.937.036 3.457 2.275 6.122 4.23Z" fill="#38BFF2"/><path d="M181.55 338.921c2.666 1.954 16.882 4.442 13.316 1.599-3.564-2.844 0-7.287 0-7.287s14.666 6.998 20.081 8.886c3.607 1.257 14.394 3.732 13.861 8.352a2.487 2.487 0 0 1-2.488 2.487h-51.668a2.48 2.48 0 0 1-2.489-2.503c.04-3.008.575-8.57 3.265-15.764 2.937.036 3.457 2.275 6.122 4.23Z" stroke="#1A2E35" stroke-width="1.333" stroke-miterlimit="10" stroke-linecap="round" stroke-linejoin="round"/><path d="M159.822 352.958h-37.848c-.783 0-1.45-.554-1.599-1.322-.58-3.008-.447-9.735 2.967-18.669l.335-18.136 19.39 3.298-2.46 15.461s7.807 8.59 11.514 10.129c2.607 1.081 8.528 1.195 9.323 7.426.124.963-.65 1.813-1.622 1.813Z" fill="#fff"/><path d="M159.822 352.958h-37.848c-.783 0-1.45-.554-1.599-1.322-.58-3.008-.447-9.735 2.967-18.669l.335-18.136 19.39 3.298-2.46 15.461s7.807 8.59 11.514 10.129c2.607 1.081 8.528 1.195 9.323 7.426.124.963-.65 1.813-1.622 1.813Z" stroke="#1A2E35" stroke-width="1.333" stroke-miterlimit="10" stroke-linecap="round" stroke-linejoin="round"/><path d="M129.731 338.989c4.001 2.798 6.95 3.131 5.084-1.066-1.865-4.196 5.791-4.333 5.791-4.333s7.807 8.589 11.515 10.129c2.606 1.08 8.528 1.195 9.323 7.425.123.964-.65 1.815-1.622 1.815h-37.848a1.625 1.625 0 0 1-1.598-1.323c-.58-3.009-.448-9.736 2.966-18.669 2.92.711 2.386 3.225 6.389 6.022Z" fill="#38BFF2"/><path d="M129.731 338.989c4.001 2.798 6.95 3.131 5.084-1.066-1.865-4.196 5.791-4.333 5.791-4.333s7.807 8.589 11.515 10.129c2.606 1.08 8.528 1.195 9.323 7.425.123.964-.65 1.815-1.622 1.815h-37.848a1.625 1.625 0 0 1-1.598-1.323c-.58-3.009-.448-9.736 2.966-18.669 2.92.711 2.386 3.225 6.389 6.022Z" stroke="#1A2E35" stroke-width="1.333" stroke-miterlimit="10" stroke-linecap="round" stroke-linejoin="round"/><path d="M163.591 214.528s3.811 3.91 19.41 6.397c15.597 2.488 47.94 10.308 47.584 23.102-.355 12.795-30.209 81.033-30.209 81.033s-14.927-2.844-21.858-7.109c0 0 12.016-48.691 21.024-61.485 0 0-40.443-4.975-62.809-14.216s-9.216-30.271-9.216-30.271l36.074 2.549Z" fill="#1A2E35"/><path d="M163.591 214.528s3.811 3.91 19.41 6.397c15.597 2.488 47.94 10.308 47.584 23.102-.355 12.795-30.209 81.033-30.209 81.033s-14.927-2.844-21.858-7.109c0 0 12.016-48.691 21.024-61.485 0 0-40.443-4.975-62.809-14.216s-9.216-30.271-9.216-30.271l36.074 2.549Z" stroke="#1A2E35" stroke-width="1.333" stroke-miterlimit="10" stroke-linecap="round" stroke-linejoin="round"/><path d="M138.181 212.732s-5.738 9.615-1.448 14.946c4.289 5.331 28.619 15.283 25.873 27.367-2.747 12.083-11.831 29.143-17.756 69.659 0 0-13.779-2.132-23.02-6.041 0 0-1.531-41.228 9.186-58.998 0 0-30.688-5.686-33.797-15.993-3.11-10.307 2.708-26.068 2.82-31.693l38.142.753Z" fill="#1A2E35"/><path d="M138.181 212.732s-5.738 9.615-1.448 14.946c4.289 5.331 28.619 15.283 25.873 27.367-2.747 12.083-11.831 29.143-17.756 69.659 0 0-13.779-2.132-23.02-6.041 0 0-1.531-41.228 9.186-58.998 0 0-30.688-5.686-33.797-15.993-3.11-10.307 2.708-26.068 2.82-31.693l38.142.753Z" stroke="#1A2E35" stroke-width="1.333" stroke-miterlimit="10" stroke-linecap="round" stroke-linejoin="round"/><path d="M156.67 227.999a13.079 13.079 0 0 1 2.123.035M155.32 221.637s-6.303 1.854-8.775 10.067c-.196.651.615 1.149 1.093.665 1.312-1.326 3.359-2.956 6.07-3.811M202.507 256.022c0-3.466 14.928-5.331 10.929-8.53-3.998-3.198-13.061 7.197-13.061 7.197M129.161 269.883c0-3.969 14.265-6.131 13.552-10.396-.712-4.265-9.775 4.132-9.775 4.132" stroke="gray" stroke-linecap="round" stroke-linejoin="round"/><path d="m201.947 325.303-1.57 3.624a.929.929 0 0 1-1.057.542c-3.448-.777-17.822-4.173-22.869-7.793a.914.914 0 0 1-.338-.963l.979-4.04a.933.933 0 0 1 1.357-.597c2.267 1.239 8.591 4.192 22.87 7.952.554.145.855.75.628 1.275Z" fill="#9A9A9A"/><path d="m201.947 325.303-1.57 3.624a.929.929 0 0 1-1.057.542c-3.448-.777-17.822-4.173-22.869-7.793a.914.914 0 0 1-.338-.963l.979-4.04a.933.933 0 0 1 1.357-.597c2.267 1.239 8.591 4.192 22.87 7.952.554.145.855.75.628 1.275Z" stroke="#1A2E35" stroke-width="1.333" stroke-miterlimit="10" stroke-linecap="round" stroke-linejoin="round"/><path d="M146.586 322.318c.079-.545-.448-.996-.963-.805-1.022.38-2.754.676-5.356.081-3.952-.903-15.27-4.485-18.636-5.559a.733.733 0 0 0-.955.706v4.713c0 .293.165.554.432.672 2.647 1.179 16.813 7.247 24.227 5.594a.738.738 0 0 0 .557-.62l.694-4.782Z" fill="#9A9A9A"/><path d="M146.586 322.318c.079-.545-.448-.996-.963-.805-1.022.38-2.754.676-5.356.081-3.952-.903-15.27-4.485-18.636-5.559a.733.733 0 0 0-.955.706v4.713c0 .293.165.554.432.672 2.647 1.179 16.813 7.247 24.227 5.594a.738.738 0 0 0 .557-.62l.694-4.782Z" stroke="#1A2E35" stroke-width="1.333" stroke-miterlimit="10" stroke-linecap="round" stroke-linejoin="round"/><path d="M135.184 223.628c.135 1.46.593 2.862 1.548 4.05 3.13 3.888 16.92 10.235 23.089 18.074M135.849 218.206a18.693 18.693 0 0 0-.543 2.401" stroke="gray" stroke-width="1.333" stroke-linecap="round" stroke-linejoin="round"/><path d="M217.505 344.518s-1.066 1.688-1.866 5.065h-38.506s-.102-2.582-2.143-4.398M150.6 344.518s-5.331.4-7.33 5.065h-20.125s-1.066-2.399-1.066-4.398" stroke="#1A2E35" stroke-width="1.333" stroke-miterlimit="10" stroke-linecap="round" stroke-linejoin="round"/><path d="M182.159 154.226a393.11 393.11 0 0 1-1.509 5.57c-5.331 19.192-12.261 55.71-12.261 55.71-34.119 7.197-70.104 0-70.104 0-.196-7.962.773-18.462 1.853-29.492-5.595-1.548-9.63-6.713-9.85-15.289-.266-10.396 1.618-29.113 2.666-37.851.923-7.69.267-12.262 12.176-18.088 5.969-3.446 15.88-5.076 28.074-6.702 23.99-3.198 41.301 1.649 47.446 4.265 4.87-1.282 6.225 4.437 6.225 4.437 2.699-2.044 5.831 6.594 5.831 6.594 7.892 10.07 14.099 27.025 16.162 33.072a7.034 7.034 0 0 0 2.41 3.317c5.597 4.268 2.486 9.545 2.486 9.545l-11.462 3.513s-5.552 1.445-9.795-5.858c-3.549-6.109-9.349-16.465-10.348-12.743Z" fill="#38BFF2"/><path opacity=".3" d="M200.191 168.007s.266-5.33 4.531-6.263c4.265-.933-1.199-2.525-4.531-1.728-3.332.795-2.565-2.137-5.413-6.935-2.85-4.798-4.249-8.591-6.682-5.824-2.434 2.766-4.91 3.147-5.937 6.969-1.027 3.821 4.038 12.742 4.038 12.742l7.956 6.171 4.039 2.265h6.032l2.06-5.214-6.093-2.183Z" fill="#000"/><path d="M182.16 154.226a393.018 393.018 0 0 1-1.51 5.57c-5.331 19.192-12.26 55.71-12.26 55.71-34.119 7.197-70.104 0-70.104 0-.196-7.962.773-18.462 1.853-29.492-5.596-1.548-9.63-6.713-9.85-15.289-.266-10.396 1.618-29.114 2.666-37.851.922-7.69.266-12.262 12.176-18.089 5.969-3.446 15.879-5.075 28.073-6.701 23.99-3.198 41.302 1.649 47.446 4.265 4.871-1.283 6.226 4.437 6.226 4.437 2.698-2.044 5.831 6.594 5.831 6.594 7.891 10.07 14.099 27.025 16.162 33.072a7.042 7.042 0 0 0 2.409 3.317c5.598 4.268 2.487 9.545 2.487 9.545l-11.462 3.513s-5.553 1.445-9.795-5.858c-3.55-6.109-9.349-16.465-10.348-12.743Z" stroke="#1A2E35" stroke-width="1.333" stroke-miterlimit="10" stroke-linecap="round" stroke-linejoin="round"/><path opacity=".3" d="M98.287 215.506c-.142-5.76.33-12.859 1.007-20.515-1.162 16.231 32.648 21.31 33.714 12.513 1.066-8.802-32.868-21.49-14.403-17.054 16.114 3.87 47.334.172 55.018-.831-2.951 13.868-5.232 25.887-5.232 25.887-34.119 7.197-70.104 0-70.104 0ZM113.789 133.94s4.824 14.127 4.815 21.591c-.011 7.456 13.534 12.466 13.558 12.476-7.253-1.479-14.314-3.429-17.689-4.404a2.594 2.594 0 0 1-1.871-2.723c.665-7.652 1.386-17.956 1.185-26.94h.002Z" fill="#000"/><path d="M186.628 130.383s.162 10.162-3.556 19.502c-.346.866.639 1.656 1.397 1.113 1.828-1.309 4.415-3.978 6.754-9.353M96.153 173.923c2.812-9.328 7.681-11.665 11.454-11.899.607-.038.808-.831.275-1.12-2.19-1.186-6.463-2.123-11.73 3.689" stroke="#1A2E35" stroke-miterlimit="10" stroke-linecap="round" stroke-linejoin="round"/><path d="M150.24 147.219a1.602 1.602 0 1 0 3.205-.001 1.602 1.602 0 0 0-3.205.001Z" fill="#9A9A9A"/><path d="M150.24 147.219a1.602 1.602 0 1 0 3.205-.001 1.602 1.602 0 0 0-3.205.001Z" stroke="#1A2E35" stroke-miterlimit="10" stroke-linecap="round" stroke-linejoin="round"/><path d="M148.068 165.367a1.603 1.603 0 1 0 3.205-.001 1.603 1.603 0 0 0-3.205.001Z" fill="#9A9A9A"/><path d="M148.068 165.367a1.603 1.603 0 1 0 3.205-.001 1.603 1.603 0 0 0-3.205.001Z" stroke="#1A2E35" stroke-miterlimit="10" stroke-linecap="round" stroke-linejoin="round"/><path d="M142.713 209.105a1.603 1.603 0 1 0 3.202 0 1.603 1.603 0 0 0-3.202 0Z" fill="#9A9A9A"/><path d="M142.713 209.105a1.603 1.603 0 1 0 3.202 0 1.603 1.603 0 0 0-3.202 0Z" stroke="#1A2E35" stroke-width="1.333" stroke-miterlimit="10" stroke-linecap="round" stroke-linejoin="round"/><path d="M173.33 177.255s5.237 4.996 2.746 5.074c-2.489.078-5.64-3.342-8.528-3.742-2.89-.399 1.775-2.165 1.775-2.165l4.007.833Z" fill="#fff"/><path d="M173.33 177.255s5.237 4.996 2.746 5.074c-2.489.078-5.64-3.342-8.528-3.742-2.89-.399 1.775-2.165 1.775-2.165l4.007.833Z" stroke="#1A2E35" stroke-width="1.333" stroke-miterlimit="10" stroke-linecap="round" stroke-linejoin="round"/><path d="M142.761 171.643a2.306 2.306 0 0 1 1.738-.578c2.565.206 9.913.764 12.695.592 4.92-.303 19.428-3.377 19.428-3.377a2.246 2.246 0 0 1 1.008.058l8.984 2.639c.328.097.628.266.88.498l5.438 4.997c.179.165.33.358.447.573l1.126 2.065a2.225 2.225 0 0 1-.394 2.655l-8.998.281a2.228 2.228 0 0 1-1.519-.535l-2.665-2.285a2.298 2.298 0 0 1-.451-.531c-.657-1.053-3.168-4.58-7.149-4.239 0 0 8.521 4.531 6.922 6.397-1.599 1.866-8.13-3.465-10.262-2.932-2.087.522-2.274 5.763-13.88 3.868a3.63 3.63 0 0 0-1.552.076l-10.554 2.951a2.439 2.439 0 0 1-3.02-1.752c-.79-3.088-1.51-8.424 1.778-11.421Z" fill="#fff"/><path d="M142.761 171.643a2.306 2.306 0 0 1 1.738-.578c2.565.206 9.913.764 12.695.592 4.92-.303 19.428-3.377 19.428-3.377a2.246 2.246 0 0 1 1.008.058l8.984 2.639c.328.097.628.266.88.498l5.438 4.997c.179.165.33.358.447.573l1.126 2.065a2.225 2.225 0 0 1-.394 2.655l-8.998.281a2.228 2.228 0 0 1-1.519-.535l-2.665-2.285a2.298 2.298 0 0 1-.451-.531c-.657-1.053-3.168-4.58-7.149-4.239 0 0 8.521 4.531 6.922 6.397-1.599 1.866-8.13-3.465-10.262-2.932-2.087.522-2.274 5.763-13.88 3.868a3.63 3.63 0 0 0-1.552.076l-10.554 2.951a2.439 2.439 0 0 1-3.02-1.752c-.79-3.088-1.51-8.424 1.778-11.421Z" stroke="#1A2E35" stroke-width="1.333" stroke-miterlimit="10" stroke-linecap="round" stroke-linejoin="round"/><path d="m175.367 170.191 2.264.382a6.05 6.05 0 0 1 2.975 1.411l2.352 2.059c.415.363.777.78 1.079 1.24l1.544 2.362c.17.26.362.504.571.734.916 1.011 3.44 4.013.714 3.613" fill="#fff"/><path d="m175.367 170.191 2.264.382a6.05 6.05 0 0 1 2.975 1.411l2.352 2.059c.415.363.777.78 1.079 1.24l1.544 2.362c.17.26.362.504.571.734.916 1.011 3.44 4.013.714 3.613" stroke="#1A2E35" stroke-width="1.333" stroke-miterlimit="10" stroke-linecap="round" stroke-linejoin="round"/><path d="m181.731 170.991 2.34.632a4.498 4.498 0 0 1 1.941 1.098l1.824 1.752c.173.166.333.345.477.538l2.994 3.976s1.603 2.816 0 2.866" fill="#fff"/><path d="m181.731 170.991 2.34.632a4.498 4.498 0 0 1 1.941 1.098l1.824 1.752c.173.166.333.345.477.538l2.994 3.976s1.603 2.816 0 2.866M113.719 131.678c.394 9.47-.395 20.9-1.118 29.202a2.597 2.597 0 0 0 1.871 2.723c4.656 1.344 16.328 4.551 25.843 5.806" stroke="#1A2E35" stroke-width="1.333" stroke-miterlimit="10" stroke-linecap="round" stroke-linejoin="round"/><path d="M113.188 125.067c.14 1.084.254 2.224.344 3.409M109.609 115.081c1.223 1.052 2.123 3.001 2.77 5.565" stroke="#1A2E35" stroke-miterlimit="10" stroke-linecap="round" stroke-linejoin="round"/><path d="M162.995 108.75s-.666-2.132-4.265-3.332c-3.598-1.199-16.05-3.121-22.456 0-6.409 3.121 5.864 20.059 5.864 20.059l5.73 7.862 5.064 3.799 2.267-6.754 2.932-3.042s6.33-5.197 5.797-10.329c-.533-5.13-.933-8.263-.933-8.263Z" fill="#fff"/><path d="M136.824 108.046c8.464 26.571 15.927 27.759 15.927 27.759 2.488-9.773 4.62-7.64 7.997-13.748 2.709-4.899 1.792-11.111 1.325-13.374a1.855 1.855 0 0 0-.964-1.283c-8.398-4.275-18.675-2.703-22.913-1.767-1.078.238-1.707 1.362-1.372 2.413Zm-5.285.262c1-3.506 5.574-4.489 5.574-4.489 21.857-3.732 26.478 4.213 26.478 4.213 4.442 12.387 0 22.351 0 22.351s-6.22-2.574-7.286 0c-1.066 2.574-3.021 8.088-3.021 8.088s-4.265-2.133-7.641-6.575c-3.376-4.443-11.317 0-11.317 0-5.097-8.885-2.787-23.588-2.787-23.588Z" fill="#38BFF2"/><path opacity=".4" d="M136.824 108.046c8.464 26.572 15.927 27.759 15.927 27.759 2.488-9.773 4.62-7.64 7.997-13.747 2.709-4.9 1.792-11.112 1.325-13.375a1.855 1.855 0 0 0-.964-1.283c-8.398-4.275-18.675-2.703-22.913-1.767-1.078.238-1.707 1.362-1.372 2.413Zm-5.285.263c1-3.507 5.574-4.49 5.574-4.49 21.857-3.732 26.478 4.213 26.478 4.213 4.442 12.387 0 22.352 0 22.352s-6.22-2.575-7.286 0c-1.066 2.573-3.021 8.087-3.021 8.087s-4.265-2.133-7.641-6.574c-3.376-4.443-11.317 0-11.317 0-5.097-8.886-2.787-23.588-2.787-23.588Z" fill="#fff"/><path d="M136.823 108.046c8.464 26.571 15.928 27.759 15.928 27.759 2.487-9.773 4.619-7.64 7.996-13.748 2.709-4.899 1.792-11.111 1.325-13.374a1.854 1.854 0 0 0-.963-1.283c-8.399-4.275-18.675-2.703-22.913-1.767-1.078.238-1.707 1.362-1.373 2.413Zm-5.285.262c1-3.506 5.574-4.489 5.574-4.489 21.858-3.732 26.479 4.213 26.479 4.213 4.442 12.387 0 22.351 0 22.351s-6.221-2.574-7.287 0c-1.066 2.574-3.02 8.088-3.02 8.088s-4.265-2.133-7.642-6.575c-3.376-4.443-11.317 0-11.317 0-5.096-8.885-2.787-23.588-2.787-23.588v0Z" stroke="#1A2E35" stroke-width="1.333" stroke-miterlimit="10" stroke-linecap="round" stroke-linejoin="round"/><path d="M167.222 67.705s18.836 3.772 8.463 16.024c-11.506 13.588-8.463-16.024-8.463-16.024Z" fill="#1A2E35"/><path d="M167.222 67.705s18.836 3.772 8.463 16.024c-11.506 13.588-8.463-16.024-8.463-16.024Z" stroke="#1A2E35" stroke-width="1.333" stroke-miterlimit="10" stroke-linecap="round" stroke-linejoin="round"/><path d="M174.651 97.599s4.478-18.126-4.052-26.834c-8.529-8.706-17.77-10.484-24.701-6.219-6.93 4.265-9.773 14.927-8.707 20.436 1.067 5.508.546 25.234 10.047 33.408 9.5 8.175 15.348 6.16 21.63-4.976 4.128-7.316 6.103-9.418 5.783-15.815Z" fill="#fff"/><path d="M174.651 97.599s4.478-18.126-4.052-26.834c-8.529-8.706-17.77-10.484-24.701-6.219-6.93 4.265-9.773 14.927-8.707 20.436 1.067 5.508.546 25.234 10.047 33.408 9.5 8.175 15.348 6.16 21.63-4.976 4.128-7.316 6.103-9.418 5.783-15.815Z" stroke="#1A2E35" stroke-width="1.333" stroke-miterlimit="10" stroke-linecap="round" stroke-linejoin="round"/><path d="M141.637 94.045s7.16-7.108 9.354-15.46c2.193-8.351 3.436-9.774 11.611-5.686 8.174 4.087 20.928-1.415 17.592-11.728-3.507-10.84-14.216 3.198-24.523-.356s-17.617 2.843-17.633 12.261c0 0-6.229 6.042.016 21.68l3.583-.71Z" fill="#1A2E35"/><path d="M141.637 94.045s7.16-7.108 9.354-15.46c2.193-8.351 3.436-9.774 11.611-5.686 8.174 4.087 20.928-1.415 17.592-11.728-3.507-10.84-14.216 3.198-24.523-.356s-17.617 2.843-17.633 12.261c0 0-6.229 6.042.016 21.68l3.583-.71Z" stroke="#1A2E35" stroke-width="1.333" stroke-miterlimit="10" stroke-linecap="round" stroke-linejoin="round"/><path d="M143.884 92.853s-1.812-9.936-6.852-9.015c-5.039.923-1.436 15.583 4.492 13.984" fill="#fff"/><path d="M143.884 92.853s-1.812-9.936-6.852-9.015c-5.039.923-1.436 15.583 4.492 13.984" stroke="#1A2E35" stroke-width="1.333" stroke-miterlimit="10" stroke-linecap="round" stroke-linejoin="round"/><path d="M167.845 96.222s1.974 9.221 1.332 10.806c-.643 1.586-6.748.372-6.748.372" fill="#fff"/><path d="M167.845 96.222s1.974 9.221 1.332 10.806c-.643 1.586-6.748.372-6.748.372" stroke="#1A2E35" stroke-width="1.333" stroke-miterlimit="10" stroke-linecap="round" stroke-linejoin="round"/><path d="M161.581 111.416s-4.781 1.888-8.989-4.388l8.989 4.388Z" fill="#fff"/><path d="M161.581 111.416s-4.781 1.888-8.989-4.388" stroke="#1A2E35" stroke-width="1.333" stroke-miterlimit="10" stroke-linecap="round" stroke-linejoin="round"/><path d="M171.116 96.991c-.178.86.046 1.632.501 1.727.454.094.969-.525 1.147-1.385.178-.86-.046-1.632-.501-1.726-.455-.095-.968.525-1.147 1.384ZM159.423 96.051c-.178.86.046 1.633.501 1.727.454.094.969-.526 1.147-1.385.178-.859-.046-1.632-.501-1.727-.455-.094-.969.526-1.147 1.385Z" fill="#1A2E35"/><path d="M168.657 96.592c-.241 2.415 2.187 4.636 5.423 4.959 3.236.323 6.055-1.373 6.297-3.788.241-2.416-2.302-3.482-5.538-3.805-3.236-.323-5.94.218-6.182 2.634ZM153.569 95.083c-.242 2.416 2.187 4.636 5.423 4.959 3.236.324 6.055-1.372 6.296-3.787.242-2.416-2.301-3.481-5.537-3.804-3.236-.324-5.94.217-6.182 2.632Z" stroke="#1A2E35" stroke-width="1.333" stroke-miterlimit="10" stroke-linecap="round" stroke-linejoin="round"/><path d="m168.657 96.592-3.369-.337 3.369.337Z" fill="#fff"/><path d="m168.657 96.592-3.369-.337" stroke="#1A2E35" stroke-width="1.333" stroke-miterlimit="10" stroke-linecap="round" stroke-linejoin="round"/><path d="m153.983 93.874-12.394-7.31 12.394 7.31Z" fill="#fff"/><path d="m153.983 93.874-12.394-7.31" stroke="#1A2E35" stroke-width="1.333" stroke-miterlimit="10" stroke-linecap="round" stroke-linejoin="round"/><path d="m139.462 105.242-.584 1.42.584-1.42Z" fill="#fff"/><path d="m139.462 105.242-.584 1.42" stroke="#1A2E35" stroke-width="1.333" stroke-miterlimit="10" stroke-linecap="round" stroke-linejoin="round"/><path d="M175.646 92.694s-1.887-2.402-4.204-1.245l4.204 1.245Z" fill="#fff"/><path d="M175.646 92.694s-1.887-2.402-4.204-1.245" stroke="#1A2E35" stroke-width="1.333" stroke-miterlimit="10" stroke-linecap="round" stroke-linejoin="round"/><path d="M156.327 91.62s3.317-3.16 6.508-.943l-6.508.944Z" fill="#fff"/><path d="M156.327 91.62s3.317-3.16 6.508-.943" stroke="#1A2E35" stroke-width="1.333" stroke-miterlimit="10" stroke-linecap="round" stroke-linejoin="round"/><path d="M171.458 62.367c-5.042 1.604-13.531 3.561-20.467 1.468-10.603-3.199-7.004 8.739-9.403 12.033M175.825 60.77s-.847.373-2.281.89M163.087 68.31a30.797 30.797 0 0 1-1.773-.605M174.65 66.901s-2.253 3.493-9.534 1.938M147.575 73.738c-.448 3.034-1.596 7.433-4.52 11.422" stroke="gray" stroke-width="1.333" stroke-linecap="round" stroke-linejoin="round"/><path d="M147.853 69.966s.027.717-.066 1.908" stroke="gray" stroke-width="1.333" stroke-linecap="round" stroke-linejoin="round"/><path opacity=".3" d="M138.368 184.343c.858.768.359 2.184-.792 2.19-7.199.033-26.625.081-34.157-.348-9.33-.533-2.21-10.685 5.292-6.809 6.914 3.573 21.457-2.375 29.657 4.967Z" fill="#000"/><path d="M219.561 174.348s-4.358-11.611-15.296-9.768c-11.049 1.862-2.578 11.001 2.681 11.818 0 0 .798-3.188 12.615-2.05Z" fill="#fff"/><path d="M219.561 174.348s-4.358-11.611-15.296-9.768c-11.049 1.862-2.578 11.001 2.681 11.818 0 0 .798-3.188 12.615-2.05Z" stroke="#1A2E35" stroke-width="1.333" stroke-miterlimit="10" stroke-linecap="round" stroke-linejoin="round"/><path d="M228.825 180.936c1.443 1.443 4.905 1.567 2.577-1.56-2.577-3.46-5.482-4.62-7.464-5.505-5.189-2.316-7.212-1.852-11.906-2.881-4.695-1.028-5.572.881-7.197 1.771-3.869 2.121-4.798 2.489-5.776 4.621-.977 2.133-2.043 4.908.978 4.908 2.754 0 2.932-4.553 5.597-4.375 2.666.177 3.999 4.375 5.865 4.375h.711c1.599 0 1.685-1.331.707-3.422a67.346 67.346 0 0 0-2.04-3.974s2.318 1.055 3.598 3.776c1.28 2.721 1.515 3.867 3.868 3.867 2.352 0 2.19-1.747-.151-5.606 0 0 2.108 1.158 3.261 3.336 1.152 2.18 1.753 2.023 3.263 2.023 1.976 0 1.843-3.265-1.667-5.397 0 0 .778-.955 5.776 4.043Z" fill="#fff"/><path d="M228.825 180.936c1.443 1.443 4.905 1.567 2.577-1.56-2.577-3.46-5.482-4.62-7.464-5.505-5.189-2.316-7.212-1.852-11.906-2.881-4.695-1.028-5.572.881-7.197 1.771-3.869 2.121-4.798 2.489-5.776 4.621-.977 2.133-2.043 4.908.978 4.908 2.754 0 2.932-4.553 5.597-4.375 2.666.177 3.999 4.375 5.865 4.375h.711c1.599 0 1.685-1.331.707-3.422a67.346 67.346 0 0 0-2.04-3.974s2.318 1.055 3.598 3.776c1.28 2.721 1.515 3.867 3.868 3.867 2.352 0 2.19-1.747-.151-5.606 0 0 2.108 1.158 3.261 3.336 1.152 2.18 1.753 2.023 3.263 2.023 1.976 0 1.843-3.265-1.667-5.397 0 0 .778-.955 5.776 4.043Z" stroke="#1A2E35" stroke-width="1.333" stroke-miterlimit="10" stroke-linecap="round" stroke-linejoin="round"/><path d="M215.117 173.139s1.38-.066 2.245 2.266l-2.245-2.266Z" fill="#fff"/><path d="M215.117 173.139s1.38-.066 2.245 2.266M39.918 72.754a220.146 220.146 0 0 0-19.627 17.422M47.357 67.16c-1.304.937-2.599 1.89-3.886 2.859M54.788 62.048c-1.337.88-2.667 1.775-3.988 2.687M109.333 36.245a216.371 216.371 0 0 0-50.216 23.029M120.981 32.967c-2.159.543-4.311 1.12-6.458 1.73M132.959 30.31c-2.344.451-4.681.942-7.01 1.47M143.635 28.528c-2.022.287-4.039.6-6.054.944M207.941 28.958a219.144 219.144 0 0 0-59.709-1.031M216.739 30.508a216.85 216.85 0 0 0-5.455-1.004M225.273 32.371a219.846 219.846 0 0 0-5.46-1.233M235.77 35.163c-1.852-.543-3.71-1.06-5.574-1.552M299.22 65.665a216.331 216.331 0 0 0-57.574-28.69M307.792 71.994a219.781 219.781 0 0 0-5.046-3.805M316.388 79.028a221.992 221.992 0 0 0-5.544-4.62M328.392 90.176a222.135 222.135 0 0 0-7.639-7.284" stroke="#1A2E35" stroke-miterlimit="10" stroke-linecap="round" stroke-linejoin="round"/><path d="M245.012 51.227c0 14.649 11.876 26.524 26.525 26.524s26.525-11.875 26.525-26.524c0-14.65-11.876-26.524-26.525-26.524s-26.525 11.874-26.525 26.524Z" fill="#38BFF2"/><path opacity=".3" d="M245.419 50.593c0 14.649 11.876 26.524 26.524 26.524 14.65 0 26.526-11.875 26.526-26.524 0-14.65-11.876-26.524-26.526-26.524-14.648 0-26.524 11.874-26.524 26.524Z" fill="#fff"/><path d="M245.013 51.227c0 14.649 11.875 26.524 26.524 26.524 14.65 0 26.525-11.875 26.525-26.524 0-14.65-11.875-26.524-26.525-26.524-14.649 0-26.524 11.874-26.524 26.524Z" stroke="#1A2E35" stroke-miterlimit="10" stroke-linecap="round" stroke-linejoin="round"/><path d="M322.934 125.897h15.303c7.042 0 12.75-5.708 12.75-12.75V97.844c0-7.041-5.708-12.75-12.75-12.75h-15.303c-7.041 0-12.75 5.709-12.75 12.75v15.303c0 7.042 5.709 12.75 12.75 12.75Z" fill="#38BFF2"/><path d="M322.934 125.897h15.303c7.042 0 12.75-5.708 12.75-12.75V97.844c0-7.041-5.708-12.75-12.75-12.75h-15.303c-7.041 0-12.75 5.709-12.75 12.75v15.303c0 7.042 5.709 12.75 12.75 12.75Z" stroke="#1A2E35" stroke-miterlimit="10" stroke-linecap="round" stroke-linejoin="round"/><path d="M345.372 106.482v-1.972l-8.158-3.519v2.133l5.625 2.372-5.625 2.372v2.133l8.158-3.519Z" fill="#fff"/><path d="M345.372 106.482v-1.972l-8.158-3.519v2.133l5.625 2.372-5.625 2.372v2.133l8.158-3.519Z" stroke="#1A2E35" stroke-miterlimit="10" stroke-linecap="round" stroke-linejoin="round"/><path d="M328.174 96.166h-2.532l7.357 18.659h2.531l-7.356-18.659Z" fill="#fff"/><path d="M328.174 96.166h-2.532l7.357 18.659h2.531l-7.356-18.659Z" stroke="#1A2E35" stroke-miterlimit="10" stroke-linecap="round" stroke-linejoin="round"/><path d="m323.957 107.868-5.625-2.372 5.625-2.372v-2.133l-8.157 3.519v1.972l8.157 3.519v-2.133Z" fill="#fff"/><path d="m323.957 107.868-5.625-2.372 5.625-2.372v-2.133l-8.157 3.519v1.972l8.157 3.519v-2.133Z" stroke="#1A2E35" stroke-miterlimit="10" stroke-linecap="round" stroke-linejoin="round"/><path d="M60.712 45.225c0 12.504 10.137 22.64 22.64 22.64 12.504 0 22.641-10.136 22.641-22.64 0-12.504-10.137-22.64-22.641-22.64-12.503 0-22.64 10.136-22.64 22.64Z" fill="#38BFF2"/><path opacity=".2" d="M60.565 45.664c0 12.504 10.137 22.64 22.64 22.64 12.504 0 22.64-10.136 22.64-22.64 0-12.504-10.136-22.64-22.64-22.64-12.503 0-22.64 10.136-22.64 22.64Z" fill="#000"/><path d="M60.712 45.225c0 12.504 10.137 22.64 22.639 22.64 12.505 0 22.641-10.136 22.641-22.64 0-12.504-10.136-22.64-22.641-22.64-12.502 0-22.639 10.136-22.639 22.64Z" stroke="#1A2E35" stroke-miterlimit="10" stroke-linecap="round" stroke-linejoin="round"/><path d="M170.135 50.458h20.458c8.007 0 14.499-6.493 14.499-14.5V15.5c0-8.009-6.492-14.5-14.499-14.5h-20.458c-8.008 0-14.5 6.491-14.5 14.5v20.456c0 8.008 6.492 14.5 14.5 14.5Z" fill="#38BFF2"/><path d="M170.135 50.458h20.458c8.007 0 14.499-6.493 14.499-14.5V15.5c0-8.009-6.492-14.5-14.499-14.5h-20.458c-8.008 0-14.5 6.491-14.5 14.5v20.456c0 8.008 6.492 14.5 14.5 14.5Z" stroke="#1A2E35" stroke-miterlimit="10" stroke-linecap="round" stroke-linejoin="round"/><path d="M.918 93.108c0 12.471 10.109 22.581 22.581 22.581s22.58-10.11 22.58-22.581c0-12.472-10.108-22.582-22.58-22.582-12.472 0-22.581 10.11-22.581 22.582Z" fill="#38BFF2"/><path opacity=".3" d="M1.511 93.564c0 12.472 10.109 22.582 22.582 22.582 12.471 0 22.58-10.11 22.58-22.582 0-12.471-10.109-22.581-22.58-22.581-12.473 0-22.582 10.11-22.582 22.581Z" fill="#fff"/><path d="M.918 93.108c0 12.471 10.11 22.581 22.582 22.581 12.471 0 22.58-10.11 22.58-22.581 0-12.472-10.109-22.582-22.58-22.582-12.473 0-22.582 10.11-22.582 22.582Z" stroke="#1A2E35" stroke-miterlimit="10" stroke-linecap="round" stroke-linejoin="round"/><path d="M290.448 353.137h3.952l1.066-157.006h-5.018v157.006Z" fill="#868686"/><path d="M290.448 353.137h3.952l1.066-157.006h-5.018v157.006Z" stroke="#1A2E35" stroke-width="1.333" stroke-miterlimit="10" stroke-linecap="round" stroke-linejoin="round"/><path d="M286.497 353.137h3.951V196.131h-5.017l1.066 157.006Z" fill="#9A9A9A"/><path d="M286.497 353.137h3.951V196.131h-5.017l1.066 157.006Z" stroke="#1A2E35" stroke-width="1.333" stroke-miterlimit="10" stroke-linecap="round" stroke-linejoin="round"/><path d="M64.668 196.131h271.039v-9.613H64.668v9.613Z" fill="#1A2E35" stroke="#1A2E35" stroke-width="1.333" stroke-miterlimit="10" stroke-linecap="round" stroke-linejoin="round"/><path d="M8.023 196.131H68.71v-9.613H8.023v9.613Z" fill="#868686" stroke="#1A2E35" stroke-width="1.333" stroke-miterlimit="10" stroke-linecap="round" stroke-linejoin="round"/><path d="M52.368 211.979h269.458V196.13H52.368v15.849Z" fill="#38BFF2" stroke="#1A2E35" stroke-width="1.333" stroke-miterlimit="10"/><path d="M52.368 211.979H20.99V196.13h31.377v15.849Z" fill="#38BFF2"/><path opacity=".3" d="M52.367 211.979H20.991v-15.848h31.376v15.848Z" fill="#000"/><path d="M52.368 211.979H20.99V196.13h31.377v15.849Z" stroke="#1A2E35" stroke-width="1.333" stroke-miterlimit="10"/><path d="M52.367 353.137h3.95l1.066-157.006h-5.016v157.006Z" fill="#868686"/><path d="M52.367 353.137h3.95l1.066-157.006h-5.016v157.006Z" stroke="#1A2E35" stroke-width="1.333" stroke-miterlimit="10" stroke-linecap="round" stroke-linejoin="round"/><path d="M48.416 353.137h3.951V196.131H47.35l1.066 157.006Z" fill="#9A9A9A"/><path d="M48.416 353.137h3.951V196.131H47.35l1.066 157.006Z" stroke="#1A2E35" stroke-width="1.333" stroke-miterlimit="10" stroke-linecap="round" stroke-linejoin="round"/><path d="M321.825 353.137h3.952l1.066-157.006h-5.018v157.006Z" fill="#868686"/><path d="M321.825 353.137h3.952l1.066-157.006h-5.018v157.006Z" stroke="#1A2E35" stroke-width="1.333" stroke-miterlimit="10" stroke-linecap="round" stroke-linejoin="round"/><path d="M317.873 353.137h3.951V196.131h-5.017l1.066 157.006Z" fill="#9A9A9A"/><path d="M317.873 353.137h3.951V196.131h-5.017l1.066 157.006Z" stroke="#1A2E35" stroke-width="1.333" stroke-miterlimit="10" stroke-linecap="round" stroke-linejoin="round"/><path d="M20.99 353.137h3.951l1.066-157.006h-5.016v157.006Z" fill="#868686"/><path d="M20.99 353.137h3.951l1.066-157.006h-5.016v157.006Z" stroke="#1A2E35" stroke-width="1.333" stroke-miterlimit="10" stroke-linecap="round" stroke-linejoin="round"/><path d="M17.04 353.137h3.95V196.131h-5.017l1.066 157.006Z" fill="#9A9A9A"/><path d="M17.04 353.137h3.95V196.131h-5.017l1.066 157.006Z" stroke="#1A2E35" stroke-width="1.333" stroke-miterlimit="10" stroke-linecap="round" stroke-linejoin="round"/><path d="M160.556 185.452h31.766c.649 0 1.176-.527 1.176-1.177v-2.622l-34.119 1.066v1.556c0 .65.527 1.177 1.177 1.177Z" fill="#868686"/><path d="M160.556 185.452h31.766c.649 0 1.176-.527 1.176-1.177v-2.622l-34.119 1.066v1.556c0 .65.527 1.177 1.177 1.177Z" stroke="#1A2E35" stroke-width="1.333" stroke-miterlimit="10" stroke-linecap="round" stroke-linejoin="round"/><path d="M197.041 185.452h63.86c1.024 0 2.022-.758 2.333-1.772l13.707-44.504c.377-1.221-.383-2.304-1.613-2.304h-63.861c-1.023 0-2.021.758-2.333 1.772l-13.707 44.504c-.377 1.219.383 2.304 1.614 2.304Z" fill="#9A9A9A"/><path d="M197.041 185.452h63.86c1.024 0 2.022-.758 2.333-1.772l13.707-44.504c.377-1.221-.383-2.304-1.613-2.304h-63.861c-1.023 0-2.021.758-2.333 1.772l-13.707 44.504c-.377 1.219.383 2.304 1.614 2.304Z" stroke="#1A2E35" stroke-width="1.333" stroke-miterlimit="10" stroke-linecap="round" stroke-linejoin="round"/><path d="m192.558 183.148 13.707-44.504c.313-1.014 1.311-1.772 2.333-1.772h2.869c-1.022 0-2.02.758-2.333 1.772l-13.707 44.504c-.376 1.22.383 2.304 1.614 2.304h-2.869c-1.231 0-1.99-1.084-1.614-2.304Z" fill="#868686"/><path d="m192.558 183.148 13.707-44.504c.313-1.014 1.311-1.772 2.333-1.772h2.869c-1.022 0-2.02.758-2.333 1.772l-13.707 44.504c-.376 1.22.383 2.304 1.614 2.304h-2.869c-1.231 0-1.99-1.084-1.614-2.304Z" stroke="#1A2E35" stroke-width="1.333" stroke-miterlimit="10" stroke-linecap="round" stroke-linejoin="round"/><path d="M232.234 161.161c-.268 2.182 1.284 3.951 3.465 3.951 2.182 0 4.168-1.769 4.436-3.951.267-2.181-1.284-3.95-3.466-3.95-2.181 0-4.168 1.769-4.435 3.95Z" fill="#fff"/><path d="M232.234 161.161c-.268 2.182 1.284 3.951 3.465 3.951 2.182 0 4.168-1.769 4.436-3.951.267-2.181-1.284-3.95-3.466-3.95-2.181 0-4.168 1.769-4.435 3.95Z" stroke="#1A2E35" stroke-width="1.333" stroke-miterlimit="10" stroke-linecap="round" stroke-linejoin="round"/><path d="M87.24 53.035h.412c.903 0 1.366-.411 1.366-1.828V47.34c0-.928.335-1.907 1.572-2.267v-.051c-1.237-.361-1.572-1.342-1.572-2.269v-3.866c0-1.417-.463-1.829-1.366-1.829h-.412v-2.32h1.443c1.597 0 2.861.902 2.861 2.861v4.741c0 1.186.334 1.547 1.623 1.547v2.32c-1.289 0-1.623.36-1.623 1.545v4.743c0 1.958-1.264 2.86-2.86 2.86H87.24v-2.32Z" fill="#fff"/><path d="M86.96 53.307h.44c.957 0 1.45-.428 1.45-1.898v-4.014c0-.963.355-1.98 1.67-2.354v-.053c-1.315-.375-1.67-1.393-1.67-2.355V38.62c0-1.471-.493-1.9-1.45-1.9h-.44v-2.408h1.534c1.696 0 3.038.937 3.038 2.97v4.923c0 1.23.355 1.605 1.724 1.605v2.407c-1.369 0-1.724.375-1.724 1.605v4.924c0 2.032-1.342 2.969-3.038 2.969H86.96v-2.408Z" stroke="#1A2E35" stroke-miterlimit="10" stroke-linecap="round" stroke-linejoin="round"/><path d="M80.388 53.035h-.413c-.902 0-1.366-.411-1.366-1.828V47.34c0-.928-.335-1.907-1.572-2.267v-.051c1.237-.361 1.572-1.342 1.572-2.269v-3.866c0-1.417.464-1.829 1.366-1.829h.413v-2.32h-1.444c-1.597 0-2.86.902-2.86 2.861v4.741c0 1.186-.335 1.547-1.624 1.547v2.32c1.29 0 1.624.36 1.624 1.545v4.743c0 1.958 1.263 2.86 2.86 2.86h1.444v-2.32Z" fill="#fff"/><path d="M80.666 53.307h-.438c-.958 0-1.45-.428-1.45-1.898v-4.014c0-.963-.356-1.98-1.67-2.354v-.053c1.314-.375 1.67-1.393 1.67-2.355V38.62c0-1.471.492-1.9 1.45-1.9h.438v-2.408h-1.533c-1.696 0-3.038.937-3.038 2.97v4.923c0 1.23-.355 1.605-1.724 1.605v2.407c1.369 0 1.724.375 1.724 1.605v4.924c0 2.032 1.342 2.969 3.038 2.969h1.533v-2.408Z" stroke="#1A2E35" stroke-miterlimit="10" stroke-linecap="round" stroke-linejoin="round"/><mask id="path-192-outside-1_21_1460" maskUnits="userSpaceOnUse" x="172.939" y="19.29" width="20" height="20" fill="#000"><path fill="#fff" d="M172.939 19.29h20v20h-20z"/><path fill-rule="evenodd" clip-rule="evenodd" d="M185.3 32.921v2.741c0 1.867-3.226 2.343-5.005 2.343h-3.178c-1.496-.105-3.178-.595-3.178-2.343v-3.998a4.9 4.9 0 0 1 4.899-4.9h.94a6.475 6.475 0 0 0 6.475-6.474h2.86c.781.185 2.344 1.557 2.344 5.56 0 4.387-4.59 5.88-8.977 5.88h-2.9v.993h5.72v.198Zm-1.986 3.099a.636.636 0 1 0 0-1.272.636.636 0 0 0 0 1.272Z"/></mask><path fill-rule="evenodd" clip-rule="evenodd" d="M185.3 32.921v2.741c0 1.867-3.226 2.343-5.005 2.343h-3.178c-1.496-.105-3.178-.595-3.178-2.343v-3.998a4.9 4.9 0 0 1 4.899-4.9h.94a6.475 6.475 0 0 0 6.475-6.474h2.86c.781.185 2.344 1.557 2.344 5.56 0 4.387-4.59 5.88-8.977 5.88h-2.9v.993h5.72v.198Zm-1.986 3.099a.636.636 0 1 0 0-1.272.636.636 0 0 0 0 1.272Z" fill="#fff"/><path d="m177.117 38.005-.07.998.035.002h.035v-1Zm9.136-17.715v-1h-1v1h1Zm2.86 0 .231-.973-.114-.027h-.117v1Zm-9.533 11.44v-1h-1v1h1Zm0 .993h-1v1h1v-1Zm5.72 0h1v-1h-1v1Zm1 2.939v-2.74h-2v2.74h2Zm-6.005 3.343c.952 0 2.323-.124 3.494-.525 1.08-.37 2.511-1.176 2.511-2.818h-2c0 .225-.182.59-1.16.926-.887.304-2.018.417-2.845.417v2Zm-3.178 0h3.178v-2h-3.178v2Zm-4.178-3.343c0 1.277.653 2.143 1.525 2.651.805.47 1.782.633 2.583.69l.141-1.995c-.695-.05-1.307-.184-1.717-.422-.343-.2-.532-.453-.532-.924h-2Zm0-3.998v3.998h2v-3.998h-2Zm5.899-5.9a5.9 5.9 0 0 0-5.899 5.9h2a3.9 3.9 0 0 1 3.899-3.9v-2Zm.94 0h-.94v2h.94v-2Zm5.475-5.474a5.475 5.475 0 0 1-5.475 5.474v2a7.474 7.474 0 0 0 7.475-7.474h-2Zm3.86-1h-2.86v2h2.86v-2Zm3.344 6.56c0-4.177-1.65-6.186-3.113-6.533l-.462 1.946.006.002c.004 0 .009.003.017.005a.613.613 0 0 1 .06.029c.051.027.118.071.197.138.157.133.353.352.544.692.384.681.751 1.845.751 3.722h2Zm-9.977 6.88c2.28 0 4.711-.384 6.611-1.416 1.952-1.06 3.366-2.834 3.366-5.463h-2c0 1.758-.882 2.924-2.321 3.706-1.493.81-3.55 1.173-5.656 1.173v2Zm-2.9 0h2.9v-2h-2.9v2Zm1-.007v-.993h-2v.993h2Zm4.72-1h-5.72v2h5.72v-2Zm1 1.198v-.198h-2v.198h2Zm-3.35 2.463c0-.201.163-.364.364-.364v2c.903 0 1.636-.733 1.636-1.636h-2Zm.364.364a.364.364 0 0 1-.364-.364h2c0-.903-.733-1.636-1.636-1.636v2Zm.365-.364a.365.365 0 0 1-.365.364v-2c-.903 0-1.635.733-1.635 1.636h2Zm-.365-.364c.201 0 .365.163.365.364h-2c0 .903.732 1.636 1.635 1.636v-2Z" fill="#1A2E35" mask="url(#path-192-outside-1_21_1460)"/><mask id="path-194-outside-2_21_1460" maskUnits="userSpaceOnUse" x="166.141" y="12.968" width="20" height="20" fill="#000"><path fill="#fff" d="M166.141 12.968h20v20h-20z"/><path fill-rule="evenodd" clip-rule="evenodd" d="M173.781 19.337v-2.741c0-1.867 3.225-2.344 5.005-2.344h3.177c1.497.106 3.178.596 3.178 2.344v3.998c0 2.706-2.193 4.9-4.899 4.9h-.94a6.474 6.474 0 0 0-6.474 6.474h-2.86c-.782-.185-2.344-1.557-2.344-5.561 0-4.387 4.59-5.879 8.977-5.879h2.9v-.993h-5.72v-.198Zm1.986-3.099a.636.636 0 1 0 0 1.272.636.636 0 0 0 0-1.272Z"/></mask><path fill-rule="evenodd" clip-rule="evenodd" d="M173.781 19.337v-2.741c0-1.867 3.225-2.344 5.005-2.344h3.177c1.497.106 3.178.596 3.178 2.344v3.998c0 2.706-2.193 4.9-4.899 4.9h-.94a6.474 6.474 0 0 0-6.474 6.474h-2.86c-.782-.185-2.344-1.557-2.344-5.561 0-4.387 4.59-5.879 8.977-5.879h2.9v-.993h-5.72v-.198Zm1.986-3.099a.636.636 0 1 0 0 1.272.636.636 0 0 0 0-1.272Z" fill="#fff"/><path d="M173.781 16.596h1-1Zm0 2.74h-1 1Zm8.182-5.084.071-.997-.035-.003h-.036v1Zm-9.135 17.716v1h1v-1h-1Zm-2.86 0-.231.973.114.027h.117v-1Zm9.533-11.44v1h1v-1h-1Zm0-.993h1v-1h-1v1Zm-5.72 0h-1v1h1v-1Zm-1-2.94v2.742h2v-2.741h-2Zm6.005-3.343c-.953 0-2.324.125-3.494.526-1.08.37-2.511 1.176-2.511 2.818h2c0-.225.181-.591 1.159-.926.887-.304 2.019-.418 2.846-.418v-2Zm3.177 0h-3.177v2h3.177v-2Zm4.178 3.344c0-1.277-.652-2.143-1.524-2.652-.805-.469-1.782-.633-2.583-.69l-.141 1.996c.695.049 1.307.183 1.717.422.343.2.531.453.531.924h2Zm0 3.998v-3.998h-2v3.998h2Zm-5.899 5.9a5.9 5.9 0 0 0 5.899-5.9h-2a3.9 3.9 0 0 1-3.899 3.9v2Zm-.94 0h.94v-2h-.94v2Zm-5.474 5.474a5.474 5.474 0 0 1 5.474-5.475v-2a7.474 7.474 0 0 0-7.474 7.475h2Zm-3.86 1h2.86v-2h-2.86v2Zm-3.344-6.561c0 4.177 1.649 6.187 3.113 6.534l.461-1.946-.005-.002a.504.504 0 0 1-.077-.034 1.135 1.135 0 0 1-.198-.138 2.527 2.527 0 0 1-.544-.693c-.383-.68-.75-1.844-.75-3.721h-2Zm9.977-6.879c-2.281 0-4.712.384-6.611 1.416-1.952 1.06-3.366 2.834-3.366 5.463h2c0-1.758.882-2.924 2.321-3.706 1.492-.81 3.55-1.173 5.656-1.173v-2Zm2.9 0h-2.9v2h2.9v-2Zm-1 .007v.993h2v-.993h-2Zm-4.72 1h5.72v-2h-5.72v2Zm-1-1.198v.198h2v-.198h-2Zm3.35-2.463a.364.364 0 0 1-.364.364v-2c-.903 0-1.636.733-1.636 1.636h2Zm-.364-.365c.201 0 .364.164.364.365h-2c0 .903.733 1.635 1.636 1.635v-2Zm-.365.365c0-.201.164-.365.365-.365v2c.903 0 1.635-.732 1.635-1.635h-2Zm.365.364a.365.365 0 0 1-.365-.364h2c0-.903-.732-1.636-1.635-1.636v2Z" fill="#1A2E35" mask="url(#path-194-outside-2_21_1460)"/><rect x="14.7" y="82.912" width="18.626" height="4.777" rx="1.5" fill="#fff" stroke="#1A2E35"/><rect x="14.7" y="90.466" width="18.626" height="6.036" rx="1.5" fill="#fff" stroke="#1A2E35"/><rect x="14.7" y="99.279" width="18.626" height="4.777" rx="1.5" fill="#fff" stroke="#1A2E35"/><path d="M258.229 50.236c-.118.545-.011 1.036.328 1.498m-.328-1.498 17.387-2.979-1.494-1.501m-15.893 4.48.092-.42m-.092.42.092-.42m.236 1.917c.441.602 12.398 12.457 12.74 12.632.363.186.956.216 1.399.071m-14.139-12.703.403-.295-.403.295Zm14.139 12.703c.238-.078 1.413-1.216 6.586-6.378 4.827-4.817 6.331-6.36 6.446-6.61.208-.453.202-1.092-.015-1.522m-13.017 14.51-.156-.475c-.029.01-.047.02-.047.02l.015-.01m.188.465-.155-.475-.033.01m13.205-14.045c-.222-.443-12.529-12.757-12.931-12.94m12.931 12.94-.446.224.446-.224Zm-12.931-12.94c-.349-.158-.942-.203-1.318-.1m1.318.1-.207.456.207-.456Zm-1.318-.1c-.236.064-.562.348-1.74 1.517m1.74-1.518.131.483m-.131-.483.131.483m-1.871 1.035-1.095 1.087.353.353m.742-1.44.352.355c.591-.586.956-.938 1.2-1.151.247-.216.317-.239.319-.24m-1.871 1.036.352.355-1.094 1.085m0 0-.355.353 1.228 1.23 1.581 1.583m-2.454-3.166 1.227 1.23 1.39 1.392m-.163.544.351-.072c1.338-.274 2.698 1.105 2.414 2.445l-.079.374m-2.686-2.747-.101-.49.264-.053m-.163.543.304-.303.05-.05-.076-.075-.115-.116m2.523 3.29.324-.322.03-.03.046.047.145.145m-.545.16.489.105.056-.265m2.635 2.648.319-.024c.566-.042 1.092.052 1.548.306.457.255.807.652 1.054 1.154.187.381.297.757.297 1.154-.001.397-.111.773-.299 1.156-.965 1.96-3.713 1.973-4.68.009a2.845 2.845 0 0 1-.222-.568l1.983-3.187Zm0 0-1.332-1.339-1.303-1.31m2.635 2.649-5.707-10.875m.913 26.603a1.602 1.602 0 0 1-.516.054 1.279 1.279 0 0 1-.438-.092 28.691 28.691 0 0 1-.54-.5c-.358-.339-.853-.817-1.441-1.39a734.19 734.19 0 0 1-4.257-4.189 742.892 742.892 0 0 1-4.275-4.27 184.65 184.65 0 0 1-1.465-1.49 39.062 39.062 0 0 1-.571-.604c-.029-.032-.041-.048-.044-.052h-.001c-.257-.35-.329-.695-.242-1.096l.06-.276 4.238-4.247 3.988-3.997 1.207 1.205c.547.548.926.938 1.163 1.199.071.079.126.142.167.192l-.016.107c-.016.127-.026.27-.029.41-.007.262.004.59.063.811.153.568.597 1.17 1.095 1.492l.272-.42-.272.42.128.083v7.019l-.126.078c-1.095.682-1.48 2.126-.924 3.3.456.965 1.315 1.51 2.383 1.512.226 0 .422-.007.624-.058.201-.051.38-.14.585-.25l-.237-.44.237.44c1.675-.897 1.9-3.072.461-4.312l-.19-.163V48.413l.554.554c.677.677 1.007 1.01 1.164 1.198l.012.015c-.018.082-.03.166-.038.236a3.777 3.777 0 0 0-.026.433l-3.666-13.482c.117-.032.298-.047.5-.032.18.014.337.05.443.09.027.022.066.056.12.104.107.095.256.233.442.41.373.352.885.847 1.491 1.44a561.56 561.56 0 0 1 4.37 4.332 575.26 575.26 0 0 1 4.337 4.38c.595.61 1.093 1.125 1.449 1.501a24.71 24.71 0 0 1 .525.574c.003.004.005.008.008.01.13.287.136.736.001 1.046M272.508 63.97a4.048 4.048 0 0 0 .259-.213c.215-.19.539-.494 1.024-.963.967-.937 2.551-2.509 5.138-5.09a587.417 587.417 0 0 0 4.985-5.013c.496-.509.841-.87 1.068-1.12.114-.124.194-.216.247-.281.032-.04.047-.061.052-.068m0 0-.007.017.009-.02-.002.003Zm-13.682-8.758.088-.018c.869-.178 1.708.186 2.271.756.563.57.917 1.414.732 2.282l-.023.11m-16.346 4.222 4.341-4.351 3.989-3.998-8.33 8.349Zm17.049.21Z" fill="#fff" stroke="#1A2E35"/></svg>